solid OpenSCAD_Model
  facet normal 0 -1 0
    outer loop
      vertex 0 0 0
      vertex 140 0 2
      vertex 0 0 2
    endloop
  endfacet
  facet normal 0 -1 -0
    outer loop
      vertex 140 0 2
      vertex 0 0 0
      vertex 140 0 0
    endloop
  endfacet
  facet normal 0.707107 0 0.707107
    outer loop
      vertex 2 68 2
      vertex 4 2 0
      vertex 4 68 0
    endloop
  endfacet
  facet normal 0.707107 0 0.707107
    outer loop
      vertex 4 2 0
      vertex 2 68 2
      vertex 2 2 2
    endloop
  endfacet
  facet normal 0 1 -0
    outer loop
      vertex 140 70 0
      vertex 0 70 2
      vertex 140 70 2
    endloop
  endfacet
  facet normal 0 1 0
    outer loop
      vertex 0 70 2
      vertex 140 70 0
      vertex 0 70 0
    endloop
  endfacet
  facet normal 0 0 -1
    outer loop
      vertex 140 0 0
      vertex 138 2 0
      vertex 140 70 0
    endloop
  endfacet
  facet normal 0 0 -1
    outer loop
      vertex 140 0 0
      vertex 136 2 0
      vertex 138 2 0
    endloop
  endfacet
  facet normal 0 0 -1
    outer loop
      vertex 140 0 0
      vertex 132 2 0
      vertex 136 2 0
    endloop
  endfacet
  facet normal 0 0 -1
    outer loop
      vertex 140 0 0
      vertex 128 2 0
      vertex 132 2 0
    endloop
  endfacet
  facet normal 0 0 -1
    outer loop
      vertex 140 0 0
      vertex 124 2 0
      vertex 128 2 0
    endloop
  endfacet
  facet normal 0 0 -1
    outer loop
      vertex 140 0 0
      vertex 120 2 0
      vertex 124 2 0
    endloop
  endfacet
  facet normal 0 0 -1
    outer loop
      vertex 140 0 0
      vertex 116 2 0
      vertex 120 2 0
    endloop
  endfacet
  facet normal 0 0 -1
    outer loop
      vertex 140 0 0
      vertex 112 2 0
      vertex 116 2 0
    endloop
  endfacet
  facet normal 0 0 -1
    outer loop
      vertex 140 0 0
      vertex 108 2 0
      vertex 112 2 0
    endloop
  endfacet
  facet normal 0 0 -1
    outer loop
      vertex 140 0 0
      vertex 104 2 0
      vertex 108 2 0
    endloop
  endfacet
  facet normal 0 0 -1
    outer loop
      vertex 140 0 0
      vertex 100 2 0
      vertex 104 2 0
    endloop
  endfacet
  facet normal 0 0 -1
    outer loop
      vertex 140 0 0
      vertex 96 2 0
      vertex 100 2 0
    endloop
  endfacet
  facet normal 0 0 -1
    outer loop
      vertex 140 0 0
      vertex 92 2 0
      vertex 96 2 0
    endloop
  endfacet
  facet normal 0 0 -1
    outer loop
      vertex 140 0 0
      vertex 88 2 0
      vertex 92 2 0
    endloop
  endfacet
  facet normal 0 0 -1
    outer loop
      vertex 140 0 0
      vertex 84 2 0
      vertex 88 2 0
    endloop
  endfacet
  facet normal 0 0 -1
    outer loop
      vertex 140 0 0
      vertex 80 2 0
      vertex 84 2 0
    endloop
  endfacet
  facet normal 0 0 -1
    outer loop
      vertex 140 0 0
      vertex 76 2 0
      vertex 80 2 0
    endloop
  endfacet
  facet normal 0 0 -1
    outer loop
      vertex 140 0 0
      vertex 72 2 0
      vertex 76 2 0
    endloop
  endfacet
  facet normal 0 0 -1
    outer loop
      vertex 140 0 0
      vertex 68 2 0
      vertex 72 2 0
    endloop
  endfacet
  facet normal 0 0 -1
    outer loop
      vertex 140 0 0
      vertex 64 2 0
      vertex 68 2 0
    endloop
  endfacet
  facet normal 0 0 -1
    outer loop
      vertex 140 0 0
      vertex 60 2 0
      vertex 64 2 0
    endloop
  endfacet
  facet normal 0 0 -1
    outer loop
      vertex 0 0 0
      vertex 60 2 0
      vertex 140 0 0
    endloop
  endfacet
  facet normal -0 0 -1
    outer loop
      vertex 60 2 0
      vertex 0 0 0
      vertex 56 2 0
    endloop
  endfacet
  facet normal -0 0 -1
    outer loop
      vertex 56 2 0
      vertex 0 0 0
      vertex 52 2 0
    endloop
  endfacet
  facet normal -0 0 -1
    outer loop
      vertex 52 2 0
      vertex 0 0 0
      vertex 48 2 0
    endloop
  endfacet
  facet normal -0 0 -1
    outer loop
      vertex 48 2 0
      vertex 0 0 0
      vertex 44 2 0
    endloop
  endfacet
  facet normal -0 0 -1
    outer loop
      vertex 44 2 0
      vertex 0 0 0
      vertex 40 2 0
    endloop
  endfacet
  facet normal -0 0 -1
    outer loop
      vertex 40 2 0
      vertex 0 0 0
      vertex 36 2 0
    endloop
  endfacet
  facet normal -0 0 -1
    outer loop
      vertex 36 2 0
      vertex 0 0 0
      vertex 32 2 0
    endloop
  endfacet
  facet normal -0 0 -1
    outer loop
      vertex 32 2 0
      vertex 0 0 0
      vertex 28 2 0
    endloop
  endfacet
  facet normal -0 0 -1
    outer loop
      vertex 28 2 0
      vertex 0 0 0
      vertex 24 2 0
    endloop
  endfacet
  facet normal -0 0 -1
    outer loop
      vertex 24 2 0
      vertex 0 0 0
      vertex 20 2 0
    endloop
  endfacet
  facet normal -0 0 -1
    outer loop
      vertex 20 2 0
      vertex 0 0 0
      vertex 16 2 0
    endloop
  endfacet
  facet normal -0 0 -1
    outer loop
      vertex 16 2 0
      vertex 0 0 0
      vertex 12 2 0
    endloop
  endfacet
  facet normal -0 0 -1
    outer loop
      vertex 12 2 0
      vertex 0 0 0
      vertex 8 2 0
    endloop
  endfacet
  facet normal -0 0 -1
    outer loop
      vertex 8 2 0
      vertex 0 0 0
      vertex 4 2 0
    endloop
  endfacet
  facet normal -0 0 -1
    outer loop
      vertex 2 2 0
      vertex 0 0 0
      vertex 2 68 0
    endloop
  endfacet
  facet normal -0 0 -1
    outer loop
      vertex 4 2 0
      vertex 0 0 0
      vertex 2 2 0
    endloop
  endfacet
  facet normal 0 0 -1
    outer loop
      vertex 138 68 0
      vertex 140 70 0
      vertex 138 2 0
    endloop
  endfacet
  facet normal 0 0 -1
    outer loop
      vertex 136 68 0
      vertex 140 70 0
      vertex 138 68 0
    endloop
  endfacet
  facet normal 0 0 -1
    outer loop
      vertex 132 68 0
      vertex 140 70 0
      vertex 136 68 0
    endloop
  endfacet
  facet normal 0 0 -1
    outer loop
      vertex 128 68 0
      vertex 140 70 0
      vertex 132 68 0
    endloop
  endfacet
  facet normal 0 0 -1
    outer loop
      vertex 124 68 0
      vertex 140 70 0
      vertex 128 68 0
    endloop
  endfacet
  facet normal 0 0 -1
    outer loop
      vertex 120 68 0
      vertex 140 70 0
      vertex 124 68 0
    endloop
  endfacet
  facet normal 0 0 -1
    outer loop
      vertex 116 68 0
      vertex 140 70 0
      vertex 120 68 0
    endloop
  endfacet
  facet normal 0 0 -1
    outer loop
      vertex 112 68 0
      vertex 140 70 0
      vertex 116 68 0
    endloop
  endfacet
  facet normal 0 0 -1
    outer loop
      vertex 108 68 0
      vertex 140 70 0
      vertex 112 68 0
    endloop
  endfacet
  facet normal 0 0 -1
    outer loop
      vertex 104 68 0
      vertex 140 70 0
      vertex 108 68 0
    endloop
  endfacet
  facet normal 0 0 -1
    outer loop
      vertex 100 68 0
      vertex 140 70 0
      vertex 104 68 0
    endloop
  endfacet
  facet normal 0 0 -1
    outer loop
      vertex 96 68 0
      vertex 140 70 0
      vertex 100 68 0
    endloop
  endfacet
  facet normal 0 0 -1
    outer loop
      vertex 92 68 0
      vertex 140 70 0
      vertex 96 68 0
    endloop
  endfacet
  facet normal 0 0 -1
    outer loop
      vertex 88 68 0
      vertex 140 70 0
      vertex 92 68 0
    endloop
  endfacet
  facet normal 0 0 -1
    outer loop
      vertex 84 68 0
      vertex 140 70 0
      vertex 88 68 0
    endloop
  endfacet
  facet normal 0 0 -1
    outer loop
      vertex 80 68 0
      vertex 140 70 0
      vertex 84 68 0
    endloop
  endfacet
  facet normal 0 0 -1
    outer loop
      vertex 76 68 0
      vertex 140 70 0
      vertex 80 68 0
    endloop
  endfacet
  facet normal 0 0 -1
    outer loop
      vertex 72 68 0
      vertex 140 70 0
      vertex 76 68 0
    endloop
  endfacet
  facet normal 0 0 -1
    outer loop
      vertex 68 68 0
      vertex 140 70 0
      vertex 72 68 0
    endloop
  endfacet
  facet normal 0 0 -1
    outer loop
      vertex 64 68 0
      vertex 140 70 0
      vertex 68 68 0
    endloop
  endfacet
  facet normal 0 0 -1
    outer loop
      vertex 60 68 0
      vertex 140 70 0
      vertex 64 68 0
    endloop
  endfacet
  facet normal 0 0 -1
    outer loop
      vertex 0 70 0
      vertex 60 68 0
      vertex 56 68 0
    endloop
  endfacet
  facet normal 0 0 -1
    outer loop
      vertex 0 70 0
      vertex 56 68 0
      vertex 52 68 0
    endloop
  endfacet
  facet normal 0 0 -1
    outer loop
      vertex 0 70 0
      vertex 52 68 0
      vertex 48 68 0
    endloop
  endfacet
  facet normal 0 0 -1
    outer loop
      vertex 0 70 0
      vertex 48 68 0
      vertex 44 68 0
    endloop
  endfacet
  facet normal 0 0 -1
    outer loop
      vertex 0 70 0
      vertex 44 68 0
      vertex 40 68 0
    endloop
  endfacet
  facet normal 0 0 -1
    outer loop
      vertex 0 70 0
      vertex 40 68 0
      vertex 36 68 0
    endloop
  endfacet
  facet normal 0 0 -1
    outer loop
      vertex 0 70 0
      vertex 36 68 0
      vertex 32 68 0
    endloop
  endfacet
  facet normal 0 0 -1
    outer loop
      vertex 0 70 0
      vertex 32 68 0
      vertex 28 68 0
    endloop
  endfacet
  facet normal 0 0 -1
    outer loop
      vertex 0 70 0
      vertex 28 68 0
      vertex 24 68 0
    endloop
  endfacet
  facet normal 0 0 -1
    outer loop
      vertex 0 70 0
      vertex 24 68 0
      vertex 20 68 0
    endloop
  endfacet
  facet normal 0 0 -1
    outer loop
      vertex 0 70 0
      vertex 20 68 0
      vertex 16 68 0
    endloop
  endfacet
  facet normal 0 0 -1
    outer loop
      vertex 0 70 0
      vertex 16 68 0
      vertex 12 68 0
    endloop
  endfacet
  facet normal 0 0 -1
    outer loop
      vertex 0 70 0
      vertex 12 68 0
      vertex 8 68 0
    endloop
  endfacet
  facet normal 0 0 -1
    outer loop
      vertex 0 70 0
      vertex 8 68 0
      vertex 4 68 0
    endloop
  endfacet
  facet normal 0 0 -1
    outer loop
      vertex 0 70 0
      vertex 4 68 0
      vertex 2 68 0
    endloop
  endfacet
  facet normal 0 0 -1
    outer loop
      vertex 60 68 0
      vertex 0 70 0
      vertex 140 70 0
    endloop
  endfacet
  facet normal 0 0 -1
    outer loop
      vertex 0 70 0
      vertex 2 68 0
      vertex 0 0 0
    endloop
  endfacet
  facet normal 0 0 -1
    outer loop
      vertex 136 2 0
      vertex 138 68 0
      vertex 138 2 0
    endloop
  endfacet
  facet normal -0 0 -1
    outer loop
      vertex 138 68 0
      vertex 136 2 0
      vertex 136 68 0
    endloop
  endfacet
  facet normal 0 0 -1
    outer loop
      vertex 128 2 0
      vertex 132 68 0
      vertex 132 2 0
    endloop
  endfacet
  facet normal -0 0 -1
    outer loop
      vertex 132 68 0
      vertex 128 2 0
      vertex 128 68 0
    endloop
  endfacet
  facet normal 0 0 -1
    outer loop
      vertex 2 2 0
      vertex 4 68 0
      vertex 4 2 0
    endloop
  endfacet
  facet normal -0 0 -1
    outer loop
      vertex 4 68 0
      vertex 2 2 0
      vertex 2 68 0
    endloop
  endfacet
  facet normal 0 0 -1
    outer loop
      vertex 120 2 0
      vertex 124 68 0
      vertex 124 2 0
    endloop
  endfacet
  facet normal -0 0 -1
    outer loop
      vertex 124 68 0
      vertex 120 2 0
      vertex 120 68 0
    endloop
  endfacet
  facet normal 0 0 -1
    outer loop
      vertex 112 2 0
      vertex 116 68 0
      vertex 116 2 0
    endloop
  endfacet
  facet normal -0 0 -1
    outer loop
      vertex 116 68 0
      vertex 112 2 0
      vertex 112 68 0
    endloop
  endfacet
  facet normal 0 0 -1
    outer loop
      vertex 104 2 0
      vertex 108 68 0
      vertex 108 2 0
    endloop
  endfacet
  facet normal -0 0 -1
    outer loop
      vertex 108 68 0
      vertex 104 2 0
      vertex 104 68 0
    endloop
  endfacet
  facet normal 0 0 -1
    outer loop
      vertex 96 2 0
      vertex 100 68 0
      vertex 100 2 0
    endloop
  endfacet
  facet normal -0 0 -1
    outer loop
      vertex 100 68 0
      vertex 96 2 0
      vertex 96 68 0
    endloop
  endfacet
  facet normal 0 0 -1
    outer loop
      vertex 88 2 0
      vertex 92 68 0
      vertex 92 2 0
    endloop
  endfacet
  facet normal -0 0 -1
    outer loop
      vertex 92 68 0
      vertex 88 2 0
      vertex 88 68 0
    endloop
  endfacet
  facet normal 0 0 -1
    outer loop
      vertex 80 2 0
      vertex 84 68 0
      vertex 84 2 0
    endloop
  endfacet
  facet normal -0 0 -1
    outer loop
      vertex 84 68 0
      vertex 80 2 0
      vertex 80 68 0
    endloop
  endfacet
  facet normal 0 0 -1
    outer loop
      vertex 72 2 0
      vertex 76 68 0
      vertex 76 2 0
    endloop
  endfacet
  facet normal -0 0 -1
    outer loop
      vertex 76 68 0
      vertex 72 2 0
      vertex 72 68 0
    endloop
  endfacet
  facet normal 0 0 -1
    outer loop
      vertex 64 2 0
      vertex 68 68 0
      vertex 68 2 0
    endloop
  endfacet
  facet normal -0 0 -1
    outer loop
      vertex 68 68 0
      vertex 64 2 0
      vertex 64 68 0
    endloop
  endfacet
  facet normal 0 0 -1
    outer loop
      vertex 56 2 0
      vertex 60 68 0
      vertex 60 2 0
    endloop
  endfacet
  facet normal -0 0 -1
    outer loop
      vertex 60 68 0
      vertex 56 2 0
      vertex 56 68 0
    endloop
  endfacet
  facet normal 0 0 -1
    outer loop
      vertex 48 2 0
      vertex 52 68 0
      vertex 52 2 0
    endloop
  endfacet
  facet normal -0 0 -1
    outer loop
      vertex 52 68 0
      vertex 48 2 0
      vertex 48 68 0
    endloop
  endfacet
  facet normal 0 0 -1
    outer loop
      vertex 40 2 0
      vertex 44 68 0
      vertex 44 2 0
    endloop
  endfacet
  facet normal -0 0 -1
    outer loop
      vertex 44 68 0
      vertex 40 2 0
      vertex 40 68 0
    endloop
  endfacet
  facet normal 0 0 -1
    outer loop
      vertex 32 2 0
      vertex 36 68 0
      vertex 36 2 0
    endloop
  endfacet
  facet normal -0 0 -1
    outer loop
      vertex 36 68 0
      vertex 32 2 0
      vertex 32 68 0
    endloop
  endfacet
  facet normal 0 0 -1
    outer loop
      vertex 24 2 0
      vertex 28 68 0
      vertex 28 2 0
    endloop
  endfacet
  facet normal -0 0 -1
    outer loop
      vertex 28 68 0
      vertex 24 2 0
      vertex 24 68 0
    endloop
  endfacet
  facet normal 0 0 -1
    outer loop
      vertex 16 2 0
      vertex 20 68 0
      vertex 20 2 0
    endloop
  endfacet
  facet normal -0 0 -1
    outer loop
      vertex 20 68 0
      vertex 16 2 0
      vertex 16 68 0
    endloop
  endfacet
  facet normal 0 0 -1
    outer loop
      vertex 8 2 0
      vertex 12 68 0
      vertex 12 2 0
    endloop
  endfacet
  facet normal -0 0 -1
    outer loop
      vertex 12 68 0
      vertex 8 2 0
      vertex 8 68 0
    endloop
  endfacet
  facet normal 0.707107 -0 0.707107
    outer loop
      vertex 10 2 2
      vertex 12 68 0
      vertex 10 68 2
    endloop
  endfacet
  facet normal 0.707107 0 0.707107
    outer loop
      vertex 12 68 0
      vertex 10 2 2
      vertex 12 2 0
    endloop
  endfacet
  facet normal -0.707107 0 0.707107
    outer loop
      vertex 8 68 0
      vertex 10 2 2
      vertex 10 68 2
    endloop
  endfacet
  facet normal -0.707107 0 0.707107
    outer loop
      vertex 10 2 2
      vertex 8 68 0
      vertex 8 2 0
    endloop
  endfacet
  facet normal 0.707107 0 0.707107
    outer loop
      vertex 18 68 2
      vertex 20 2 0
      vertex 20 68 0
    endloop
  endfacet
  facet normal 0.707107 0 0.707107
    outer loop
      vertex 20 2 0
      vertex 18 68 2
      vertex 18 2 2
    endloop
  endfacet
  facet normal -0.707107 0 0.707107
    outer loop
      vertex 16 2 0
      vertex 18 68 2
      vertex 16 68 0
    endloop
  endfacet
  facet normal -0.707107 0 0.707107
    outer loop
      vertex 18 68 2
      vertex 16 2 0
      vertex 18 2 2
    endloop
  endfacet
  facet normal 0.707107 0 0.707107
    outer loop
      vertex 26 68 2
      vertex 28 2 0
      vertex 28 68 0
    endloop
  endfacet
  facet normal 0.707107 0 0.707107
    outer loop
      vertex 28 2 0
      vertex 26 68 2
      vertex 26 2 2
    endloop
  endfacet
  facet normal -0.707107 0 0.707107
    outer loop
      vertex 24 2 0
      vertex 26 68 2
      vertex 24 68 0
    endloop
  endfacet
  facet normal -0.707107 0 0.707107
    outer loop
      vertex 26 68 2
      vertex 24 2 0
      vertex 26 2 2
    endloop
  endfacet
  facet normal 0.707107 0 0.707107
    outer loop
      vertex 34 68 2
      vertex 36 2 0
      vertex 36 68 0
    endloop
  endfacet
  facet normal 0.707107 0 0.707107
    outer loop
      vertex 36 2 0
      vertex 34 68 2
      vertex 34 2 2
    endloop
  endfacet
  facet normal -0.707107 0 0.707107
    outer loop
      vertex 32 68 0
      vertex 34 2 2
      vertex 34 68 2
    endloop
  endfacet
  facet normal -0.707107 0 0.707107
    outer loop
      vertex 34 2 2
      vertex 32 68 0
      vertex 32 2 0
    endloop
  endfacet
  facet normal 0.707107 0 0.707107
    outer loop
      vertex 42 68 2
      vertex 44 2 0
      vertex 44 68 0
    endloop
  endfacet
  facet normal 0.707107 0 0.707107
    outer loop
      vertex 44 2 0
      vertex 42 68 2
      vertex 42 2 2
    endloop
  endfacet
  facet normal -0.707107 0 0.707107
    outer loop
      vertex 40 68 0
      vertex 42 2 2
      vertex 42 68 2
    endloop
  endfacet
  facet normal -0.707107 0 0.707107
    outer loop
      vertex 42 2 2
      vertex 40 68 0
      vertex 40 2 0
    endloop
  endfacet
  facet normal 0.707107 0 0.707107
    outer loop
      vertex 50 68 2
      vertex 52 2 0
      vertex 52 68 0
    endloop
  endfacet
  facet normal 0.707107 0 0.707107
    outer loop
      vertex 52 2 0
      vertex 50 68 2
      vertex 50 2 2
    endloop
  endfacet
  facet normal -0.707107 0 0.707107
    outer loop
      vertex 48 68 0
      vertex 50 2 2
      vertex 50 68 2
    endloop
  endfacet
  facet normal -0.707107 0 0.707107
    outer loop
      vertex 50 2 2
      vertex 48 68 0
      vertex 48 2 0
    endloop
  endfacet
  facet normal 0.707107 0 0.707107
    outer loop
      vertex 58 68 2
      vertex 60 2 0
      vertex 60 68 0
    endloop
  endfacet
  facet normal 0.707107 0 0.707107
    outer loop
      vertex 60 2 0
      vertex 58 68 2
      vertex 58 2 2
    endloop
  endfacet
  facet normal -0.707107 0 0.707107
    outer loop
      vertex 56 68 0
      vertex 58 2 2
      vertex 58 68 2
    endloop
  endfacet
  facet normal -0.707107 0 0.707107
    outer loop
      vertex 58 2 2
      vertex 56 68 0
      vertex 56 2 0
    endloop
  endfacet
  facet normal 0.707107 0 0.707107
    outer loop
      vertex 66 68 2
      vertex 68 2 0
      vertex 68 68 0
    endloop
  endfacet
  facet normal 0.707107 0 0.707107
    outer loop
      vertex 68 2 0
      vertex 66 68 2
      vertex 66 2 2
    endloop
  endfacet
  facet normal -0.707107 0 0.707107
    outer loop
      vertex 64 68 0
      vertex 66 2 2
      vertex 66 68 2
    endloop
  endfacet
  facet normal -0.707107 0 0.707107
    outer loop
      vertex 66 2 2
      vertex 64 68 0
      vertex 64 2 0
    endloop
  endfacet
  facet normal 0.707107 0 0.707107
    outer loop
      vertex 74 68 2
      vertex 76 2 0
      vertex 76 68 0
    endloop
  endfacet
  facet normal 0.707107 0 0.707107
    outer loop
      vertex 76 2 0
      vertex 74 68 2
      vertex 74 2 2
    endloop
  endfacet
  facet normal -0.707107 0 0.707107
    outer loop
      vertex 72 68 0
      vertex 74 2 2
      vertex 74 68 2
    endloop
  endfacet
  facet normal -0.707107 0 0.707107
    outer loop
      vertex 74 2 2
      vertex 72 68 0
      vertex 72 2 0
    endloop
  endfacet
  facet normal 0.707107 0 0.707107
    outer loop
      vertex 82 68 2
      vertex 84 2 0
      vertex 84 68 0
    endloop
  endfacet
  facet normal 0.707107 0 0.707107
    outer loop
      vertex 84 2 0
      vertex 82 68 2
      vertex 82 2 2
    endloop
  endfacet
  facet normal -0.707107 0 0.707107
    outer loop
      vertex 80 68 0
      vertex 82 2 2
      vertex 82 68 2
    endloop
  endfacet
  facet normal -0.707107 0 0.707107
    outer loop
      vertex 82 2 2
      vertex 80 68 0
      vertex 80 2 0
    endloop
  endfacet
  facet normal 0.707107 0 0.707107
    outer loop
      vertex 90 68 2
      vertex 92 2 0
      vertex 92 68 0
    endloop
  endfacet
  facet normal 0.707107 0 0.707107
    outer loop
      vertex 92 2 0
      vertex 90 68 2
      vertex 90 2 2
    endloop
  endfacet
  facet normal -0.707107 0 0.707107
    outer loop
      vertex 88 68 0
      vertex 90 2 2
      vertex 90 68 2
    endloop
  endfacet
  facet normal -0.707107 0 0.707107
    outer loop
      vertex 90 2 2
      vertex 88 68 0
      vertex 88 2 0
    endloop
  endfacet
  facet normal 0.707107 0 0.707107
    outer loop
      vertex 98 68 2
      vertex 100 2 0
      vertex 100 68 0
    endloop
  endfacet
  facet normal 0.707107 0 0.707107
    outer loop
      vertex 100 2 0
      vertex 98 68 2
      vertex 98 2 2
    endloop
  endfacet
  facet normal -0.707107 0 0.707107
    outer loop
      vertex 96 68 0
      vertex 98 2 2
      vertex 98 68 2
    endloop
  endfacet
  facet normal -0.707107 0 0.707107
    outer loop
      vertex 98 2 2
      vertex 96 68 0
      vertex 96 2 0
    endloop
  endfacet
  facet normal 0.707107 0 0.707107
    outer loop
      vertex 106 68 2
      vertex 108 2 0
      vertex 108 68 0
    endloop
  endfacet
  facet normal 0.707107 0 0.707107
    outer loop
      vertex 108 2 0
      vertex 106 68 2
      vertex 106 2 2
    endloop
  endfacet
  facet normal -0.707107 0 0.707107
    outer loop
      vertex 104 68 0
      vertex 106 2 2
      vertex 106 68 2
    endloop
  endfacet
  facet normal -0.707107 0 0.707107
    outer loop
      vertex 106 2 2
      vertex 104 68 0
      vertex 104 2 0
    endloop
  endfacet
  facet normal 0.707107 0 0.707107
    outer loop
      vertex 114 68 2
      vertex 116 2 0
      vertex 116 68 0
    endloop
  endfacet
  facet normal 0.707107 0 0.707107
    outer loop
      vertex 116 2 0
      vertex 114 68 2
      vertex 114 2 2
    endloop
  endfacet
  facet normal -0.707107 0 0.707107
    outer loop
      vertex 112 68 0
      vertex 114 2 2
      vertex 114 68 2
    endloop
  endfacet
  facet normal -0.707107 0 0.707107
    outer loop
      vertex 114 2 2
      vertex 112 68 0
      vertex 112 2 0
    endloop
  endfacet
  facet normal 0.707107 0 0.707107
    outer loop
      vertex 122 68 2
      vertex 124 2 0
      vertex 124 68 0
    endloop
  endfacet
  facet normal 0.707107 0 0.707107
    outer loop
      vertex 124 2 0
      vertex 122 68 2
      vertex 122 2 2
    endloop
  endfacet
  facet normal -0.707107 0 0.707107
    outer loop
      vertex 120 68 0
      vertex 122 2 2
      vertex 122 68 2
    endloop
  endfacet
  facet normal -0.707107 0 0.707107
    outer loop
      vertex 122 2 2
      vertex 120 68 0
      vertex 120 2 0
    endloop
  endfacet
  facet normal 0.707107 0 0.707107
    outer loop
      vertex 130 68 2
      vertex 132 2 0
      vertex 132 68 0
    endloop
  endfacet
  facet normal 0.707107 0 0.707107
    outer loop
      vertex 132 2 0
      vertex 130 68 2
      vertex 130 2 2
    endloop
  endfacet
  facet normal -0.707107 0 0.707107
    outer loop
      vertex 128 68 0
      vertex 130 2 2
      vertex 130 68 2
    endloop
  endfacet
  facet normal -0.707107 0 0.707107
    outer loop
      vertex 130 2 2
      vertex 128 68 0
      vertex 128 2 0
    endloop
  endfacet
  facet normal -0.707107 0 0.707107
    outer loop
      vertex 136 68 0
      vertex 138 2 2
      vertex 138 68 2
    endloop
  endfacet
  facet normal -0.707107 0 0.707107
    outer loop
      vertex 138 2 2
      vertex 136 68 0
      vertex 136 2 0
    endloop
  endfacet
  facet normal 0 -1 0
    outer loop
      vertex 124 68 0
      vertex 130 68 2
      vertex 122 68 2
    endloop
  endfacet
  facet normal 0 -1 0
    outer loop
      vertex 130 68 2
      vertex 124 68 0
      vertex 128 68 0
    endloop
  endfacet
  facet normal 0 -1 0
    outer loop
      vertex 116 68 0
      vertex 122 68 2
      vertex 114 68 2
    endloop
  endfacet
  facet normal 0 -1 0
    outer loop
      vertex 122 68 2
      vertex 116 68 0
      vertex 120 68 0
    endloop
  endfacet
  facet normal 0 -1 0
    outer loop
      vertex 108 68 0
      vertex 114 68 2
      vertex 106 68 2
    endloop
  endfacet
  facet normal 0 -1 0
    outer loop
      vertex 114 68 2
      vertex 108 68 0
      vertex 112 68 0
    endloop
  endfacet
  facet normal 0 -1 0
    outer loop
      vertex 100 68 0
      vertex 106 68 2
      vertex 98 68 2
    endloop
  endfacet
  facet normal 0 -1 0
    outer loop
      vertex 106 68 2
      vertex 100 68 0
      vertex 104 68 0
    endloop
  endfacet
  facet normal 0 -1 0
    outer loop
      vertex 92 68 0
      vertex 98 68 2
      vertex 90 68 2
    endloop
  endfacet
  facet normal 0 -1 0
    outer loop
      vertex 98 68 2
      vertex 92 68 0
      vertex 96 68 0
    endloop
  endfacet
  facet normal 0 -1 0
    outer loop
      vertex 84 68 0
      vertex 90 68 2
      vertex 82 68 2
    endloop
  endfacet
  facet normal 0 -1 0
    outer loop
      vertex 90 68 2
      vertex 84 68 0
      vertex 88 68 0
    endloop
  endfacet
  facet normal 0 -1 0
    outer loop
      vertex 76 68 0
      vertex 82 68 2
      vertex 74 68 2
    endloop
  endfacet
  facet normal 0 -1 0
    outer loop
      vertex 82 68 2
      vertex 76 68 0
      vertex 80 68 0
    endloop
  endfacet
  facet normal 0 -1 0
    outer loop
      vertex 68 68 0
      vertex 74 68 2
      vertex 66 68 2
    endloop
  endfacet
  facet normal 0 -1 0
    outer loop
      vertex 74 68 2
      vertex 68 68 0
      vertex 72 68 0
    endloop
  endfacet
  facet normal 0 -1 0
    outer loop
      vertex 60 68 0
      vertex 66 68 2
      vertex 58 68 2
    endloop
  endfacet
  facet normal 0 -1 0
    outer loop
      vertex 66 68 2
      vertex 60 68 0
      vertex 64 68 0
    endloop
  endfacet
  facet normal 0 -1 0
    outer loop
      vertex 52 68 0
      vertex 58 68 2
      vertex 50 68 2
    endloop
  endfacet
  facet normal 0 -1 0
    outer loop
      vertex 58 68 2
      vertex 52 68 0
      vertex 56 68 0
    endloop
  endfacet
  facet normal 0 -1 0
    outer loop
      vertex 44 68 0
      vertex 50 68 2
      vertex 42 68 2
    endloop
  endfacet
  facet normal 0 -1 0
    outer loop
      vertex 50 68 2
      vertex 44 68 0
      vertex 48 68 0
    endloop
  endfacet
  facet normal 0 -1 0
    outer loop
      vertex 36 68 0
      vertex 42 68 2
      vertex 34 68 2
    endloop
  endfacet
  facet normal 0 -1 0
    outer loop
      vertex 42 68 2
      vertex 36 68 0
      vertex 40 68 0
    endloop
  endfacet
  facet normal 0 -1 0
    outer loop
      vertex 28 68 0
      vertex 34 68 2
      vertex 26 68 2
    endloop
  endfacet
  facet normal 0 -1 0
    outer loop
      vertex 34 68 2
      vertex 28 68 0
      vertex 32 68 0
    endloop
  endfacet
  facet normal 0 -1 0
    outer loop
      vertex 20 68 0
      vertex 26 68 2
      vertex 18 68 2
    endloop
  endfacet
  facet normal 0 -1 0
    outer loop
      vertex 26 68 2
      vertex 20 68 0
      vertex 24 68 0
    endloop
  endfacet
  facet normal 0 -1 0
    outer loop
      vertex 12 68 0
      vertex 18 68 2
      vertex 10 68 2
    endloop
  endfacet
  facet normal 0 -1 0
    outer loop
      vertex 18 68 2
      vertex 12 68 0
      vertex 16 68 0
    endloop
  endfacet
  facet normal 0 -1 0
    outer loop
      vertex 4 68 0
      vertex 10 68 2
      vertex 2 68 2
    endloop
  endfacet
  facet normal 0 -1 0
    outer loop
      vertex 10 68 2
      vertex 4 68 0
      vertex 8 68 0
    endloop
  endfacet
  facet normal 0 0 0
    outer loop
      vertex 2 68 2
      vertex 10 68 2
      vertex 138 68 2
    endloop
  endfacet
  facet normal 0 -0 0
    outer loop
      vertex 18 68 2
      vertex 138 68 2
      vertex 10 68 2
    endloop
  endfacet
  facet normal 0 -0 0
    outer loop
      vertex 26 68 2
      vertex 138 68 2
      vertex 18 68 2
    endloop
  endfacet
  facet normal 0 -0 0
    outer loop
      vertex 34 68 2
      vertex 138 68 2
      vertex 26 68 2
    endloop
  endfacet
  facet normal 0 -0 0
    outer loop
      vertex 42 68 2
      vertex 138 68 2
      vertex 34 68 2
    endloop
  endfacet
  facet normal 0 -0 0
    outer loop
      vertex 50 68 2
      vertex 138 68 2
      vertex 42 68 2
    endloop
  endfacet
  facet normal 0 -0 0
    outer loop
      vertex 58 68 2
      vertex 138 68 2
      vertex 50 68 2
    endloop
  endfacet
  facet normal 0 -0 0
    outer loop
      vertex 66 68 2
      vertex 138 68 2
      vertex 58 68 2
    endloop
  endfacet
  facet normal 0 -0 0
    outer loop
      vertex 74 68 2
      vertex 138 68 2
      vertex 66 68 2
    endloop
  endfacet
  facet normal 0 -0 0
    outer loop
      vertex 82 68 2
      vertex 138 68 2
      vertex 74 68 2
    endloop
  endfacet
  facet normal 0 -0 0
    outer loop
      vertex 90 68 2
      vertex 138 68 2
      vertex 82 68 2
    endloop
  endfacet
  facet normal 0 -0 0
    outer loop
      vertex 98 68 2
      vertex 138 68 2
      vertex 90 68 2
    endloop
  endfacet
  facet normal 0 -0 0
    outer loop
      vertex 106 68 2
      vertex 138 68 2
      vertex 98 68 2
    endloop
  endfacet
  facet normal 0 -0 0
    outer loop
      vertex 114 68 2
      vertex 138 68 2
      vertex 106 68 2
    endloop
  endfacet
  facet normal 0 -0 0
    outer loop
      vertex 122 68 2
      vertex 138 68 2
      vertex 114 68 2
    endloop
  endfacet
  facet normal 0 -0 0
    outer loop
      vertex 130 68 2
      vertex 138 68 2
      vertex 122 68 2
    endloop
  endfacet
  facet normal 0 -1 0
    outer loop
      vertex 132 68 0
      vertex 138 68 2
      vertex 130 68 2
    endloop
  endfacet
  facet normal 0 -1 0
    outer loop
      vertex 136 68 0
      vertex 138 68 2
      vertex 132 68 0
    endloop
  endfacet
  facet normal 0 0 1
    outer loop
      vertex 140 70 2
      vertex 138 68 2
      vertex 140 0 2
    endloop
  endfacet
  facet normal 0 0 1
    outer loop
      vertex 140 70 2
      vertex 2 68 2
      vertex 138 68 2
    endloop
  endfacet
  facet normal 0 0 1
    outer loop
      vertex 2 68 2
      vertex 0 70 2
      vertex 2 2 2
    endloop
  endfacet
  facet normal -0 0 1
    outer loop
      vertex 0 70 2
      vertex 2 68 2
      vertex 140 70 2
    endloop
  endfacet
  facet normal -0 0 1
    outer loop
      vertex 138 2 2
      vertex 140 0 2
      vertex 138 68 2
    endloop
  endfacet
  facet normal -0 0 1
    outer loop
      vertex 2 2 2
      vertex 140 0 2
      vertex 138 2 2
    endloop
  endfacet
  facet normal 0 0 1
    outer loop
      vertex 2 2 2
      vertex 0 0 2
      vertex 140 0 2
    endloop
  endfacet
  facet normal 0 0 1
    outer loop
      vertex 0 0 2
      vertex 2 2 2
      vertex 0 70 2
    endloop
  endfacet
  facet normal 1 -0 0
    outer loop
      vertex 140 0 2
      vertex 140 70 0
      vertex 140 70 2
    endloop
  endfacet
  facet normal 1 0 0
    outer loop
      vertex 140 70 0
      vertex 140 0 2
      vertex 140 0 0
    endloop
  endfacet
  facet normal -1 0 0
    outer loop
      vertex 0 0 0
      vertex 0 70 2
      vertex 0 70 0
    endloop
  endfacet
  facet normal -1 -0 0
    outer loop
      vertex 0 70 2
      vertex 0 0 0
      vertex 0 0 2
    endloop
  endfacet
  facet normal 0 1 -0
    outer loop
      vertex 8 2 0
      vertex 2 2 2
      vertex 10 2 2
    endloop
  endfacet
  facet normal 0 1 0
    outer loop
      vertex 2 2 2
      vertex 8 2 0
      vertex 4 2 0
    endloop
  endfacet
  facet normal 0 1 -0
    outer loop
      vertex 16 2 0
      vertex 10 2 2
      vertex 18 2 2
    endloop
  endfacet
  facet normal 0 1 0
    outer loop
      vertex 10 2 2
      vertex 16 2 0
      vertex 12 2 0
    endloop
  endfacet
  facet normal 0 1 -0
    outer loop
      vertex 24 2 0
      vertex 18 2 2
      vertex 26 2 2
    endloop
  endfacet
  facet normal 0 1 0
    outer loop
      vertex 18 2 2
      vertex 24 2 0
      vertex 20 2 0
    endloop
  endfacet
  facet normal 0 1 -0
    outer loop
      vertex 32 2 0
      vertex 26 2 2
      vertex 34 2 2
    endloop
  endfacet
  facet normal 0 1 0
    outer loop
      vertex 26 2 2
      vertex 32 2 0
      vertex 28 2 0
    endloop
  endfacet
  facet normal 0 1 -0
    outer loop
      vertex 40 2 0
      vertex 34 2 2
      vertex 42 2 2
    endloop
  endfacet
  facet normal 0 1 0
    outer loop
      vertex 34 2 2
      vertex 40 2 0
      vertex 36 2 0
    endloop
  endfacet
  facet normal 0 1 -0
    outer loop
      vertex 48 2 0
      vertex 42 2 2
      vertex 50 2 2
    endloop
  endfacet
  facet normal 0 1 0
    outer loop
      vertex 42 2 2
      vertex 48 2 0
      vertex 44 2 0
    endloop
  endfacet
  facet normal 0 1 -0
    outer loop
      vertex 56 2 0
      vertex 50 2 2
      vertex 58 2 2
    endloop
  endfacet
  facet normal 0 1 0
    outer loop
      vertex 50 2 2
      vertex 56 2 0
      vertex 52 2 0
    endloop
  endfacet
  facet normal 0 1 -0
    outer loop
      vertex 64 2 0
      vertex 58 2 2
      vertex 66 2 2
    endloop
  endfacet
  facet normal 0 1 0
    outer loop
      vertex 58 2 2
      vertex 64 2 0
      vertex 60 2 0
    endloop
  endfacet
  facet normal 0 1 -0
    outer loop
      vertex 72 2 0
      vertex 66 2 2
      vertex 74 2 2
    endloop
  endfacet
  facet normal 0 1 0
    outer loop
      vertex 66 2 2
      vertex 72 2 0
      vertex 68 2 0
    endloop
  endfacet
  facet normal 0 1 -0
    outer loop
      vertex 80 2 0
      vertex 74 2 2
      vertex 82 2 2
    endloop
  endfacet
  facet normal 0 1 0
    outer loop
      vertex 74 2 2
      vertex 80 2 0
      vertex 76 2 0
    endloop
  endfacet
  facet normal 0 1 -0
    outer loop
      vertex 88 2 0
      vertex 82 2 2
      vertex 90 2 2
    endloop
  endfacet
  facet normal 0 1 0
    outer loop
      vertex 82 2 2
      vertex 88 2 0
      vertex 84 2 0
    endloop
  endfacet
  facet normal 0 1 -0
    outer loop
      vertex 96 2 0
      vertex 90 2 2
      vertex 98 2 2
    endloop
  endfacet
  facet normal 0 1 0
    outer loop
      vertex 90 2 2
      vertex 96 2 0
      vertex 92 2 0
    endloop
  endfacet
  facet normal 0 1 -0
    outer loop
      vertex 104 2 0
      vertex 98 2 2
      vertex 106 2 2
    endloop
  endfacet
  facet normal 0 1 0
    outer loop
      vertex 98 2 2
      vertex 104 2 0
      vertex 100 2 0
    endloop
  endfacet
  facet normal 0 1 -0
    outer loop
      vertex 112 2 0
      vertex 106 2 2
      vertex 114 2 2
    endloop
  endfacet
  facet normal 0 1 0
    outer loop
      vertex 106 2 2
      vertex 112 2 0
      vertex 108 2 0
    endloop
  endfacet
  facet normal 0 1 -0
    outer loop
      vertex 120 2 0
      vertex 114 2 2
      vertex 122 2 2
    endloop
  endfacet
  facet normal 0 1 0
    outer loop
      vertex 114 2 2
      vertex 120 2 0
      vertex 116 2 0
    endloop
  endfacet
  facet normal 0 1 -0
    outer loop
      vertex 128 2 0
      vertex 122 2 2
      vertex 130 2 2
    endloop
  endfacet
  facet normal 0 1 0
    outer loop
      vertex 122 2 2
      vertex 128 2 0
      vertex 124 2 0
    endloop
  endfacet
  facet normal 0 0 0
    outer loop
      vertex 138 2 2
      vertex 130 2 2
      vertex 2 2 2
    endloop
  endfacet
  facet normal 0 1 0
    outer loop
      vertex 138 2 2
      vertex 136 2 0
      vertex 130 2 2
    endloop
  endfacet
  facet normal 0 1 0
    outer loop
      vertex 130 2 2
      vertex 136 2 0
      vertex 132 2 0
    endloop
  endfacet
  facet normal 0 0 -0
    outer loop
      vertex 122 2 2
      vertex 2 2 2
      vertex 130 2 2
    endloop
  endfacet
  facet normal 0 0 -0
    outer loop
      vertex 114 2 2
      vertex 2 2 2
      vertex 122 2 2
    endloop
  endfacet
  facet normal 0 0 -0
    outer loop
      vertex 106 2 2
      vertex 2 2 2
      vertex 114 2 2
    endloop
  endfacet
  facet normal 0 0 -0
    outer loop
      vertex 98 2 2
      vertex 2 2 2
      vertex 106 2 2
    endloop
  endfacet
  facet normal 0 0 -0
    outer loop
      vertex 90 2 2
      vertex 2 2 2
      vertex 98 2 2
    endloop
  endfacet
  facet normal 0 0 -0
    outer loop
      vertex 82 2 2
      vertex 2 2 2
      vertex 90 2 2
    endloop
  endfacet
  facet normal 0 0 -0
    outer loop
      vertex 74 2 2
      vertex 2 2 2
      vertex 82 2 2
    endloop
  endfacet
  facet normal 0 0 -0
    outer loop
      vertex 66 2 2
      vertex 2 2 2
      vertex 74 2 2
    endloop
  endfacet
  facet normal 0 0 -0
    outer loop
      vertex 58 2 2
      vertex 2 2 2
      vertex 66 2 2
    endloop
  endfacet
  facet normal 0 0 -0
    outer loop
      vertex 50 2 2
      vertex 2 2 2
      vertex 58 2 2
    endloop
  endfacet
  facet normal 0 0 -0
    outer loop
      vertex 42 2 2
      vertex 2 2 2
      vertex 50 2 2
    endloop
  endfacet
  facet normal 0 0 -0
    outer loop
      vertex 34 2 2
      vertex 2 2 2
      vertex 42 2 2
    endloop
  endfacet
  facet normal 0 0 -0
    outer loop
      vertex 26 2 2
      vertex 2 2 2
      vertex 34 2 2
    endloop
  endfacet
  facet normal 0 0 -0
    outer loop
      vertex 18 2 2
      vertex 2 2 2
      vertex 26 2 2
    endloop
  endfacet
  facet normal 0 0 -0
    outer loop
      vertex 10 2 2
      vertex 2 2 2
      vertex 18 2 2
    endloop
  endfacet
endsolid OpenSCAD_Model
