solid OpenSCAD_Model
  facet normal 0.793654 0.125704 0.595241
    outer loop
      vertex 9.51056 3.09017 20
      vertex 2.5 0 30
      vertex 10 0 20
    endloop
  endfacet
  facet normal -0.125704 0.793654 0.595241
    outer loop
      vertex 0 10 20
      vertex -3.09017 9.51056 20
      vertex 0 2.5 30
    endloop
  endfacet
  facet normal -0.568194 -0.568194 0.595241
    outer loop
      vertex -2.02254 -1.46946 30
      vertex -5.87785 -8.09017 20
      vertex -1.46946 -2.02254 30
    endloop
  endfacet
  facet normal -0.568194 -0.568194 0.595241
    outer loop
      vertex -5.87785 -8.09017 20
      vertex -2.02254 -1.46946 30
      vertex -8.09017 -5.87785 20
    endloop
  endfacet
  facet normal 0.715966 0.364802 0.595241
    outer loop
      vertex 8.09017 5.87785 20
      vertex 2.37764 0.772542 30
      vertex 9.51056 3.09017 20
    endloop
  endfacet
  facet normal -0.793654 -0.125704 0.595241
    outer loop
      vertex -2.5 0 30
      vertex -10 0 20
      vertex -9.51056 -3.09017 20
    endloop
  endfacet
  facet normal -0.125704 -0.793654 0.595241
    outer loop
      vertex 0 -2.5 30
      vertex -3.09017 -9.51056 20
      vertex 0 -10 20
    endloop
  endfacet
  facet normal -0.715965 -0.364805 0.595241
    outer loop
      vertex -2.37764 -0.772542 30
      vertex -8.09017 -5.87785 20
      vertex -2.02254 -1.46946 30
    endloop
  endfacet
  facet normal -0.364805 0.715965 0.595241
    outer loop
      vertex -0.772542 2.37764 30
      vertex -5.87785 8.09017 20
      vertex -1.46946 2.02254 30
    endloop
  endfacet
  facet normal 0.793654 -0.125704 0.595241
    outer loop
      vertex 10 0 20
      vertex 2.5 0 30
      vertex 9.51056 -3.09017 20
    endloop
  endfacet
  facet normal 0.364802 0.715966 0.595241
    outer loop
      vertex 3.09017 9.51056 20
      vertex 0.772542 2.37764 30
      vertex 5.87785 8.09017 20
    endloop
  endfacet
  facet normal 0.125704 0.793654 0.595241
    outer loop
      vertex 3.09017 9.51056 20
      vertex 0 2.5 30
      vertex 0.772542 2.37764 30
    endloop
  endfacet
  facet normal -0.125704 0.793654 0.595241
    outer loop
      vertex 0 2.5 30
      vertex -3.09017 9.51056 20
      vertex -0.772542 2.37764 30
    endloop
  endfacet
  facet normal -0.715965 0.364805 0.595241
    outer loop
      vertex -2.02254 1.46946 30
      vertex -8.09017 5.87785 20
      vertex -2.37764 0.772542 30
    endloop
  endfacet
  facet normal 0.568194 0.568194 0.595241
    outer loop
      vertex 5.87785 8.09017 20
      vertex 2.02254 1.46946 30
      vertex 8.09017 5.87785 20
    endloop
  endfacet
  facet normal 0.568194 0.568194 0.595241
    outer loop
      vertex 2.02254 1.46946 30
      vertex 5.87785 8.09017 20
      vertex 1.46946 2.02254 30
    endloop
  endfacet
  facet normal 0.125704 0.793654 0.595241
    outer loop
      vertex 0 10 20
      vertex 0 2.5 30
      vertex 3.09017 9.51056 20
    endloop
  endfacet
  facet normal -0.364802 0.715966 0.595241
    outer loop
      vertex -3.09017 9.51056 20
      vertex -5.87785 8.09017 20
      vertex -0.772542 2.37764 30
    endloop
  endfacet
  facet normal 0.364802 -0.715966 0.595241
    outer loop
      vertex 5.87785 -8.09017 20
      vertex 0.772542 -2.37764 30
      vertex 3.09017 -9.51056 20
    endloop
  endfacet
  facet normal -0.793654 0.125704 0.595241
    outer loop
      vertex -2.37764 0.772542 30
      vertex -9.51056 3.09017 20
      vertex -2.5 0 30
    endloop
  endfacet
  facet normal 0.364805 -0.715965 0.595241
    outer loop
      vertex 1.46946 -2.02254 30
      vertex 0.772542 -2.37764 30
      vertex 5.87785 -8.09017 20
    endloop
  endfacet
  facet normal -0.125704 -0.793654 0.595241
    outer loop
      vertex -0.772542 -2.37764 30
      vertex -3.09017 -9.51056 20
      vertex 0 -2.5 30
    endloop
  endfacet
  facet normal -0.568194 0.568194 0.595241
    outer loop
      vertex -5.87785 8.09017 20
      vertex -2.02254 1.46946 30
      vertex -1.46946 2.02254 30
    endloop
  endfacet
  facet normal -0.568194 0.568194 0.595241
    outer loop
      vertex -2.02254 1.46946 30
      vertex -5.87785 8.09017 20
      vertex -8.09017 5.87785 20
    endloop
  endfacet
  facet normal 0.715965 0.364805 0.595241
    outer loop
      vertex 8.09017 5.87785 20
      vertex 2.02254 1.46946 30
      vertex 2.37764 0.772542 30
    endloop
  endfacet
  facet normal -0.793654 0.125704 0.595241
    outer loop
      vertex -9.51056 3.09017 20
      vertex -10 0 20
      vertex -2.5 0 30
    endloop
  endfacet
  facet normal -0.793654 -0.125704 0.595241
    outer loop
      vertex -2.5 0 30
      vertex -9.51056 -3.09017 20
      vertex -2.37764 -0.772542 30
    endloop
  endfacet
  facet normal 0.125704 -0.793654 0.595241
    outer loop
      vertex 0.772542 -2.37764 30
      vertex 0 -2.5 30
      vertex 3.09017 -9.51056 20
    endloop
  endfacet
  facet normal -0.715966 0.364802 0.595241
    outer loop
      vertex -8.09017 5.87785 20
      vertex -9.51056 3.09017 20
      vertex -2.37764 0.772542 30
    endloop
  endfacet
  facet normal 0.364805 0.715965 0.595241
    outer loop
      vertex 5.87785 8.09017 20
      vertex 0.772542 2.37764 30
      vertex 1.46946 2.02254 30
    endloop
  endfacet
  facet normal -0.715966 -0.364802 0.595241
    outer loop
      vertex -2.37764 -0.772542 30
      vertex -9.51056 -3.09017 20
      vertex -8.09017 -5.87785 20
    endloop
  endfacet
  facet normal 0.793654 0.125704 0.595241
    outer loop
      vertex 9.51056 3.09017 20
      vertex 2.37764 0.772542 30
      vertex 2.5 0 30
    endloop
  endfacet
  facet normal 0 0 1
    outer loop
      vertex 2 0 30
      vertex 2.5 0 30
      vertex 2.37764 0.772542 30
    endloop
  endfacet
  facet normal 0 0 1
    outer loop
      vertex 1.90211 0.618033 30
      vertex 2.37764 0.772542 30
      vertex 2.02254 1.46946 30
    endloop
  endfacet
  facet normal 0 0 1
    outer loop
      vertex 2.5 0 30
      vertex 2 0 30
      vertex 2.37764 -0.772542 30
    endloop
  endfacet
  facet normal -0 0 1
    outer loop
      vertex 1.90211 -0.618033 30
      vertex 2.37764 -0.772542 30
      vertex 2 0 30
    endloop
  endfacet
  facet normal 0 0 1
    outer loop
      vertex 2.37764 0.772542 30
      vertex 1.90211 0.618033 30
      vertex 2 0 30
    endloop
  endfacet
  facet normal 0 0 1
    outer loop
      vertex 2.02254 1.46946 30
      vertex 1.61803 1.17557 30
      vertex 1.90211 0.618033 30
    endloop
  endfacet
  facet normal 0 0 1
    outer loop
      vertex 1.46946 2.02254 30
      vertex 1.61803 1.17557 30
      vertex 2.02254 1.46946 30
    endloop
  endfacet
  facet normal 0 0 1
    outer loop
      vertex 1.46946 2.02254 30
      vertex 1.17557 1.61803 30
      vertex 1.61803 1.17557 30
    endloop
  endfacet
  facet normal 0 0 1
    outer loop
      vertex 0.772542 2.37764 30
      vertex 1.17557 1.61803 30
      vertex 1.46946 2.02254 30
    endloop
  endfacet
  facet normal 0 0 1
    outer loop
      vertex 0.772542 2.37764 30
      vertex 0.618033 1.90211 30
      vertex 1.17557 1.61803 30
    endloop
  endfacet
  facet normal 0 0 1
    outer loop
      vertex 0 2.5 30
      vertex 0.618033 1.90211 30
      vertex 0.772542 2.37764 30
    endloop
  endfacet
  facet normal 0 0 1
    outer loop
      vertex 0 2.5 30
      vertex 0 2 30
      vertex 0.618033 1.90211 30
    endloop
  endfacet
  facet normal 0 0 1
    outer loop
      vertex 0 2.5 30
      vertex -0.618033 1.90211 30
      vertex 0 2 30
    endloop
  endfacet
  facet normal -0 0 1
    outer loop
      vertex -0.772542 2.37764 30
      vertex -0.618033 1.90211 30
      vertex 0 2.5 30
    endloop
  endfacet
  facet normal 0 0 1
    outer loop
      vertex -0.772542 2.37764 30
      vertex -1.17557 1.61803 30
      vertex -0.618033 1.90211 30
    endloop
  endfacet
  facet normal -0 0 1
    outer loop
      vertex -1.46946 2.02254 30
      vertex -1.17557 1.61803 30
      vertex -0.772542 2.37764 30
    endloop
  endfacet
  facet normal 0 0 1
    outer loop
      vertex -1.46946 2.02254 30
      vertex -1.61803 1.17557 30
      vertex -1.17557 1.61803 30
    endloop
  endfacet
  facet normal -0 0 1
    outer loop
      vertex -2.02254 1.46946 30
      vertex -1.61803 1.17557 30
      vertex -1.46946 2.02254 30
    endloop
  endfacet
  facet normal -0 0 1
    outer loop
      vertex -2.37764 0.772542 30
      vertex -1.90211 0.618033 30
      vertex -2.02254 1.46946 30
    endloop
  endfacet
  facet normal 0 0 1
    outer loop
      vertex -1.61803 1.17557 30
      vertex -2.02254 1.46946 30
      vertex -1.90211 0.618033 30
    endloop
  endfacet
  facet normal 0 0 1
    outer loop
      vertex 2.37764 -0.772542 30
      vertex 1.90211 -0.618033 30
      vertex 2.02254 -1.46946 30
    endloop
  endfacet
  facet normal -0 0 1
    outer loop
      vertex 1.61803 -1.17557 30
      vertex 2.02254 -1.46946 30
      vertex 1.90211 -0.618033 30
    endloop
  endfacet
  facet normal 0 0 1
    outer loop
      vertex 1.61803 -1.17557 30
      vertex 1.46946 -2.02254 30
      vertex 2.02254 -1.46946 30
    endloop
  endfacet
  facet normal -0 0 1
    outer loop
      vertex 1.17557 -1.61803 30
      vertex 1.46946 -2.02254 30
      vertex 1.61803 -1.17557 30
    endloop
  endfacet
  facet normal 0 0 1
    outer loop
      vertex 1.17557 -1.61803 30
      vertex 0.772542 -2.37764 30
      vertex 1.46946 -2.02254 30
    endloop
  endfacet
  facet normal -0 0 1
    outer loop
      vertex 0.618033 -1.90211 30
      vertex 0.772542 -2.37764 30
      vertex 1.17557 -1.61803 30
    endloop
  endfacet
  facet normal -0 0 1
    outer loop
      vertex 0 -2 30
      vertex 0.772542 -2.37764 30
      vertex 0.618033 -1.90211 30
    endloop
  endfacet
  facet normal 0 0 1
    outer loop
      vertex 0 -2 30
      vertex 0 -2.5 30
      vertex 0.772542 -2.37764 30
    endloop
  endfacet
  facet normal 0 0 1
    outer loop
      vertex -0.618033 -1.90211 30
      vertex 0 -2.5 30
      vertex 0 -2 30
    endloop
  endfacet
  facet normal 0 0 1
    outer loop
      vertex -0.618033 -1.90211 30
      vertex -0.772542 -2.37764 30
      vertex 0 -2.5 30
    endloop
  endfacet
  facet normal 0 0 1
    outer loop
      vertex -1.17557 -1.61803 30
      vertex -0.772542 -2.37764 30
      vertex -0.618033 -1.90211 30
    endloop
  endfacet
  facet normal 0 0 1
    outer loop
      vertex -1.17557 -1.61803 30
      vertex -1.46946 -2.02254 30
      vertex -0.772542 -2.37764 30
    endloop
  endfacet
  facet normal 0 0 1
    outer loop
      vertex -1.61803 -1.17557 30
      vertex -1.46946 -2.02254 30
      vertex -1.17557 -1.61803 30
    endloop
  endfacet
  facet normal 0 0 1
    outer loop
      vertex -2.02254 -1.46946 30
      vertex -1.61803 -1.17557 30
      vertex -1.90211 -0.618033 30
    endloop
  endfacet
  facet normal 0 0 1
    outer loop
      vertex -1.61803 -1.17557 30
      vertex -2.02254 -1.46946 30
      vertex -1.46946 -2.02254 30
    endloop
  endfacet
  facet normal 0 0 1
    outer loop
      vertex -2.37764 -0.772542 30
      vertex -1.90211 -0.618033 30
      vertex -2 0 30
    endloop
  endfacet
  facet normal 0 0 1
    outer loop
      vertex -1.90211 0.618033 30
      vertex -2.37764 0.772542 30
      vertex -2 0 30
    endloop
  endfacet
  facet normal 0 0 1
    outer loop
      vertex -2.5 0 30
      vertex -2 0 30
      vertex -2.37764 0.772542 30
    endloop
  endfacet
  facet normal 0 0 1
    outer loop
      vertex -1.90211 -0.618033 30
      vertex -2.37764 -0.772542 30
      vertex -2.02254 -1.46946 30
    endloop
  endfacet
  facet normal 0 0 1
    outer loop
      vertex -2 0 30
      vertex -2.5 0 30
      vertex -2.37764 -0.772542 30
    endloop
  endfacet
  facet normal 0.125704 -0.793654 0.595241
    outer loop
      vertex 0 -2.5 30
      vertex 0 -10 20
      vertex 3.09017 -9.51056 20
    endloop
  endfacet
  facet normal 0.715966 -0.364802 0.595241
    outer loop
      vertex 9.51056 -3.09017 20
      vertex 2.37764 -0.772542 30
      vertex 8.09017 -5.87785 20
    endloop
  endfacet
  facet normal 0.793654 -0.125704 0.595241
    outer loop
      vertex 2.5 0 30
      vertex 2.37764 -0.772542 30
      vertex 9.51056 -3.09017 20
    endloop
  endfacet
  facet normal -0.364802 -0.715966 0.595241
    outer loop
      vertex -0.772542 -2.37764 30
      vertex -5.87785 -8.09017 20
      vertex -3.09017 -9.51056 20
    endloop
  endfacet
  facet normal 0.568194 -0.568194 0.595241
    outer loop
      vertex 2.02254 -1.46946 30
      vertex 5.87785 -8.09017 20
      vertex 8.09017 -5.87785 20
    endloop
  endfacet
  facet normal 0.568194 -0.568194 0.595241
    outer loop
      vertex 5.87785 -8.09017 20
      vertex 2.02254 -1.46946 30
      vertex 1.46946 -2.02254 30
    endloop
  endfacet
  facet normal -0.364805 -0.715965 0.595241
    outer loop
      vertex -1.46946 -2.02254 30
      vertex -5.87785 -8.09017 20
      vertex -0.772542 -2.37764 30
    endloop
  endfacet
  facet normal 0.715965 -0.364805 0.595241
    outer loop
      vertex 2.37764 -0.772542 30
      vertex 2.02254 -1.46946 30
      vertex 8.09017 -5.87785 20
    endloop
  endfacet
  facet normal 0.987688 0.156436 0
    outer loop
      vertex 10 0 20
      vertex 9.51056 3.09017 0
      vertex 9.51056 3.09017 20
    endloop
  endfacet
  facet normal 0.987688 0.156436 0
    outer loop
      vertex 9.51056 3.09017 0
      vertex 10 0 20
      vertex 10 0 0
    endloop
  endfacet
  facet normal -0.45399 -0.891007 0
    outer loop
      vertex -5.87785 -8.09017 0
      vertex -3.09017 -9.51056 20
      vertex -5.87785 -8.09017 20
    endloop
  endfacet
  facet normal -0.45399 -0.891007 -0
    outer loop
      vertex -3.09017 -9.51056 20
      vertex -5.87785 -8.09017 0
      vertex -3.09017 -9.51056 0
    endloop
  endfacet
  facet normal -0.707107 0.707107 0
    outer loop
      vertex -8.09017 5.87785 0
      vertex -5.87785 8.09017 20
      vertex -5.87785 8.09017 0
    endloop
  endfacet
  facet normal -0.707107 0.707107 0
    outer loop
      vertex -5.87785 8.09017 20
      vertex -8.09017 5.87785 0
      vertex -8.09017 5.87785 20
    endloop
  endfacet
  facet normal 0 0 -1
    outer loop
      vertex 6 0 0
      vertex 10 0 0
      vertex 9.51056 -3.09017 0
    endloop
  endfacet
  facet normal 0 0 -1
    outer loop
      vertex 5.70634 -1.8541 0
      vertex 9.51056 -3.09017 0
      vertex 8.09017 -5.87785 0
    endloop
  endfacet
  facet normal 0 0 -1
    outer loop
      vertex 10 0 0
      vertex 6 0 0
      vertex 9.51056 3.09017 0
    endloop
  endfacet
  facet normal 0 0 -1
    outer loop
      vertex 5.70634 1.8541 0
      vertex 9.51056 3.09017 0
      vertex 6 0 0
    endloop
  endfacet
  facet normal 0 0 -1
    outer loop
      vertex 4.8541 -3.52671 0
      vertex 8.09017 -5.87785 0
      vertex 5.87785 -8.09017 0
    endloop
  endfacet
  facet normal 0 0 -1
    outer loop
      vertex 9.51056 -3.09017 0
      vertex 5.70634 -1.8541 0
      vertex 6 0 0
    endloop
  endfacet
  facet normal 0 0 -1
    outer loop
      vertex 8.09017 -5.87785 0
      vertex 4.8541 -3.52671 0
      vertex 5.70634 -1.8541 0
    endloop
  endfacet
  facet normal 0 0 -1
    outer loop
      vertex 5.87785 -8.09017 0
      vertex 3.52671 -4.8541 0
      vertex 4.8541 -3.52671 0
    endloop
  endfacet
  facet normal 0 0 -1
    outer loop
      vertex 3.09017 -9.51056 0
      vertex 3.52671 -4.8541 0
      vertex 5.87785 -8.09017 0
    endloop
  endfacet
  facet normal 0 0 -1
    outer loop
      vertex 3.09017 -9.51056 0
      vertex 1.8541 -5.70634 0
      vertex 3.52671 -4.8541 0
    endloop
  endfacet
  facet normal 0 0 -1
    outer loop
      vertex 0 -10 0
      vertex 1.8541 -5.70634 0
      vertex 3.09017 -9.51056 0
    endloop
  endfacet
  facet normal 0 0 -1
    outer loop
      vertex 0 -10 0
      vertex 0 -6 0
      vertex 1.8541 -5.70634 0
    endloop
  endfacet
  facet normal 0 0 -1
    outer loop
      vertex 0 -10 0
      vertex -1.8541 -5.70634 0
      vertex 0 -6 0
    endloop
  endfacet
  facet normal 0 0 -1
    outer loop
      vertex -3.09017 -9.51056 0
      vertex -1.8541 -5.70634 0
      vertex 0 -10 0
    endloop
  endfacet
  facet normal 0 0 -1
    outer loop
      vertex -3.09017 -9.51056 0
      vertex -3.52671 -4.8541 0
      vertex -1.8541 -5.70634 0
    endloop
  endfacet
  facet normal 0 0 -1
    outer loop
      vertex -5.87785 -8.09017 0
      vertex -3.52671 -4.8541 0
      vertex -3.09017 -9.51056 0
    endloop
  endfacet
  facet normal -0 0 -1
    outer loop
      vertex -3.52671 -4.8541 0
      vertex -5.87785 -8.09017 0
      vertex -4.8541 -3.52671 0
    endloop
  endfacet
  facet normal 0 0 -1
    outer loop
      vertex -8.09017 -5.87785 0
      vertex -4.8541 -3.52671 0
      vertex -5.87785 -8.09017 0
    endloop
  endfacet
  facet normal -0 0 -1
    outer loop
      vertex -4.8541 -3.52671 0
      vertex -8.09017 -5.87785 0
      vertex -5.70634 -1.8541 0
    endloop
  endfacet
  facet normal 0 0 -1
    outer loop
      vertex -9.51056 -3.09017 0
      vertex -5.70634 -1.8541 0
      vertex -8.09017 -5.87785 0
    endloop
  endfacet
  facet normal -0 0 -1
    outer loop
      vertex 9.51056 3.09017 0
      vertex 5.70634 1.8541 0
      vertex 8.09017 5.87785 0
    endloop
  endfacet
  facet normal 0 0 -1
    outer loop
      vertex 4.8541 3.52671 0
      vertex 8.09017 5.87785 0
      vertex 5.70634 1.8541 0
    endloop
  endfacet
  facet normal -0 0 -1
    outer loop
      vertex 8.09017 5.87785 0
      vertex 4.8541 3.52671 0
      vertex 5.87785 8.09017 0
    endloop
  endfacet
  facet normal 0 0 -1
    outer loop
      vertex 3.52671 4.8541 0
      vertex 5.87785 8.09017 0
      vertex 4.8541 3.52671 0
    endloop
  endfacet
  facet normal 0 0 -1
    outer loop
      vertex 3.52671 4.8541 0
      vertex 3.09017 9.51056 0
      vertex 5.87785 8.09017 0
    endloop
  endfacet
  facet normal 0 0 -1
    outer loop
      vertex 1.8541 5.70634 0
      vertex 3.09017 9.51056 0
      vertex 3.52671 4.8541 0
    endloop
  endfacet
  facet normal 0 0 -1
    outer loop
      vertex 0 6 0
      vertex 3.09017 9.51056 0
      vertex 1.8541 5.70634 0
    endloop
  endfacet
  facet normal 0 0 -1
    outer loop
      vertex 0 6 0
      vertex 0 10 0
      vertex 3.09017 9.51056 0
    endloop
  endfacet
  facet normal 0 0 -1
    outer loop
      vertex -1.8541 5.70634 0
      vertex 0 10 0
      vertex 0 6 0
    endloop
  endfacet
  facet normal 0 0 -1
    outer loop
      vertex -1.8541 5.70634 0
      vertex -3.09017 9.51056 0
      vertex 0 10 0
    endloop
  endfacet
  facet normal 0 0 -1
    outer loop
      vertex -3.52671 4.8541 0
      vertex -3.09017 9.51056 0
      vertex -1.8541 5.70634 0
    endloop
  endfacet
  facet normal 0 0 -1
    outer loop
      vertex -5.87785 8.09017 0
      vertex -3.52671 4.8541 0
      vertex -4.8541 3.52671 0
    endloop
  endfacet
  facet normal 0 0 -1
    outer loop
      vertex -8.09017 5.87785 0
      vertex -4.8541 3.52671 0
      vertex -5.70634 1.8541 0
    endloop
  endfacet
  facet normal 0 0 -1
    outer loop
      vertex -3.52671 4.8541 0
      vertex -5.87785 8.09017 0
      vertex -3.09017 9.51056 0
    endloop
  endfacet
  facet normal 0 0 -1
    outer loop
      vertex -9.51056 3.09017 0
      vertex -5.70634 1.8541 0
      vertex -6 0 0
    endloop
  endfacet
  facet normal -0 0 -1
    outer loop
      vertex -5.70634 -1.8541 0
      vertex -9.51056 -3.09017 0
      vertex -6 0 0
    endloop
  endfacet
  facet normal 0 0 -1
    outer loop
      vertex -4.8541 3.52671 0
      vertex -8.09017 5.87785 0
      vertex -5.87785 8.09017 0
    endloop
  endfacet
  facet normal 0 0 -1
    outer loop
      vertex -10 0 0
      vertex -6 0 0
      vertex -9.51056 -3.09017 0
    endloop
  endfacet
  facet normal 0 0 -1
    outer loop
      vertex -5.70634 1.8541 0
      vertex -9.51056 3.09017 0
      vertex -8.09017 5.87785 0
    endloop
  endfacet
  facet normal 0 0 -1
    outer loop
      vertex -6 0 0
      vertex -10 0 0
      vertex -9.51056 3.09017 0
    endloop
  endfacet
  facet normal 0.891007 0.45399 0
    outer loop
      vertex 9.51056 3.09017 20
      vertex 8.09017 5.87785 0
      vertex 8.09017 5.87785 20
    endloop
  endfacet
  facet normal 0.891007 0.45399 0
    outer loop
      vertex 8.09017 5.87785 0
      vertex 9.51056 3.09017 20
      vertex 9.51056 3.09017 0
    endloop
  endfacet
  facet normal 0.707107 -0.707107 0
    outer loop
      vertex 5.87785 -8.09017 20
      vertex 8.09017 -5.87785 0
      vertex 8.09017 -5.87785 20
    endloop
  endfacet
  facet normal 0.707107 -0.707107 0
    outer loop
      vertex 8.09017 -5.87785 0
      vertex 5.87785 -8.09017 20
      vertex 5.87785 -8.09017 0
    endloop
  endfacet
  facet normal -0.987688 0.156436 0
    outer loop
      vertex -10 0 0
      vertex -9.51056 3.09017 20
      vertex -9.51056 3.09017 0
    endloop
  endfacet
  facet normal -0.987688 0.156436 0
    outer loop
      vertex -9.51056 3.09017 20
      vertex -10 0 0
      vertex -10 0 20
    endloop
  endfacet
  facet normal 0.156436 -0.987688 0
    outer loop
      vertex 0 -10 0
      vertex 3.09017 -9.51056 20
      vertex 0 -10 20
    endloop
  endfacet
  facet normal 0.156436 -0.987688 0
    outer loop
      vertex 3.09017 -9.51056 20
      vertex 0 -10 0
      vertex 3.09017 -9.51056 0
    endloop
  endfacet
  facet normal 0.707107 0.707107 0
    outer loop
      vertex 8.09017 5.87785 20
      vertex 5.87785 8.09017 0
      vertex 5.87785 8.09017 20
    endloop
  endfacet
  facet normal 0.707107 0.707107 0
    outer loop
      vertex 5.87785 8.09017 0
      vertex 8.09017 5.87785 20
      vertex 8.09017 5.87785 0
    endloop
  endfacet
  facet normal -0.987688 -0.156436 0
    outer loop
      vertex -9.51056 -3.09017 0
      vertex -10 0 20
      vertex -10 0 0
    endloop
  endfacet
  facet normal -0.987688 -0.156436 0
    outer loop
      vertex -10 0 20
      vertex -9.51056 -3.09017 0
      vertex -9.51056 -3.09017 20
    endloop
  endfacet
  facet normal -0.707107 -0.707107 0
    outer loop
      vertex -5.87785 -8.09017 0
      vertex -8.09017 -5.87785 20
      vertex -8.09017 -5.87785 0
    endloop
  endfacet
  facet normal -0.707107 -0.707107 0
    outer loop
      vertex -8.09017 -5.87785 20
      vertex -5.87785 -8.09017 0
      vertex -5.87785 -8.09017 20
    endloop
  endfacet
  facet normal 0.45399 -0.891007 0
    outer loop
      vertex 3.09017 -9.51056 0
      vertex 5.87785 -8.09017 20
      vertex 3.09017 -9.51056 20
    endloop
  endfacet
  facet normal 0.45399 -0.891007 0
    outer loop
      vertex 5.87785 -8.09017 20
      vertex 3.09017 -9.51056 0
      vertex 5.87785 -8.09017 0
    endloop
  endfacet
  facet normal 0.45399 0.891007 -0
    outer loop
      vertex 5.87785 8.09017 0
      vertex 3.09017 9.51056 20
      vertex 5.87785 8.09017 20
    endloop
  endfacet
  facet normal 0.45399 0.891007 0
    outer loop
      vertex 3.09017 9.51056 20
      vertex 5.87785 8.09017 0
      vertex 3.09017 9.51056 0
    endloop
  endfacet
  facet normal -0.156436 0.987688 0
    outer loop
      vertex 0 10 0
      vertex -3.09017 9.51056 20
      vertex 0 10 20
    endloop
  endfacet
  facet normal -0.156436 0.987688 0
    outer loop
      vertex -3.09017 9.51056 20
      vertex 0 10 0
      vertex -3.09017 9.51056 0
    endloop
  endfacet
  facet normal 0.156436 0.987688 -0
    outer loop
      vertex 3.09017 9.51056 0
      vertex 0 10 20
      vertex 3.09017 9.51056 20
    endloop
  endfacet
  facet normal 0.156436 0.987688 0
    outer loop
      vertex 0 10 20
      vertex 3.09017 9.51056 0
      vertex 0 10 0
    endloop
  endfacet
  facet normal -0.156436 -0.987688 0
    outer loop
      vertex -3.09017 -9.51056 0
      vertex 0 -10 20
      vertex -3.09017 -9.51056 20
    endloop
  endfacet
  facet normal -0.156436 -0.987688 -0
    outer loop
      vertex 0 -10 20
      vertex -3.09017 -9.51056 0
      vertex 0 -10 0
    endloop
  endfacet
  facet normal -0.45399 0.891007 0
    outer loop
      vertex -3.09017 9.51056 0
      vertex -5.87785 8.09017 20
      vertex -3.09017 9.51056 20
    endloop
  endfacet
  facet normal -0.45399 0.891007 0
    outer loop
      vertex -5.87785 8.09017 20
      vertex -3.09017 9.51056 0
      vertex -5.87785 8.09017 0
    endloop
  endfacet
  facet normal -0.891007 -0.45399 0
    outer loop
      vertex -8.09017 -5.87785 0
      vertex -9.51056 -3.09017 20
      vertex -9.51056 -3.09017 0
    endloop
  endfacet
  facet normal -0.891007 -0.45399 0
    outer loop
      vertex -9.51056 -3.09017 20
      vertex -8.09017 -5.87785 0
      vertex -8.09017 -5.87785 20
    endloop
  endfacet
  facet normal -0.891007 0.45399 0
    outer loop
      vertex -9.51056 3.09017 0
      vertex -8.09017 5.87785 20
      vertex -8.09017 5.87785 0
    endloop
  endfacet
  facet normal -0.891007 0.45399 0
    outer loop
      vertex -8.09017 5.87785 20
      vertex -9.51056 3.09017 0
      vertex -9.51056 3.09017 20
    endloop
  endfacet
  facet normal 0.891007 -0.45399 0
    outer loop
      vertex 8.09017 -5.87785 20
      vertex 9.51056 -3.09017 0
      vertex 9.51056 -3.09017 20
    endloop
  endfacet
  facet normal 0.891007 -0.45399 0
    outer loop
      vertex 9.51056 -3.09017 0
      vertex 8.09017 -5.87785 20
      vertex 8.09017 -5.87785 0
    endloop
  endfacet
  facet normal 0.987688 -0.156436 0
    outer loop
      vertex 9.51056 -3.09017 20
      vertex 10 0 0
      vertex 10 0 20
    endloop
  endfacet
  facet normal 0.987688 -0.156436 0
    outer loop
      vertex 10 0 0
      vertex 9.51056 -3.09017 20
      vertex 9.51056 -3.09017 0
    endloop
  endfacet
  facet normal -0.891005 -0.453994 0
    outer loop
      vertex 4.8541 3.52671 0
      vertex 5.58579 2.0907 8
      vertex 4.8541 3.52671 8.73169
    endloop
  endfacet
  facet normal -0.891006 -0.453992 4.56028e-07
    outer loop
      vertex 5.70634 1.8541 0
      vertex 5.58579 2.0907 8
      vertex 4.8541 3.52671 0
    endloop
  endfacet
  facet normal -0.891012 -0.453979 0
    outer loop
      vertex 5.58579 2.0907 8
      vertex 5.70634 1.8541 0
      vertex 5.70634 1.8541 8
    endloop
  endfacet
  facet normal -0.891006 -0.453992 -0
    outer loop
      vertex 5.70634 1.8541 20
      vertex 4.8541 3.52671 10.1459
      vertex 5.70634 1.8541 9.29366
    endloop
  endfacet
  facet normal -0.891006 -0.453992 0
    outer loop
      vertex 4.8541 3.52671 10.1459
      vertex 5.70634 1.8541 20
      vertex 4.8541 3.52671 20
    endloop
  endfacet
  facet normal -0.987688 -0.156434 0
    outer loop
      vertex 6 0 0
      vertex 5.70634 1.8541 8
      vertex 5.70634 1.8541 0
    endloop
  endfacet
  facet normal -0.987688 -0.156434 0
    outer loop
      vertex 5.70634 1.8541 8
      vertex 6 0 0
      vertex 6 0 8
    endloop
  endfacet
  facet normal -0.987688 -0.156436 -0
    outer loop
      vertex 5.92081 0.5 20
      vertex 5.70634 1.8541 9.29366
      vertex 5.92081 0.5 9.07919
    endloop
  endfacet
  facet normal -0.987688 -0.156436 0
    outer loop
      vertex 5.70634 1.8541 9.29366
      vertex 5.92081 0.5 20
      vertex 5.70634 1.8541 20
    endloop
  endfacet
  facet normal -0.707107 -0.707107 -0
    outer loop
      vertex 4.8541 3.52671 20
      vertex 3.52671 4.8541 11.4733
      vertex 4.8541 3.52671 10.1459
    endloop
  endfacet
  facet normal -0.707107 -0.707107 0
    outer loop
      vertex 3.52671 4.8541 11.4733
      vertex 4.8541 3.52671 20
      vertex 3.52671 4.8541 20
    endloop
  endfacet
  facet normal -0.707107 -0.707107 -0
    outer loop
      vertex 4.8541 3.52671 8.73169
      vertex 3.52671 4.8541 0
      vertex 4.8541 3.52671 0
    endloop
  endfacet
  facet normal -0.707107 -0.707107 0
    outer loop
      vertex 3.52671 4.8541 0
      vertex 4.8541 3.52671 8.73169
      vertex 3.52671 4.8541 10.0591
    endloop
  endfacet
  facet normal -0.156434 0.987688 0
    outer loop
      vertex 1.8541 -5.70634 0
      vertex 0 -6 13.5858
      vertex 1.8541 -5.70634 15.4399
    endloop
  endfacet
  facet normal -0.156434 0.987688 0
    outer loop
      vertex 0 -6 13.5858
      vertex 1.8541 -5.70634 0
      vertex 0 -6 0
    endloop
  endfacet
  facet normal -0.156434 0.987688 0
    outer loop
      vertex 1.8541 -5.70634 16.8541
      vertex 0 -6 20
      vertex 1.8541 -5.70634 20
    endloop
  endfacet
  facet normal -0.156434 0.987688 0
    outer loop
      vertex 0 -6 20
      vertex 1.8541 -5.70634 16.8541
      vertex 0 -6 15
    endloop
  endfacet
  facet normal -0.453992 -0.891006 0
    outer loop
      vertex 1.8541 5.70634 13.1459
      vertex 3.52671 4.8541 20
      vertex 1.8541 5.70634 20
    endloop
  endfacet
  facet normal -0.453992 -0.891006 -0
    outer loop
      vertex 3.52671 4.8541 20
      vertex 1.8541 5.70634 13.1459
      vertex 3.52671 4.8541 11.4733
    endloop
  endfacet
  facet normal -0.453992 -0.891006 0
    outer loop
      vertex 1.8541 5.70634 0
      vertex 3.52671 4.8541 10.0591
      vertex 1.8541 5.70634 11.7317
    endloop
  endfacet
  facet normal -0.453992 -0.891006 -0
    outer loop
      vertex 3.52671 4.8541 10.0591
      vertex 1.8541 5.70634 0
      vertex 3.52671 4.8541 0
    endloop
  endfacet
  facet normal 0.453992 -0.891006 0
    outer loop
      vertex -3.52671 4.8541 18.5267
      vertex -1.8541 5.70634 20
      vertex -3.52671 4.8541 20
    endloop
  endfacet
  facet normal 0.453992 -0.891006 0
    outer loop
      vertex -1.8541 5.70634 20
      vertex -3.52671 4.8541 18.5267
      vertex -1.8541 5.70634 16.8541
    endloop
  endfacet
  facet normal 0.453992 -0.891006 0
    outer loop
      vertex -3.52671 4.8541 0
      vertex -1.8541 5.70634 15.4399
      vertex -3.52671 4.8541 17.1125
    endloop
  endfacet
  facet normal 0.453992 -0.891006 0
    outer loop
      vertex -1.8541 5.70634 15.4399
      vertex -3.52671 4.8541 0
      vertex -1.8541 5.70634 0
    endloop
  endfacet
  facet normal -0.453992 0.891006 0
    outer loop
      vertex 3.52671 -4.8541 0
      vertex 1.8541 -5.70634 15.4399
      vertex 3.52671 -4.8541 17.1125
    endloop
  endfacet
  facet normal -0.453992 0.891006 0
    outer loop
      vertex 1.8541 -5.70634 15.4399
      vertex 3.52671 -4.8541 0
      vertex 1.8541 -5.70634 0
    endloop
  endfacet
  facet normal -0.453992 0.891006 0
    outer loop
      vertex 3.52671 -4.8541 18.5267
      vertex 1.8541 -5.70634 20
      vertex 3.52671 -4.8541 20
    endloop
  endfacet
  facet normal -0.453992 0.891006 0
    outer loop
      vertex 1.8541 -5.70634 20
      vertex 3.52671 -4.8541 18.5267
      vertex 1.8541 -5.70634 16.8541
    endloop
  endfacet
  facet normal -0.707107 0.707107 0
    outer loop
      vertex 3.52671 -4.8541 17.1125
      vertex 4.8541 -3.52671 0
      vertex 3.52671 -4.8541 0
    endloop
  endfacet
  facet normal -0.707107 0.707107 0
    outer loop
      vertex 4.8541 -3.52671 0
      vertex 3.52671 -4.8541 17.1125
      vertex 4.8541 -3.52671 18.4399
    endloop
  endfacet
  facet normal -0.707107 0.707107 0
    outer loop
      vertex 3.52671 -4.8541 20
      vertex 4.8541 -3.52671 19.8541
      vertex 3.52671 -4.8541 18.5267
    endloop
  endfacet
  facet normal -0.707107 0.707107 0
    outer loop
      vertex 4.8541 -3.52671 19.8541
      vertex 3.52671 -4.8541 20
      vertex 4.8541 -3.52671 20
    endloop
  endfacet
  facet normal 0.156434 0.987688 -0
    outer loop
      vertex 0 -6 0
      vertex -1.8541 -5.70634 11.7317
      vertex 0 -6 13.5858
    endloop
  endfacet
  facet normal 0.156434 0.987688 0
    outer loop
      vertex -1.8541 -5.70634 11.7317
      vertex 0 -6 0
      vertex -1.8541 -5.70634 0
    endloop
  endfacet
  facet normal 0.156434 0.987688 -0
    outer loop
      vertex 0 -6 15
      vertex -1.8541 -5.70634 20
      vertex 0 -6 20
    endloop
  endfacet
  facet normal 0.156434 0.987688 0
    outer loop
      vertex -1.8541 -5.70634 20
      vertex 0 -6 15
      vertex -1.8541 -5.70634 13.1459
    endloop
  endfacet
  facet normal 0.891003 -0.453997 0
    outer loop
      vertex -4.8541 3.52671 19.8541
      vertex -4.8541 3.52671 20
      vertex -5 3.24037 20
    endloop
  endfacet
  facet normal 0.891006 -0.453992 0
    outer loop
      vertex -5.70634 1.8541 0
      vertex -4.8541 3.52671 18.4399
      vertex -5.70634 1.8541 19.2921
    endloop
  endfacet
  facet normal 0.891006 -0.453992 0
    outer loop
      vertex -4.8541 3.52671 18.4399
      vertex -5.70634 1.8541 0
      vertex -4.8541 3.52671 0
    endloop
  endfacet
  facet normal -0.987689 0.15643 0
    outer loop
      vertex 6 0 0
      vertex 5.92081 -0.5 8
      vertex 6 0 8
    endloop
  endfacet
  facet normal -0.987688 0.156434 2.54433e-07
    outer loop
      vertex 5.70634 -1.8541 0
      vertex 5.92081 -0.5 8
      vertex 6 0 0
    endloop
  endfacet
  facet normal -0.987688 0.156436 0
    outer loop
      vertex 5.70634 -1.8541 19.2921
      vertex 5.92081 -0.5 8
      vertex 5.70634 -1.8541 0
    endloop
  endfacet
  facet normal -0.987688 0.156436 0
    outer loop
      vertex 5.92081 -0.5 8
      vertex 5.70634 -1.8541 19.2921
      vertex 5.92081 -0.5 19.5066
    endloop
  endfacet
  facet normal 0.987688 -0.156436 0
    outer loop
      vertex -5.92081 0.5 8
      vertex -5.70634 1.8541 19.2921
      vertex -5.92081 0.5 19.5066
    endloop
  endfacet
  facet normal 0.987688 -0.156436 0
    outer loop
      vertex -5.70634 1.8541 19.2921
      vertex -5.92081 0.5 8
      vertex -5.70634 1.8541 0
    endloop
  endfacet
  facet normal 0.987689 -0.15643 0
    outer loop
      vertex -6 0 0
      vertex -5.92081 0.5 8
      vertex -6 0 8
    endloop
  endfacet
  facet normal 0.987688 -0.156434 2.54433e-07
    outer loop
      vertex -5.92081 0.5 8
      vertex -6 0 0
      vertex -5.70634 1.8541 0
    endloop
  endfacet
  facet normal -0.891006 0.453992 0
    outer loop
      vertex 4.8541 -3.52671 18.4399
      vertex 5.70634 -1.8541 0
      vertex 4.8541 -3.52671 0
    endloop
  endfacet
  facet normal -0.891006 0.453992 0
    outer loop
      vertex 5.70634 -1.8541 0
      vertex 4.8541 -3.52671 18.4399
      vertex 5.70634 -1.8541 19.2921
    endloop
  endfacet
  facet normal -0.891003 0.453997 0
    outer loop
      vertex 4.8541 -3.52671 20
      vertex 5 -3.24037 20
      vertex 4.8541 -3.52671 19.8541
    endloop
  endfacet
  facet normal -0.156434 -0.987688 0
    outer loop
      vertex 0 6 15
      vertex 1.8541 5.70634 20
      vertex 0 6 20
    endloop
  endfacet
  facet normal -0.156434 -0.987688 -0
    outer loop
      vertex 1.8541 5.70634 20
      vertex 0 6 15
      vertex 1.8541 5.70634 13.1459
    endloop
  endfacet
  facet normal -0.156434 -0.987688 0
    outer loop
      vertex 0 6 0
      vertex 1.8541 5.70634 11.7317
      vertex 0 6 13.5858
    endloop
  endfacet
  facet normal -0.156434 -0.987688 -0
    outer loop
      vertex 1.8541 5.70634 11.7317
      vertex 0 6 0
      vertex 1.8541 5.70634 0
    endloop
  endfacet
  facet normal 0.891012 0.453979 0
    outer loop
      vertex -5.58579 -2.0907 8
      vertex -5.70634 -1.8541 0
      vertex -5.70634 -1.8541 8
    endloop
  endfacet
  facet normal 0.891005 0.453994 -0
    outer loop
      vertex -4.8541 -3.52671 0
      vertex -5.58579 -2.0907 8
      vertex -4.8541 -3.52671 8.73169
    endloop
  endfacet
  facet normal 0.891006 0.453992 4.56028e-07
    outer loop
      vertex -5.58579 -2.0907 8
      vertex -4.8541 -3.52671 0
      vertex -5.70634 -1.8541 0
    endloop
  endfacet
  facet normal 0.891006 0.453992 -0
    outer loop
      vertex -4.8541 -3.52671 10.1459
      vertex -5.70634 -1.8541 20
      vertex -4.8541 -3.52671 20
    endloop
  endfacet
  facet normal 0.891006 0.453992 0
    outer loop
      vertex -5.70634 -1.8541 20
      vertex -4.8541 -3.52671 10.1459
      vertex -5.70634 -1.8541 9.29366
    endloop
  endfacet
  facet normal 0.156434 -0.987688 0
    outer loop
      vertex -1.8541 5.70634 16.8541
      vertex 0 6 20
      vertex -1.8541 5.70634 20
    endloop
  endfacet
  facet normal 0.156434 -0.987688 0
    outer loop
      vertex 0 6 20
      vertex -1.8541 5.70634 16.8541
      vertex 0 6 15
    endloop
  endfacet
  facet normal 0.156434 -0.987688 0
    outer loop
      vertex -1.8541 5.70634 0
      vertex 0 6 13.5858
      vertex -1.8541 5.70634 15.4399
    endloop
  endfacet
  facet normal 0.156434 -0.987688 0
    outer loop
      vertex 0 6 13.5858
      vertex -1.8541 5.70634 0
      vertex 0 6 0
    endloop
  endfacet
  facet normal 0.707107 0.707107 -0
    outer loop
      vertex -3.52671 -4.8541 0
      vertex -4.8541 -3.52671 8.73169
      vertex -3.52671 -4.8541 10.0591
    endloop
  endfacet
  facet normal 0.707107 0.707107 0
    outer loop
      vertex -4.8541 -3.52671 8.73169
      vertex -3.52671 -4.8541 0
      vertex -4.8541 -3.52671 0
    endloop
  endfacet
  facet normal 0.707107 0.707107 -0
    outer loop
      vertex -3.52671 -4.8541 11.4733
      vertex -4.8541 -3.52671 20
      vertex -3.52671 -4.8541 20
    endloop
  endfacet
  facet normal 0.707107 0.707107 0
    outer loop
      vertex -4.8541 -3.52671 20
      vertex -3.52671 -4.8541 11.4733
      vertex -4.8541 -3.52671 10.1459
    endloop
  endfacet
  facet normal 0 0 -1
    outer loop
      vertex 0.809016 -0.587785 20
      vertex 5 -3.24037 20
      vertex 4.8541 -3.52671 20
    endloop
  endfacet
  facet normal 0 0 -1
    outer loop
      vertex 5 0.5 20
      vertex 5.70634 1.8541 20
      vertex 5.92081 0.5 20
    endloop
  endfacet
  facet normal 0 0 -1
    outer loop
      vertex 5 0.5 20
      vertex 4.8541 3.52671 20
      vertex 5.70634 1.8541 20
    endloop
  endfacet
  facet normal 0 0 -1
    outer loop
      vertex 5 -3.24037 20
      vertex 0.951056 -0.309016 20
      vertex 5 0.5 20
    endloop
  endfacet
  facet normal 0 0 -1
    outer loop
      vertex 0.809016 -0.587785 20
      vertex 4.8541 -3.52671 20
      vertex 3.52671 -4.8541 20
    endloop
  endfacet
  facet normal 0 0 -1
    outer loop
      vertex 0.951056 0.309016 20
      vertex 5 0.5 20
      vertex 1 0 20
    endloop
  endfacet
  facet normal 0 0 -1
    outer loop
      vertex 0.587785 -0.809016 20
      vertex 3.52671 -4.8541 20
      vertex 1.8541 -5.70634 20
    endloop
  endfacet
  facet normal 0 0 -1
    outer loop
      vertex 0.809016 0.587785 20
      vertex 5 0.5 20
      vertex 0.951056 0.309016 20
    endloop
  endfacet
  facet normal 0 0 -1
    outer loop
      vertex 5 0.5 20
      vertex 0.809016 0.587785 20
      vertex 4.8541 3.52671 20
    endloop
  endfacet
  facet normal 0 0 -1
    outer loop
      vertex 5 0.5 20
      vertex 0.951056 -0.309016 20
      vertex 1 0 20
    endloop
  endfacet
  facet normal 0 0 -1
    outer loop
      vertex 5 -3.24037 20
      vertex 0.809016 -0.587785 20
      vertex 0.951056 -0.309016 20
    endloop
  endfacet
  facet normal 0 0 -1
    outer loop
      vertex 3.52671 -4.8541 20
      vertex 0.587785 -0.809016 20
      vertex 0.809016 -0.587785 20
    endloop
  endfacet
  facet normal 0 0 -1
    outer loop
      vertex 1.8541 -5.70634 20
      vertex 0.309016 -0.951056 20
      vertex 0.587785 -0.809016 20
    endloop
  endfacet
  facet normal 0 0 -1
    outer loop
      vertex 0 -6 20
      vertex 0.309016 -0.951056 20
      vertex 1.8541 -5.70634 20
    endloop
  endfacet
  facet normal 0 0 -1
    outer loop
      vertex 0 -6 20
      vertex 0 -1 20
      vertex 0.309016 -0.951056 20
    endloop
  endfacet
  facet normal 0 0 -1
    outer loop
      vertex 0 -6 20
      vertex -0.309016 -0.951056 20
      vertex 0 -1 20
    endloop
  endfacet
  facet normal 0 0 -1
    outer loop
      vertex -1.8541 -5.70634 20
      vertex -0.309016 -0.951056 20
      vertex 0 -6 20
    endloop
  endfacet
  facet normal -0 0 -1
    outer loop
      vertex -0.309016 -0.951056 20
      vertex -1.8541 -5.70634 20
      vertex -0.587785 -0.809016 20
    endloop
  endfacet
  facet normal 0 0 -1
    outer loop
      vertex -3.52671 -4.8541 20
      vertex -0.587785 -0.809016 20
      vertex -1.8541 -5.70634 20
    endloop
  endfacet
  facet normal 0 0 -1
    outer loop
      vertex -4.8541 -3.52671 20
      vertex -0.809016 -0.587785 20
      vertex -3.52671 -4.8541 20
    endloop
  endfacet
  facet normal -0 0 -1
    outer loop
      vertex -0.587785 -0.809016 20
      vertex -3.52671 -4.8541 20
      vertex -0.809016 -0.587785 20
    endloop
  endfacet
  facet normal 0 0 -1
    outer loop
      vertex -0.809016 0.587785 20
      vertex -5 3.24037 20
      vertex -4.8541 3.52671 20
    endloop
  endfacet
  facet normal -0 0 -1
    outer loop
      vertex 4.8541 3.52671 20
      vertex 0.809016 0.587785 20
      vertex 3.52671 4.8541 20
    endloop
  endfacet
  facet normal 0 0 -1
    outer loop
      vertex 0.587785 0.809016 20
      vertex 3.52671 4.8541 20
      vertex 0.809016 0.587785 20
    endloop
  endfacet
  facet normal -0 0 -1
    outer loop
      vertex 3.52671 4.8541 20
      vertex 0.587785 0.809016 20
      vertex 1.8541 5.70634 20
    endloop
  endfacet
  facet normal 0 0 -1
    outer loop
      vertex 0.309016 0.951056 20
      vertex 1.8541 5.70634 20
      vertex 0.587785 0.809016 20
    endloop
  endfacet
  facet normal 0 0 -1
    outer loop
      vertex 0 1 20
      vertex 1.8541 5.70634 20
      vertex 0.309016 0.951056 20
    endloop
  endfacet
  facet normal 0 0 -1
    outer loop
      vertex 0 1 20
      vertex 0 6 20
      vertex 1.8541 5.70634 20
    endloop
  endfacet
  facet normal 0 0 -1
    outer loop
      vertex -0.309016 0.951056 20
      vertex 0 6 20
      vertex 0 1 20
    endloop
  endfacet
  facet normal 0 0 -1
    outer loop
      vertex -1.8541 5.70634 20
      vertex -0.309016 0.951056 20
      vertex -0.587785 0.809016 20
    endloop
  endfacet
  facet normal 0 0 -1
    outer loop
      vertex -3.52671 4.8541 20
      vertex -0.587785 0.809016 20
      vertex -0.809016 0.587785 20
    endloop
  endfacet
  facet normal 0 0 -1
    outer loop
      vertex -5 3.24037 20
      vertex -0.809016 0.587785 20
      vertex -0.951056 0.309016 20
    endloop
  endfacet
  facet normal 0 0 -1
    outer loop
      vertex -0.309016 0.951056 20
      vertex -1.8541 5.70634 20
      vertex 0 6 20
    endloop
  endfacet
  facet normal 0 0 -1
    outer loop
      vertex -5 -0.5 20
      vertex -0.951056 0.309016 20
      vertex -1 0 20
    endloop
  endfacet
  facet normal 0 0 -1
    outer loop
      vertex -5 -0.5 20
      vertex -0.809016 -0.587785 20
      vertex -4.8541 -3.52671 20
    endloop
  endfacet
  facet normal 0 0 -1
    outer loop
      vertex -0.809016 -0.587785 20
      vertex -5 -0.5 20
      vertex -0.951056 -0.309016 20
    endloop
  endfacet
  facet normal 0 0 -1
    outer loop
      vertex -5 3.24037 20
      vertex -0.951056 0.309016 20
      vertex -5 -0.5 20
    endloop
  endfacet
  facet normal -0 0 -1
    outer loop
      vertex -0.951056 -0.309016 20
      vertex -5 -0.5 20
      vertex -1 0 20
    endloop
  endfacet
  facet normal 0 0 -1
    outer loop
      vertex -0.587785 0.809016 20
      vertex -3.52671 4.8541 20
      vertex -1.8541 5.70634 20
    endloop
  endfacet
  facet normal 0 0 -1
    outer loop
      vertex -0.809016 0.587785 20
      vertex -4.8541 3.52671 20
      vertex -3.52671 4.8541 20
    endloop
  endfacet
  facet normal 0 0 -1
    outer loop
      vertex -5.70634 -1.8541 20
      vertex -5 -0.5 20
      vertex -4.8541 -3.52671 20
    endloop
  endfacet
  facet normal -0 0 -1
    outer loop
      vertex -5 -0.5 20
      vertex -5.70634 -1.8541 20
      vertex -5.92081 -0.5 20
    endloop
  endfacet
  facet normal 0.987688 0.156434 0
    outer loop
      vertex -5.70634 -1.8541 8
      vertex -6 0 0
      vertex -6 0 8
    endloop
  endfacet
  facet normal 0.987688 0.156434 0
    outer loop
      vertex -6 0 0
      vertex -5.70634 -1.8541 8
      vertex -5.70634 -1.8541 0
    endloop
  endfacet
  facet normal 0.987688 0.156436 -0
    outer loop
      vertex -5.70634 -1.8541 9.29366
      vertex -5.92081 -0.5 20
      vertex -5.70634 -1.8541 20
    endloop
  endfacet
  facet normal 0.987688 0.156436 0
    outer loop
      vertex -5.92081 -0.5 20
      vertex -5.70634 -1.8541 9.29366
      vertex -5.92081 -0.5 9.07919
    endloop
  endfacet
  facet normal 0.453992 0.891006 -0
    outer loop
      vertex -1.8541 -5.70634 0
      vertex -3.52671 -4.8541 10.0591
      vertex -1.8541 -5.70634 11.7317
    endloop
  endfacet
  facet normal 0.453992 0.891006 0
    outer loop
      vertex -3.52671 -4.8541 10.0591
      vertex -1.8541 -5.70634 0
      vertex -3.52671 -4.8541 0
    endloop
  endfacet
  facet normal 0.453992 0.891006 -0
    outer loop
      vertex -1.8541 -5.70634 13.1459
      vertex -3.52671 -4.8541 20
      vertex -1.8541 -5.70634 20
    endloop
  endfacet
  facet normal 0.453992 0.891006 0
    outer loop
      vertex -3.52671 -4.8541 20
      vertex -1.8541 -5.70634 13.1459
      vertex -3.52671 -4.8541 11.4733
    endloop
  endfacet
  facet normal 0.707107 -0.707107 0
    outer loop
      vertex -4.8541 3.52671 19.8541
      vertex -3.52671 4.8541 20
      vertex -4.8541 3.52671 20
    endloop
  endfacet
  facet normal 0.707107 -0.707107 0
    outer loop
      vertex -3.52671 4.8541 20
      vertex -4.8541 3.52671 19.8541
      vertex -3.52671 4.8541 18.5267
    endloop
  endfacet
  facet normal 0.707107 -0.707107 0
    outer loop
      vertex -4.8541 3.52671 0
      vertex -3.52671 4.8541 17.1125
      vertex -4.8541 3.52671 18.4399
    endloop
  endfacet
  facet normal 0.707107 -0.707107 0
    outer loop
      vertex -3.52671 4.8541 17.1125
      vertex -4.8541 3.52671 0
      vertex -3.52671 4.8541 0
    endloop
  endfacet
  facet normal -0.707107 0.707107 0
    outer loop
      vertex 0.587785 -0.809016 20
      vertex 0.809016 -0.587785 29
      vertex 0.809016 -0.587785 20
    endloop
  endfacet
  facet normal -0.707107 0.707107 0
    outer loop
      vertex 0.809016 -0.587785 29
      vertex 0.587785 -0.809016 20
      vertex 0.587785 -0.809016 29
    endloop
  endfacet
  facet normal -0.891006 -0.453991 0
    outer loop
      vertex 0.951056 0.309016 20
      vertex 0.809016 0.587785 29
      vertex 0.809016 0.587785 20
    endloop
  endfacet
  facet normal -0.891006 -0.453991 0
    outer loop
      vertex 0.809016 0.587785 29
      vertex 0.951056 0.309016 20
      vertex 0.951056 0.309016 29
    endloop
  endfacet
  facet normal -0.987688 -0.156437 0
    outer loop
      vertex 1 0 20
      vertex 0.951056 0.309016 29
      vertex 0.951056 0.309016 20
    endloop
  endfacet
  facet normal -0.987688 -0.156437 0
    outer loop
      vertex 0.951056 0.309016 29
      vertex 1 0 20
      vertex 1 0 29
    endloop
  endfacet
  facet normal -0.707107 -0.707107 0
    outer loop
      vertex 0.809016 0.587785 20
      vertex 0.587785 0.809016 29
      vertex 0.587785 0.809016 20
    endloop
  endfacet
  facet normal -0.707107 -0.707107 0
    outer loop
      vertex 0.587785 0.809016 29
      vertex 0.809016 0.587785 20
      vertex 0.809016 0.587785 29
    endloop
  endfacet
  facet normal -0.987688 0.156437 0
    outer loop
      vertex 0.951056 -0.309016 20
      vertex 1 0 29
      vertex 1 0 20
    endloop
  endfacet
  facet normal -0.987688 0.156437 0
    outer loop
      vertex 1 0 29
      vertex 0.951056 -0.309016 20
      vertex 0.951056 -0.309016 29
    endloop
  endfacet
  facet normal -0.156437 0.987688 0
    outer loop
      vertex 0.309016 -0.951056 20
      vertex 0 -1 29
      vertex 0.309016 -0.951056 29
    endloop
  endfacet
  facet normal -0.156437 0.987688 0
    outer loop
      vertex 0 -1 29
      vertex 0.309016 -0.951056 20
      vertex 0 -1 20
    endloop
  endfacet
  facet normal 0.453991 -0.891006 0
    outer loop
      vertex -0.587785 0.809016 20
      vertex -0.309016 0.951056 29
      vertex -0.587785 0.809016 29
    endloop
  endfacet
  facet normal 0.453991 -0.891006 0
    outer loop
      vertex -0.309016 0.951056 29
      vertex -0.587785 0.809016 20
      vertex -0.309016 0.951056 20
    endloop
  endfacet
  facet normal -0.453991 0.891006 0
    outer loop
      vertex 0.587785 -0.809016 20
      vertex 0.309016 -0.951056 29
      vertex 0.587785 -0.809016 29
    endloop
  endfacet
  facet normal -0.453991 0.891006 0
    outer loop
      vertex 0.309016 -0.951056 29
      vertex 0.587785 -0.809016 20
      vertex 0.309016 -0.951056 20
    endloop
  endfacet
  facet normal 0.891006 -0.453991 0
    outer loop
      vertex -0.951056 0.309016 29
      vertex -0.809016 0.587785 20
      vertex -0.809016 0.587785 29
    endloop
  endfacet
  facet normal 0.891006 -0.453991 0
    outer loop
      vertex -0.809016 0.587785 20
      vertex -0.951056 0.309016 29
      vertex -0.951056 0.309016 20
    endloop
  endfacet
  facet normal -0.891006 0.453991 0
    outer loop
      vertex 0.809016 -0.587785 20
      vertex 0.951056 -0.309016 29
      vertex 0.951056 -0.309016 20
    endloop
  endfacet
  facet normal -0.891006 0.453991 0
    outer loop
      vertex 0.951056 -0.309016 29
      vertex 0.809016 -0.587785 20
      vertex 0.809016 -0.587785 29
    endloop
  endfacet
  facet normal 0.987688 -0.156437 0
    outer loop
      vertex -1 0 29
      vertex -0.951056 0.309016 20
      vertex -0.951056 0.309016 29
    endloop
  endfacet
  facet normal 0.987688 -0.156437 0
    outer loop
      vertex -0.951056 0.309016 20
      vertex -1 0 29
      vertex -1 0 20
    endloop
  endfacet
  facet normal -0.453991 -0.891006 0
    outer loop
      vertex 0.309016 0.951056 20
      vertex 0.587785 0.809016 29
      vertex 0.309016 0.951056 29
    endloop
  endfacet
  facet normal -0.453991 -0.891006 -0
    outer loop
      vertex 0.587785 0.809016 29
      vertex 0.309016 0.951056 20
      vertex 0.587785 0.809016 20
    endloop
  endfacet
  facet normal 0.156437 0.987688 -0
    outer loop
      vertex 0 -1 20
      vertex -0.309016 -0.951056 29
      vertex 0 -1 29
    endloop
  endfacet
  facet normal 0.156437 0.987688 0
    outer loop
      vertex -0.309016 -0.951056 29
      vertex 0 -1 20
      vertex -0.309016 -0.951056 20
    endloop
  endfacet
  facet normal -0.156437 -0.987688 0
    outer loop
      vertex 0 1 20
      vertex 0.309016 0.951056 29
      vertex 0 1 29
    endloop
  endfacet
  facet normal -0.156437 -0.987688 -0
    outer loop
      vertex 0.309016 0.951056 29
      vertex 0 1 20
      vertex 0.309016 0.951056 20
    endloop
  endfacet
  facet normal 0.891006 0.453991 0
    outer loop
      vertex -0.809016 -0.587785 29
      vertex -0.951056 -0.309016 20
      vertex -0.951056 -0.309016 29
    endloop
  endfacet
  facet normal 0.891006 0.453991 0
    outer loop
      vertex -0.951056 -0.309016 20
      vertex -0.809016 -0.587785 29
      vertex -0.809016 -0.587785 20
    endloop
  endfacet
  facet normal 0.156437 -0.987688 0
    outer loop
      vertex -0.309016 0.951056 20
      vertex 0 1 29
      vertex -0.309016 0.951056 29
    endloop
  endfacet
  facet normal 0.156437 -0.987688 0
    outer loop
      vertex 0 1 29
      vertex -0.309016 0.951056 20
      vertex 0 1 20
    endloop
  endfacet
  facet normal 0.453991 0.891006 -0
    outer loop
      vertex -0.309016 -0.951056 20
      vertex -0.587785 -0.809016 29
      vertex -0.309016 -0.951056 29
    endloop
  endfacet
  facet normal 0.453991 0.891006 0
    outer loop
      vertex -0.587785 -0.809016 29
      vertex -0.309016 -0.951056 20
      vertex -0.587785 -0.809016 20
    endloop
  endfacet
  facet normal 0.707107 0.707107 0
    outer loop
      vertex -0.587785 -0.809016 29
      vertex -0.809016 -0.587785 20
      vertex -0.809016 -0.587785 29
    endloop
  endfacet
  facet normal 0.707107 0.707107 0
    outer loop
      vertex -0.809016 -0.587785 20
      vertex -0.587785 -0.809016 29
      vertex -0.587785 -0.809016 20
    endloop
  endfacet
  facet normal 0.987688 0.156437 0
    outer loop
      vertex -0.951056 -0.309016 29
      vertex -1 0 20
      vertex -1 0 29
    endloop
  endfacet
  facet normal 0.987688 0.156437 0
    outer loop
      vertex -1 0 20
      vertex -0.951056 -0.309016 29
      vertex -0.951056 -0.309016 20
    endloop
  endfacet
  facet normal 0.707107 -0.707107 0
    outer loop
      vertex -0.809016 0.587785 29
      vertex -0.587785 0.809016 20
      vertex -0.587785 0.809016 29
    endloop
  endfacet
  facet normal 0.707107 -0.707107 0
    outer loop
      vertex -0.587785 0.809016 20
      vertex -0.809016 0.587785 29
      vertex -0.809016 0.587785 20
    endloop
  endfacet
  facet normal -0.323003 0.633928 0.702713
    outer loop
      vertex 1.17557 -1.61803 30
      vertex 0.587785 -0.809016 29
      vertex 0.309016 -0.951056 29
    endloop
  endfacet
  facet normal 0.702713 -0.111302 0.702713
    outer loop
      vertex -1 0 29
      vertex -1.90211 0.618033 30
      vertex -2 0 30
    endloop
  endfacet
  facet normal 0.323003 -0.633927 0.702713
    outer loop
      vertex -0.309016 0.951056 29
      vertex -0.618033 1.90211 30
      vertex -1.17557 1.61803 30
    endloop
  endfacet
  facet normal -0.702713 -0.111302 0.702713
    outer loop
      vertex 2 0 30
      vertex 1.90211 0.618033 30
      vertex 1 0 29
    endloop
  endfacet
  facet normal -0.702714 -0.111301 0.702713
    outer loop
      vertex 1 0 29
      vertex 1.90211 0.618033 30
      vertex 0.951056 0.309016 29
    endloop
  endfacet
  facet normal 0.633927 -0.323003 0.702713
    outer loop
      vertex -0.951056 0.309016 29
      vertex -1.61803 1.17557 30
      vertex -1.90211 0.618033 30
    endloop
  endfacet
  facet normal 0.323003 0.633928 0.702713
    outer loop
      vertex -0.309016 -0.951056 29
      vertex -0.587785 -0.809016 29
      vertex -1.17557 -1.61803 30
    endloop
  endfacet
  facet normal 0.503088 0.503088 0.702713
    outer loop
      vertex -0.809016 -0.587785 29
      vertex -1.17557 -1.61803 30
      vertex -0.587785 -0.809016 29
    endloop
  endfacet
  facet normal 0.503088 0.503088 0.702713
    outer loop
      vertex -1.17557 -1.61803 30
      vertex -0.809016 -0.587785 29
      vertex -1.61803 -1.17557 30
    endloop
  endfacet
  facet normal 0.111301 0.702714 0.702713
    outer loop
      vertex 0 -1 29
      vertex -0.309016 -0.951056 29
      vertex -0.618033 -1.90211 30
    endloop
  endfacet
  facet normal 0.633928 0.323003 0.702713
    outer loop
      vertex -0.809016 -0.587785 29
      vertex -0.951056 -0.309016 29
      vertex -1.61803 -1.17557 30
    endloop
  endfacet
  facet normal -0.111302 0.702713 0.702713
    outer loop
      vertex 0.618033 -1.90211 30
      vertex 0 -1 29
      vertex 0 -2 30
    endloop
  endfacet
  facet normal -0.702714 0.111301 0.702713
    outer loop
      vertex 1.90211 -0.618033 30
      vertex 1 0 29
      vertex 0.951056 -0.309016 29
    endloop
  endfacet
  facet normal -0.702713 0.111302 0.702713
    outer loop
      vertex 1.90211 -0.618033 30
      vertex 2 0 30
      vertex 1 0 29
    endloop
  endfacet
  facet normal 0.633927 0.323003 0.702713
    outer loop
      vertex -1.61803 -1.17557 30
      vertex -0.951056 -0.309016 29
      vertex -1.90211 -0.618033 30
    endloop
  endfacet
  facet normal 0.503088 -0.503088 0.702713
    outer loop
      vertex -1.17557 1.61803 30
      vertex -0.809016 0.587785 29
      vertex -0.587785 0.809016 29
    endloop
  endfacet
  facet normal 0.503088 -0.503088 0.702713
    outer loop
      vertex -0.809016 0.587785 29
      vertex -1.17557 1.61803 30
      vertex -1.61803 1.17557 30
    endloop
  endfacet
  facet normal 0.111302 0.702713 0.702713
    outer loop
      vertex 0 -2 30
      vertex 0 -1 29
      vertex -0.618033 -1.90211 30
    endloop
  endfacet
  facet normal 0.702714 -0.111301 0.702713
    outer loop
      vertex -1 0 29
      vertex -0.951056 0.309016 29
      vertex -1.90211 0.618033 30
    endloop
  endfacet
  facet normal -0.503088 0.503088 0.702713
    outer loop
      vertex 0.809016 -0.587785 29
      vertex 1.17557 -1.61803 30
      vertex 1.61803 -1.17557 30
    endloop
  endfacet
  facet normal -0.503088 0.503088 0.702713
    outer loop
      vertex 1.17557 -1.61803 30
      vertex 0.809016 -0.587785 29
      vertex 0.587785 -0.809016 29
    endloop
  endfacet
  facet normal 0.323003 0.633927 0.702713
    outer loop
      vertex -0.618033 -1.90211 30
      vertex -0.309016 -0.951056 29
      vertex -1.17557 -1.61803 30
    endloop
  endfacet
  facet normal -0.323003 0.633927 0.702713
    outer loop
      vertex 0.618033 -1.90211 30
      vertex 1.17557 -1.61803 30
      vertex 0.309016 -0.951056 29
    endloop
  endfacet
  facet normal -0.111301 0.702714 0.702713
    outer loop
      vertex 0.618033 -1.90211 30
      vertex 0.309016 -0.951056 29
      vertex 0 -1 29
    endloop
  endfacet
  facet normal 0.111302 -0.702713 0.702713
    outer loop
      vertex 0 1 29
      vertex 0 2 30
      vertex -0.618033 1.90211 30
    endloop
  endfacet
  facet normal 0.111301 -0.702714 0.702713
    outer loop
      vertex -0.309016 0.951056 29
      vertex 0 1 29
      vertex -0.618033 1.90211 30
    endloop
  endfacet
  facet normal 0.702714 0.111301 0.702713
    outer loop
      vertex -0.951056 -0.309016 29
      vertex -1 0 29
      vertex -1.90211 -0.618033 30
    endloop
  endfacet
  facet normal -0.633928 0.323003 0.702713
    outer loop
      vertex 1.61803 -1.17557 30
      vertex 0.951056 -0.309016 29
      vertex 0.809016 -0.587785 29
    endloop
  endfacet
  facet normal -0.323003 -0.633928 0.702713
    outer loop
      vertex 0.587785 0.809016 29
      vertex 1.17557 1.61803 30
      vertex 0.309016 0.951056 29
    endloop
  endfacet
  facet normal 0.633928 -0.323003 0.702713
    outer loop
      vertex -0.951056 0.309016 29
      vertex -0.809016 0.587785 29
      vertex -1.61803 1.17557 30
    endloop
  endfacet
  facet normal -0.633927 0.323003 0.702713
    outer loop
      vertex 1.61803 -1.17557 30
      vertex 1.90211 -0.618033 30
      vertex 0.951056 -0.309016 29
    endloop
  endfacet
  facet normal 0.702713 0.111302 0.702713
    outer loop
      vertex -1.90211 -0.618033 30
      vertex -1 0 29
      vertex -2 0 30
    endloop
  endfacet
  facet normal -0.323003 -0.633927 0.702713
    outer loop
      vertex 1.17557 1.61803 30
      vertex 0.618033 1.90211 30
      vertex 0.309016 0.951056 29
    endloop
  endfacet
  facet normal -0.111302 -0.702713 0.702713
    outer loop
      vertex 0.618033 1.90211 30
      vertex 0 2 30
      vertex 0 1 29
    endloop
  endfacet
  facet normal -0.111301 -0.702714 0.702713
    outer loop
      vertex 0.309016 0.951056 29
      vertex 0.618033 1.90211 30
      vertex 0 1 29
    endloop
  endfacet
  facet normal 0.323003 -0.633928 0.702713
    outer loop
      vertex -0.587785 0.809016 29
      vertex -0.309016 0.951056 29
      vertex -1.17557 1.61803 30
    endloop
  endfacet
  facet normal -0.633928 -0.323003 0.702713
    outer loop
      vertex 0.951056 0.309016 29
      vertex 1.61803 1.17557 30
      vertex 0.809016 0.587785 29
    endloop
  endfacet
  facet normal -0.503088 -0.503088 0.702713
    outer loop
      vertex 1.17557 1.61803 30
      vertex 0.809016 0.587785 29
      vertex 1.61803 1.17557 30
    endloop
  endfacet
  facet normal -0.503088 -0.503088 0.702713
    outer loop
      vertex 0.809016 0.587785 29
      vertex 1.17557 1.61803 30
      vertex 0.587785 0.809016 29
    endloop
  endfacet
  facet normal -0.633927 -0.323003 0.702713
    outer loop
      vertex 1.90211 0.618033 30
      vertex 1.61803 1.17557 30
      vertex 0.951056 0.309016 29
    endloop
  endfacet
  facet normal -0.707106 4.98668e-06 -0.707107
    outer loop
      vertex -2.12132 3.5 15.7071
      vertex 0 6 13.5858
      vertex 1.8541 5.70634 11.7317
    endloop
  endfacet
  facet normal -0.707105 -6.29553e-07 -0.707109
    outer loop
      vertex -2.12132 3.5 15.7071
      vertex 1.8541 5.70634 11.7317
      vertex 3.52671 4.8541 10.0591
    endloop
  endfacet
  facet normal -0.707107 6.53513e-06 -0.707106
    outer loop
      vertex 0 6 13.5858
      vertex -2.12132 3.5 15.7071
      vertex -1.8541 5.70634 15.4399
    endloop
  endfacet
  facet normal -0.707108 8.13704e-06 -0.707106
    outer loop
      vertex -2.12132 0.5 15.7071
      vertex 3.52671 4.8541 10.0591
      vertex 4.8541 3.52671 8.73169
    endloop
  endfacet
  facet normal -0.707106 6.28565e-06 -0.707107
    outer loop
      vertex -1.8541 5.70634 15.4399
      vertex -2.12132 3.5 15.7071
      vertex -3.52671 4.8541 17.1125
    endloop
  endfacet
  facet normal -0.707103 1.21412e-05 -0.70711
    outer loop
      vertex -4.24264 3.5 17.8284
      vertex -3.52671 4.8541 17.1125
      vertex -2.12132 3.5 15.7071
    endloop
  endfacet
  facet normal -0.707107 0 -0.707107
    outer loop
      vertex 5.58579 0.5 8
      vertex 4.8541 3.52671 8.73169
      vertex 5.58579 2.0907 8
    endloop
  endfacet
  facet normal -0.707106 2.21794e-07 -0.707107
    outer loop
      vertex 4.8541 3.52671 8.73169
      vertex 5.58579 0.5 8
      vertex -2.12132 0.5 15.7071
    endloop
  endfacet
  facet normal -0.707105 0 -0.707109
    outer loop
      vertex 3.52671 4.8541 10.0591
      vertex -2.12132 0.5 15.7071
      vertex -2.12132 3.5 15.7071
    endloop
  endfacet
  facet normal -0.707129 3.92156e-05 -0.707085
    outer loop
      vertex -3.52671 4.8541 17.1125
      vertex -4.24264 3.5 17.8284
      vertex -4.8541 3.52671 18.4399
    endloop
  endfacet
  facet normal -0.707129 3.95968e-05 -0.707085
    outer loop
      vertex -4.24264 3.5 17.8284
      vertex -5.70634 1.8541 19.2921
      vertex -4.8541 3.52671 18.4399
    endloop
  endfacet
  facet normal -0.707107 0 -0.707107
    outer loop
      vertex -4.24264 0.5 17.8284
      vertex -5.70634 1.8541 19.2921
      vertex -4.24264 3.5 17.8284
    endloop
  endfacet
  facet normal -0.707113 -1.36637e-05 -0.7071
    outer loop
      vertex -5.70634 1.8541 19.2921
      vertex -4.24264 0.5 17.8284
      vertex -5.92081 0.5 19.5066
    endloop
  endfacet
  facet normal 0.707107 -3.10678e-06 0.707107
    outer loop
      vertex -1.41421 3.5 16.4142
      vertex 0 6 15
      vertex -1.8541 5.70634 16.8541
    endloop
  endfacet
  facet normal 0.707106 -3.67448e-06 0.707108
    outer loop
      vertex -1.41421 3.5 16.4142
      vertex -1.8541 5.70634 16.8541
      vertex -3.52671 4.8541 18.5267
    endloop
  endfacet
  facet normal 0.707107 -2.59585e-06 0.707107
    outer loop
      vertex 0 6 15
      vertex -1.41421 3.5 16.4142
      vertex 1.8541 5.70634 13.1459
    endloop
  endfacet
  facet normal 0.707115 -1.05472e-05 0.707099
    outer loop
      vertex -3.53553 3.5 18.5355
      vertex -3.52671 4.8541 18.5267
      vertex -4.8541 3.52671 19.8541
    endloop
  endfacet
  facet normal 0.707103 -1.04006e-05 0.70711
    outer loop
      vertex -1.41421 3.5 16.4142
      vertex -3.52671 4.8541 18.5267
      vertex -3.53553 3.5 18.5355
    endloop
  endfacet
  facet normal 0.707105 1.01434e-06 0.707108
    outer loop
      vertex 0 0.5 15
      vertex 1.8541 5.70634 13.1459
      vertex -1.41421 3.5 16.4142
    endloop
  endfacet
  facet normal 0.707115 -8.11357e-06 0.707099
    outer loop
      vertex -5 3.24037 20
      vertex -3.53553 3.5 18.5355
      vertex -4.8541 3.52671 19.8541
    endloop
  endfacet
  facet normal 0.707114 0 0.7071
    outer loop
      vertex -5 3.24037 20
      vertex -3.53553 0.5 18.5355
      vertex -3.53553 3.5 18.5355
    endloop
  endfacet
  facet normal 0.707103 -2.35701e-06 0.70711
    outer loop
      vertex 0 -0.5 15
      vertex -1.41421 0.5 16.4142
      vertex -3.53553 0.5 18.5355
    endloop
  endfacet
  facet normal 0.707114 -0 0.7071
    outer loop
      vertex -5 -0.5 20
      vertex -3.53553 0.5 18.5355
      vertex -5 3.24037 20
    endloop
  endfacet
  facet normal 0.707107 2.12132e-05 0.707107
    outer loop
      vertex 0 -0.5 15
      vertex -3.53553 0.5 18.5355
      vertex -5 -0.5 20
    endloop
  endfacet
  facet normal 0.707104 0 0.707109
    outer loop
      vertex -1.41421 0.5 16.4142
      vertex 0 -0.5 15
      vertex 0 0.5 15
    endloop
  endfacet
  facet normal 0.707105 1.27431e-06 0.707109
    outer loop
      vertex 1.8541 5.70634 13.1459
      vertex 0 0.5 15
      vertex 3.52671 4.8541 11.4733
    endloop
  endfacet
  facet normal 0.707108 -3.28113e-06 0.707106
    outer loop
      vertex 3.52671 4.8541 11.4733
      vertex 0 0.5 15
      vertex 4.8541 3.52671 10.1459
    endloop
  endfacet
  facet normal 0.707104 0 0.707109
    outer loop
      vertex 0 0.5 15
      vertex -1.41421 3.5 16.4142
      vertex -1.41421 0.5 16.4142
    endloop
  endfacet
  facet normal 0.707107 5.87033e-17 0.707107
    outer loop
      vertex 4.8541 3.52671 10.1459
      vertex 0 0.5 15
      vertex 5.70634 1.8541 9.29366
    endloop
  endfacet
  facet normal 0.707107 9.00847e-16 0.707107
    outer loop
      vertex 5.70634 1.8541 9.29366
      vertex 0 0.5 15
      vertex 5.92081 0.5 9.07919
    endloop
  endfacet
  facet normal 0 1 0
    outer loop
      vertex -2.12132 0.5 15.7071
      vertex 5.58579 0.5 8
      vertex -3.53553 0.5 14.2929
    endloop
  endfacet
  facet normal 0 1 -0
    outer loop
      vertex -5.65685 0.5 16.4142
      vertex -5.92081 0.5 19.5066
      vertex -4.24264 0.5 17.8284
    endloop
  endfacet
  facet normal 0 1 0
    outer loop
      vertex -5.65685 0.5 16.4142
      vertex -5.92081 0.5 8
      vertex -5.92081 0.5 19.5066
    endloop
  endfacet
  facet normal 0 1 0
    outer loop
      vertex -3.53553 0.5 14.2929
      vertex -5.92081 0.5 8
      vertex -5.65685 0.5 16.4142
    endloop
  endfacet
  facet normal 0 1 0
    outer loop
      vertex -5.92081 0.5 8
      vertex -3.53553 0.5 14.2929
      vertex 5.58579 0.5 8
    endloop
  endfacet
  facet normal 0 1 0
    outer loop
      vertex 5.92081 0.5 20
      vertex 0 0.5 15
      vertex 5 0.5 20
    endloop
  endfacet
  facet normal -0 1 0
    outer loop
      vertex 0 0.5 15
      vertex 5.92081 0.5 20
      vertex 5.92081 0.5 9.07919
    endloop
  endfacet
  facet normal 0 1 0
    outer loop
      vertex -1.41421 0.5 16.4142
      vertex -4.24264 0.5 17.8284
      vertex -3.53553 0.5 18.5355
    endloop
  endfacet
  facet normal 0 1 -0
    outer loop
      vertex -2.12132 0.5 15.7071
      vertex -4.24264 0.5 17.8284
      vertex -1.41421 0.5 16.4142
    endloop
  endfacet
  facet normal 0 1 0
    outer loop
      vertex -4.24264 0.5 17.8284
      vertex -2.12132 0.5 15.7071
      vertex -5.65685 0.5 16.4142
    endloop
  endfacet
  facet normal 0 1 0
    outer loop
      vertex -5.65685 0.5 16.4142
      vertex -2.12132 0.5 15.7071
      vertex -3.53553 0.5 14.2929
    endloop
  endfacet
  facet normal 0 -1 -0
    outer loop
      vertex 2.12132 -0.5 15.7071
      vertex -5.58579 -0.5 8
      vertex 3.53553 -0.5 14.2929
    endloop
  endfacet
  facet normal 0 -1 0
    outer loop
      vertex 5.65685 -0.5 16.4142
      vertex 5.92081 -0.5 19.5066
      vertex 4.24264 -0.5 17.8284
    endloop
  endfacet
  facet normal 0 -1 0
    outer loop
      vertex 5.65685 -0.5 16.4142
      vertex 5.92081 -0.5 8
      vertex 5.92081 -0.5 19.5066
    endloop
  endfacet
  facet normal 0 -1 0
    outer loop
      vertex 3.53553 -0.5 14.2929
      vertex 5.92081 -0.5 8
      vertex 5.65685 -0.5 16.4142
    endloop
  endfacet
  facet normal 0 -1 0
    outer loop
      vertex 5.92081 -0.5 8
      vertex 3.53553 -0.5 14.2929
      vertex -5.58579 -0.5 8
    endloop
  endfacet
  facet normal 0 -1 0
    outer loop
      vertex -5.92081 -0.5 20
      vertex 0 -0.5 15
      vertex -5 -0.5 20
    endloop
  endfacet
  facet normal -0 -1 0
    outer loop
      vertex 0 -0.5 15
      vertex -5.92081 -0.5 20
      vertex -5.92081 -0.5 9.07919
    endloop
  endfacet
  facet normal 0.707102 0 -0.707112
    outer loop
      vertex -3.53553 0.5 18.5355
      vertex -4.24264 3.5 17.8284
      vertex -3.53553 3.5 18.5355
    endloop
  endfacet
  facet normal 0.707102 0 -0.707112
    outer loop
      vertex -4.24264 3.5 17.8284
      vertex -3.53553 0.5 18.5355
      vertex -4.24264 0.5 17.8284
    endloop
  endfacet
  facet normal -0.707102 0 0.707112
    outer loop
      vertex -2.12132 3.5 15.7071
      vertex -1.41421 0.5 16.4142
      vertex -1.41421 3.5 16.4142
    endloop
  endfacet
  facet normal -0.707102 0 0.707112
    outer loop
      vertex -1.41421 0.5 16.4142
      vertex -2.12132 3.5 15.7071
      vertex -2.12132 0.5 15.7071
    endloop
  endfacet
  facet normal 0 -1 0
    outer loop
      vertex -4.24264 3.5 17.8284
      vertex -1.41421 3.5 16.4142
      vertex -3.53553 3.5 18.5355
    endloop
  endfacet
  facet normal -0 -1 0
    outer loop
      vertex -1.41421 3.5 16.4142
      vertex -4.24264 3.5 17.8284
      vertex -2.12132 3.5 15.7071
    endloop
  endfacet
  facet normal 0.707113 1.36637e-05 -0.7071
    outer loop
      vertex 5.70634 -1.8541 19.2921
      vertex 4.24264 -0.5 17.8284
      vertex 5.92081 -0.5 19.5066
    endloop
  endfacet
  facet normal 0.707107 0 -0.707107
    outer loop
      vertex 5.70634 -1.8541 19.2921
      vertex 4.24264 -3.5 17.8284
      vertex 4.24264 -0.5 17.8284
    endloop
  endfacet
  facet normal 0.707129 -3.92156e-05 -0.707085
    outer loop
      vertex 3.52671 -4.8541 17.1125
      vertex 4.24264 -3.5 17.8284
      vertex 4.8541 -3.52671 18.4399
    endloop
  endfacet
  facet normal 0.707129 -3.95968e-05 -0.707085
    outer loop
      vertex 4.8541 -3.52671 18.4399
      vertex 4.24264 -3.5 17.8284
      vertex 5.70634 -1.8541 19.2921
    endloop
  endfacet
  facet normal 0.707106 -2.21794e-07 -0.707107
    outer loop
      vertex -4.8541 -3.52671 8.73169
      vertex -5.58579 -0.5 8
      vertex 2.12132 -0.5 15.7071
    endloop
  endfacet
  facet normal 0.707105 0 -0.707109
    outer loop
      vertex -3.52671 -4.8541 10.0591
      vertex 2.12132 -0.5 15.7071
      vertex 2.12132 -3.5 15.7071
    endloop
  endfacet
  facet normal 0.707107 0 -0.707107
    outer loop
      vertex -5.58579 -0.5 8
      vertex -4.8541 -3.52671 8.73169
      vertex -5.58579 -2.0907 8
    endloop
  endfacet
  facet normal 0.707103 -1.21412e-05 -0.70711
    outer loop
      vertex 4.24264 -3.5 17.8284
      vertex 3.52671 -4.8541 17.1125
      vertex 2.12132 -3.5 15.7071
    endloop
  endfacet
  facet normal 0.707106 -6.28565e-06 -0.707107
    outer loop
      vertex 1.8541 -5.70634 15.4399
      vertex 2.12132 -3.5 15.7071
      vertex 3.52671 -4.8541 17.1125
    endloop
  endfacet
  facet normal 0.707108 -8.13704e-06 -0.707106
    outer loop
      vertex 2.12132 -0.5 15.7071
      vertex -3.52671 -4.8541 10.0591
      vertex -4.8541 -3.52671 8.73169
    endloop
  endfacet
  facet normal 0.707107 -6.53513e-06 -0.707106
    outer loop
      vertex 0 -6 13.5858
      vertex 2.12132 -3.5 15.7071
      vertex 1.8541 -5.70634 15.4399
    endloop
  endfacet
  facet normal 0.707105 6.29553e-07 -0.707109
    outer loop
      vertex 2.12132 -3.5 15.7071
      vertex -1.8541 -5.70634 11.7317
      vertex -3.52671 -4.8541 10.0591
    endloop
  endfacet
  facet normal 0.707106 -4.98668e-06 -0.707107
    outer loop
      vertex 2.12132 -3.5 15.7071
      vertex 0 -6 13.5858
      vertex -1.8541 -5.70634 11.7317
    endloop
  endfacet
  facet normal -0.707107 -9.00847e-16 0.707107
    outer loop
      vertex -5.70634 -1.8541 9.29366
      vertex 0 -0.5 15
      vertex -5.92081 -0.5 9.07919
    endloop
  endfacet
  facet normal -0.707107 -5.87033e-17 0.707107
    outer loop
      vertex -4.8541 -3.52671 10.1459
      vertex 0 -0.5 15
      vertex -5.70634 -1.8541 9.29366
    endloop
  endfacet
  facet normal -0.707108 3.28113e-06 0.707106
    outer loop
      vertex -3.52671 -4.8541 11.4733
      vertex 0 -0.5 15
      vertex -4.8541 -3.52671 10.1459
    endloop
  endfacet
  facet normal -0.707104 0 0.707109
    outer loop
      vertex 0 -0.5 15
      vertex 1.41421 -3.5 16.4142
      vertex 1.41421 -0.5 16.4142
    endloop
  endfacet
  facet normal -0.707105 -1.27431e-06 0.707109
    outer loop
      vertex -1.8541 -5.70634 13.1459
      vertex 0 -0.5 15
      vertex -3.52671 -4.8541 11.4733
    endloop
  endfacet
  facet normal -0.707104 0 0.707109
    outer loop
      vertex 1.41421 -0.5 16.4142
      vertex 0 0.5 15
      vertex 0 -0.5 15
    endloop
  endfacet
  facet normal -0.707103 2.35701e-06 0.70711
    outer loop
      vertex 3.53553 -0.5 18.5355
      vertex 0 0.5 15
      vertex 1.41421 -0.5 16.4142
    endloop
  endfacet
  facet normal -0.707107 -2.12132e-05 0.707107
    outer loop
      vertex 0 0.5 15
      vertex 3.53553 -0.5 18.5355
      vertex 5 0.5 20
    endloop
  endfacet
  facet normal -0.707114 0 0.7071
    outer loop
      vertex 3.53553 -0.5 18.5355
      vertex 5 -3.24037 20
      vertex 5 0.5 20
    endloop
  endfacet
  facet normal -0.707114 0 0.7071
    outer loop
      vertex 3.53553 -3.5 18.5355
      vertex 5 -3.24037 20
      vertex 3.53553 -0.5 18.5355
    endloop
  endfacet
  facet normal -0.707115 8.11357e-06 0.707099
    outer loop
      vertex 3.53553 -3.5 18.5355
      vertex 4.8541 -3.52671 19.8541
      vertex 5 -3.24037 20
    endloop
  endfacet
  facet normal -0.707105 -1.01434e-06 0.707108
    outer loop
      vertex 0 -0.5 15
      vertex -1.8541 -5.70634 13.1459
      vertex 1.41421 -3.5 16.4142
    endloop
  endfacet
  facet normal -0.707107 2.59585e-06 0.707107
    outer loop
      vertex 0 -6 15
      vertex 1.41421 -3.5 16.4142
      vertex -1.8541 -5.70634 13.1459
    endloop
  endfacet
  facet normal -0.707115 1.05472e-05 0.707099
    outer loop
      vertex 3.53553 -3.5 18.5355
      vertex 3.52671 -4.8541 18.5267
      vertex 4.8541 -3.52671 19.8541
    endloop
  endfacet
  facet normal -0.707107 3.10678e-06 0.707107
    outer loop
      vertex 1.8541 -5.70634 16.8541
      vertex 1.41421 -3.5 16.4142
      vertex 0 -6 15
    endloop
  endfacet
  facet normal -0.707103 1.04006e-05 0.70711
    outer loop
      vertex 1.41421 -3.5 16.4142
      vertex 3.52671 -4.8541 18.5267
      vertex 3.53553 -3.5 18.5355
    endloop
  endfacet
  facet normal -0.707106 3.67448e-06 0.707108
    outer loop
      vertex 3.52671 -4.8541 18.5267
      vertex 1.41421 -3.5 16.4142
      vertex 1.8541 -5.70634 16.8541
    endloop
  endfacet
  facet normal 0 -1 0
    outer loop
      vertex 1.41421 -0.5 16.4142
      vertex 4.24264 -0.5 17.8284
      vertex 3.53553 -0.5 18.5355
    endloop
  endfacet
  facet normal 0 -1 0
    outer loop
      vertex 2.12132 -0.5 15.7071
      vertex 4.24264 -0.5 17.8284
      vertex 1.41421 -0.5 16.4142
    endloop
  endfacet
  facet normal 0 -1 -0
    outer loop
      vertex 4.24264 -0.5 17.8284
      vertex 2.12132 -0.5 15.7071
      vertex 5.65685 -0.5 16.4142
    endloop
  endfacet
  facet normal 0 -1 0
    outer loop
      vertex 5.65685 -0.5 16.4142
      vertex 2.12132 -0.5 15.7071
      vertex 3.53553 -0.5 14.2929
    endloop
  endfacet
  facet normal -0.707102 0 -0.707112
    outer loop
      vertex 4.24264 -3.5 17.8284
      vertex 3.53553 -0.5 18.5355
      vertex 4.24264 -0.5 17.8284
    endloop
  endfacet
  facet normal -0.707102 -0 -0.707112
    outer loop
      vertex 3.53553 -0.5 18.5355
      vertex 4.24264 -3.5 17.8284
      vertex 3.53553 -3.5 18.5355
    endloop
  endfacet
  facet normal 0.707102 0 0.707112
    outer loop
      vertex 1.41421 -0.5 16.4142
      vertex 2.12132 -3.5 15.7071
      vertex 2.12132 -0.5 15.7071
    endloop
  endfacet
  facet normal 0.707102 0 0.707112
    outer loop
      vertex 2.12132 -3.5 15.7071
      vertex 1.41421 -0.5 16.4142
      vertex 1.41421 -3.5 16.4142
    endloop
  endfacet
  facet normal 0 1 0
    outer loop
      vertex 4.24264 -3.5 17.8284
      vertex 1.41421 -3.5 16.4142
      vertex 3.53553 -3.5 18.5355
    endloop
  endfacet
  facet normal -0 1 0
    outer loop
      vertex 1.41421 -3.5 16.4142
      vertex 4.24264 -3.5 17.8284
      vertex 2.12132 -3.5 15.7071
    endloop
  endfacet
  facet normal 0 0 -1
    outer loop
      vertex -5.58579 -2.0907 8
      vertex -5.70634 -1.8541 8
      vertex -5.58579 -0.5 8
    endloop
  endfacet
  facet normal 0 0 -1
    outer loop
      vertex 5.58579 0.5 8
      vertex 6 0 8
      vertex 5.92081 -0.5 8
    endloop
  endfacet
  facet normal 0 0 -1
    outer loop
      vertex 6 0 8
      vertex 5.58579 0.5 8
      vertex 5.70634 1.8541 8
    endloop
  endfacet
  facet normal 0 0 -1
    outer loop
      vertex -5.58579 -0.5 8
      vertex 5.58579 0.5 8
      vertex 5.92081 -0.5 8
    endloop
  endfacet
  facet normal 0 0 -1
    outer loop
      vertex -5.58579 -0.5 8
      vertex -5.92081 0.5 8
      vertex 5.58579 0.5 8
    endloop
  endfacet
  facet normal 0 0 -1
    outer loop
      vertex -6 0 8
      vertex -5.58579 -0.5 8
      vertex -5.70634 -1.8541 8
    endloop
  endfacet
  facet normal 0 0 -1
    outer loop
      vertex -5.58579 -0.5 8
      vertex -6 0 8
      vertex -5.92081 0.5 8
    endloop
  endfacet
  facet normal -0 0 -1
    outer loop
      vertex 5.70634 1.8541 8
      vertex 5.58579 0.5 8
      vertex 5.58579 2.0907 8
    endloop
  endfacet
endsolid OpenSCAD_Model
