solid OpenSCAD_Model
  facet normal -0 0 1
    outer loop
      vertex -20 8 13.9875
      vertex 0 -8 13.9875
      vertex 0 8 13.9875
    endloop
  endfacet
  facet normal 0 0 1
    outer loop
      vertex 0 -8 13.9875
      vertex -20 8 13.9875
      vertex -20 -8 13.9875
    endloop
  endfacet
  facet normal 0 0.866025 -0.5
    outer loop
      vertex 0 5.75907 9
      vertex -20 8 12.8814
      vertex 0 8 12.8814
    endloop
  endfacet
  facet normal 0 0.866025 -0.5
    outer loop
      vertex -20 8 12.8814
      vertex 0 5.75907 9
      vertex -20 5.75907 9
    endloop
  endfacet
  facet normal 1 0 0
    outer loop
      vertex 0 8 13.9875
      vertex 0 5.75907 9
      vertex 0 8 12.8814
    endloop
  endfacet
  facet normal 1 0 0
    outer loop
      vertex 0 8 13.9875
      vertex 0 -5.75907 9
      vertex 0 5.75907 9
    endloop
  endfacet
  facet normal 1 -0 0
    outer loop
      vertex 0 -8 13.9875
      vertex 0 -5.75907 9
      vertex 0 8 13.9875
    endloop
  endfacet
  facet normal 1 0 0
    outer loop
      vertex 0 -5.75907 9
      vertex 0 -8 13.9875
      vertex 0 -8 12.8814
    endloop
  endfacet
  facet normal 0 -0.866025 -0.5
    outer loop
      vertex -20 -5.75907 9
      vertex 0 -8 12.8814
      vertex -20 -8 12.8814
    endloop
  endfacet
  facet normal 0 -0.866025 -0.5
    outer loop
      vertex 0 -8 12.8814
      vertex -20 -5.75907 9
      vertex 0 -5.75907 9
    endloop
  endfacet
  facet normal -1 0 0
    outer loop
      vertex -20 3.80423 -1.23607
      vertex -20 12 9
      vertex -20 12 -15
    endloop
  endfacet
  facet normal -1 0 0
    outer loop
      vertex -20 3.80423 1.23607
      vertex -20 12 9
      vertex -20 4 0
    endloop
  endfacet
  facet normal -1 0 0
    outer loop
      vertex -20 12 9
      vertex -20 3.80423 -1.23607
      vertex -20 4 0
    endloop
  endfacet
  facet normal -1 0 0
    outer loop
      vertex -20 12 -15
      vertex -20 3.23607 -2.35114
      vertex -20 3.80423 -1.23607
    endloop
  endfacet
  facet normal -1 0 0
    outer loop
      vertex -20 12 -15
      vertex -20 2.35114 -3.23607
      vertex -20 3.23607 -2.35114
    endloop
  endfacet
  facet normal -1 0 0
    outer loop
      vertex -20 12 -15
      vertex -20 1.23607 -3.80423
      vertex -20 2.35114 -3.23607
    endloop
  endfacet
  facet normal -1 0 0
    outer loop
      vertex -20 12 -15
      vertex -20 0 -4
      vertex -20 1.23607 -3.80423
    endloop
  endfacet
  facet normal -1 0 0
    outer loop
      vertex -20 -12 -15
      vertex -20 0 -4
      vertex -20 12 -15
    endloop
  endfacet
  facet normal -1 -0 0
    outer loop
      vertex -20 0 -4
      vertex -20 -12 -15
      vertex -20 -1.23607 -3.80423
    endloop
  endfacet
  facet normal -1 0 0
    outer loop
      vertex -20 -12 9
      vertex -20 -4 0
      vertex -20 -3.80423 -1.23607
    endloop
  endfacet
  facet normal -1 -0 0
    outer loop
      vertex -20 -1.23607 -3.80423
      vertex -20 -12 -15
      vertex -20 -2.35114 -3.23607
    endloop
  endfacet
  facet normal -1 0 0
    outer loop
      vertex -20 -12 -15
      vertex -20 -3.23607 -2.35114
      vertex -20 -2.35114 -3.23607
    endloop
  endfacet
  facet normal -1 0 0
    outer loop
      vertex -20 -12 -15
      vertex -20 -3.80423 -1.23607
      vertex -20 -3.23607 -2.35114
    endloop
  endfacet
  facet normal -1 0 0
    outer loop
      vertex -20 -12 9
      vertex -20 -3.80423 -1.23607
      vertex -20 -12 -15
    endloop
  endfacet
  facet normal -1 0 0
    outer loop
      vertex -20 -4 0
      vertex -20 -12 9
      vertex -20 -5.75907 9
    endloop
  endfacet
  facet normal -1 0 0
    outer loop
      vertex -20 5.75907 9
      vertex -20 8 13.9875
      vertex -20 8 12.8814
    endloop
  endfacet
  facet normal -1 -0 0
    outer loop
      vertex -20 12 9
      vertex -20 3.80423 1.23607
      vertex -20 5.75907 9
    endloop
  endfacet
  facet normal -1 0 0
    outer loop
      vertex -20 3.23607 2.35114
      vertex -20 5.75907 9
      vertex -20 3.80423 1.23607
    endloop
  endfacet
  facet normal -1 0 0
    outer loop
      vertex -20 2.35114 3.23607
      vertex -20 5.75907 9
      vertex -20 3.23607 2.35114
    endloop
  endfacet
  facet normal -1 0 0
    outer loop
      vertex -20 1.23607 3.80423
      vertex -20 5.75907 9
      vertex -20 2.35114 3.23607
    endloop
  endfacet
  facet normal -1 0 0
    outer loop
      vertex -20 0 4
      vertex -20 5.75907 9
      vertex -20 1.23607 3.80423
    endloop
  endfacet
  facet normal -1 0 0
    outer loop
      vertex -20 -5.75907 9
      vertex -20 5.75907 9
      vertex -20 0 4
    endloop
  endfacet
  facet normal -1 0 0
    outer loop
      vertex -20 -5.75907 9
      vertex -20 0 4
      vertex -20 -1.23607 3.80423
    endloop
  endfacet
  facet normal -1 0 0
    outer loop
      vertex -20 -5.75907 9
      vertex -20 -1.23607 3.80423
      vertex -20 -2.35114 3.23607
    endloop
  endfacet
  facet normal -1 0 0
    outer loop
      vertex -20 -5.75907 9
      vertex -20 -2.35114 3.23607
      vertex -20 -3.23607 2.35114
    endloop
  endfacet
  facet normal -1 0 0
    outer loop
      vertex -20 -5.75907 9
      vertex -20 -3.80423 1.23607
      vertex -20 -4 0
    endloop
  endfacet
  facet normal -1 0 0
    outer loop
      vertex -20 -5.75907 9
      vertex -20 -3.23607 2.35114
      vertex -20 -3.80423 1.23607
    endloop
  endfacet
  facet normal -1 0 0
    outer loop
      vertex -20 5.75907 9
      vertex -20 -5.75907 9
      vertex -20 8 13.9875
    endloop
  endfacet
  facet normal -1 0 0
    outer loop
      vertex -20 -8 13.9875
      vertex -20 -5.75907 9
      vertex -20 -8 12.8814
    endloop
  endfacet
  facet normal -1 0 0
    outer loop
      vertex -20 -5.75907 9
      vertex -20 -8 13.9875
      vertex -20 8 13.9875
    endloop
  endfacet
  facet normal 0 1 -0
    outer loop
      vertex 0 8 12.8814
      vertex -20 8 13.9875
      vertex 0 8 13.9875
    endloop
  endfacet
  facet normal 0 1 0
    outer loop
      vertex -20 8 13.9875
      vertex 0 8 12.8814
      vertex -20 8 12.8814
    endloop
  endfacet
  facet normal 0 -1 0
    outer loop
      vertex -20 -8 12.8814
      vertex 0 -8 13.9875
      vertex -20 -8 13.9875
    endloop
  endfacet
  facet normal 0 -1 -0
    outer loop
      vertex 0 -8 13.9875
      vertex -20 -8 12.8814
      vertex 0 -8 12.8814
    endloop
  endfacet
  facet normal 0 0 1
    outer loop
      vertex 20 12 9
      vertex 0 5.75907 9
      vertex 20 -12 9
    endloop
  endfacet
  facet normal -0 0 1
    outer loop
      vertex -20 12 9
      vertex 0 5.75907 9
      vertex 20 12 9
    endloop
  endfacet
  facet normal 0 0 1
    outer loop
      vertex 0 5.75907 9
      vertex -20 12 9
      vertex -20 5.75907 9
    endloop
  endfacet
  facet normal -0 0 1
    outer loop
      vertex 0 -5.75907 9
      vertex 20 -12 9
      vertex 0 5.75907 9
    endloop
  endfacet
  facet normal 0 0 1
    outer loop
      vertex -20 -12 9
      vertex 0 -5.75907 9
      vertex -20 -5.75907 9
    endloop
  endfacet
  facet normal 0 0 1
    outer loop
      vertex 0 -5.75907 9
      vertex -20 -12 9
      vertex 20 -12 9
    endloop
  endfacet
  facet normal 1 0 0
    outer loop
      vertex 20 12 9
      vertex 20 10 0
      vertex 20 12 0
    endloop
  endfacet
  facet normal 1 -0 0
    outer loop
      vertex 20 3.80423 -1.23607
      vertex 20 9.51056 -3.09017
      vertex 20 10 0
    endloop
  endfacet
  facet normal 1 -0 0
    outer loop
      vertex 20 3.23607 2.35114
      vertex 20 10 0
      vertex 20 12 9
    endloop
  endfacet
  facet normal 1 0 0
    outer loop
      vertex 20 3.80423 -1.23607
      vertex 20 10 0
      vertex 20 4 0
    endloop
  endfacet
  facet normal 1 0 0
    outer loop
      vertex 20 9.51056 -3.09017
      vertex 20 3.80423 -1.23607
      vertex 20 8.09017 -5.87785
    endloop
  endfacet
  facet normal 1 0 0
    outer loop
      vertex 20 10 0
      vertex 20 3.80423 1.23607
      vertex 20 4 0
    endloop
  endfacet
  facet normal 1 0 0
    outer loop
      vertex 20 10 0
      vertex 20 3.23607 2.35114
      vertex 20 3.80423 1.23607
    endloop
  endfacet
  facet normal 1 0 0
    outer loop
      vertex 20 12 9
      vertex 20 2.35114 3.23607
      vertex 20 3.23607 2.35114
    endloop
  endfacet
  facet normal 1 0 0
    outer loop
      vertex 20 12 9
      vertex 20 1.23607 3.80423
      vertex 20 2.35114 3.23607
    endloop
  endfacet
  facet normal 1 0 0
    outer loop
      vertex 20 12 9
      vertex 20 0 4
      vertex 20 1.23607 3.80423
    endloop
  endfacet
  facet normal 1 -0 0
    outer loop
      vertex 20 -12 9
      vertex 20 0 4
      vertex 20 12 9
    endloop
  endfacet
  facet normal 1 0 0
    outer loop
      vertex 20 -10 0
      vertex 20 -4 0
      vertex 20 -3.80423 1.23607
    endloop
  endfacet
  facet normal 1 0 0
    outer loop
      vertex 20 -4 0
      vertex 20 -8.09017 -5.87785
      vertex 20 -5.87785 -8.09017
    endloop
  endfacet
  facet normal 1 0 0
    outer loop
      vertex 20 -10 0
      vertex 20 -3.80423 1.23607
      vertex 20 -3.23607 2.35114
    endloop
  endfacet
  facet normal 1 0 0
    outer loop
      vertex 20 -4 0
      vertex 20 -9.51056 -3.09017
      vertex 20 -8.09017 -5.87785
    endloop
  endfacet
  facet normal 1 0 0
    outer loop
      vertex 20 -12 9
      vertex 20 -3.23607 2.35114
      vertex 20 -2.35114 3.23607
    endloop
  endfacet
  facet normal 1 0 0
    outer loop
      vertex 20 -4 0
      vertex 20 -10 0
      vertex 20 -9.51056 -3.09017
    endloop
  endfacet
  facet normal 1 0 0
    outer loop
      vertex 20 -12 9
      vertex 20 -2.35114 3.23607
      vertex 20 -1.23607 3.80423
    endloop
  endfacet
  facet normal 1 0 0
    outer loop
      vertex 20 0 4
      vertex 20 -12 9
      vertex 20 -1.23607 3.80423
    endloop
  endfacet
  facet normal 1 0 0
    outer loop
      vertex 20 -3.23607 2.35114
      vertex 20 -12 9
      vertex 20 -10 0
    endloop
  endfacet
  facet normal 1 0 0
    outer loop
      vertex 20 -10 0
      vertex 20 -12 9
      vertex 20 -12 0
    endloop
  endfacet
  facet normal 1 -0 0
    outer loop
      vertex 20 3.23607 -2.35114
      vertex 20 8.09017 -5.87785
      vertex 20 3.80423 -1.23607
    endloop
  endfacet
  facet normal 1 0 0
    outer loop
      vertex 20 8.09017 -5.87785
      vertex 20 3.23607 -2.35114
      vertex 20 5.87785 -8.09017
    endloop
  endfacet
  facet normal 1 -0 0
    outer loop
      vertex 20 2.35114 -3.23607
      vertex 20 5.87785 -8.09017
      vertex 20 3.23607 -2.35114
    endloop
  endfacet
  facet normal 1 0 0
    outer loop
      vertex 20 5.87785 -8.09017
      vertex 20 2.35114 -3.23607
      vertex 20 3.09017 -9.51056
    endloop
  endfacet
  facet normal 1 -0 0
    outer loop
      vertex 20 1.23607 -3.80423
      vertex 20 3.09017 -9.51056
      vertex 20 2.35114 -3.23607
    endloop
  endfacet
  facet normal 1 -0 0
    outer loop
      vertex 20 0 -4
      vertex 20 3.09017 -9.51056
      vertex 20 1.23607 -3.80423
    endloop
  endfacet
  facet normal 1 0 0
    outer loop
      vertex 20 0 -4
      vertex 20 0 -10
      vertex 20 3.09017 -9.51056
    endloop
  endfacet
  facet normal 1 0 0
    outer loop
      vertex 20 -1.23607 -3.80423
      vertex 20 0 -10
      vertex 20 0 -4
    endloop
  endfacet
  facet normal 1 0 0
    outer loop
      vertex 20 -3.09017 -9.51056
      vertex 20 -1.23607 -3.80423
      vertex 20 -2.35114 -3.23607
    endloop
  endfacet
  facet normal 1 0 0
    outer loop
      vertex 20 -1.23607 -3.80423
      vertex 20 -3.09017 -9.51056
      vertex 20 0 -10
    endloop
  endfacet
  facet normal 1 0 0
    outer loop
      vertex 20 -5.87785 -8.09017
      vertex 20 -2.35114 -3.23607
      vertex 20 -3.23607 -2.35114
    endloop
  endfacet
  facet normal 1 0 0
    outer loop
      vertex 20 -5.87785 -8.09017
      vertex 20 -3.23607 -2.35114
      vertex 20 -3.80423 -1.23607
    endloop
  endfacet
  facet normal 1 0 0
    outer loop
      vertex 20 -5.87785 -8.09017
      vertex 20 -3.80423 -1.23607
      vertex 20 -4 0
    endloop
  endfacet
  facet normal 1 0 0
    outer loop
      vertex 20 -2.35114 -3.23607
      vertex 20 -5.87785 -8.09017
      vertex 20 -3.09017 -9.51056
    endloop
  endfacet
  facet normal 1 -0 0
    outer loop
      vertex 20 11.4127 -6.7082
      vertex 20 12 -15
      vertex 20 12 -3
    endloop
  endfacet
  facet normal 1 -0 0
    outer loop
      vertex 20 9.7082 -10.0534
      vertex 20 12 -15
      vertex 20 11.4127 -6.7082
    endloop
  endfacet
  facet normal 1 -0 0
    outer loop
      vertex 20 7.05342 -12.7082
      vertex 20 12 -15
      vertex 20 9.7082 -10.0534
    endloop
  endfacet
  facet normal 1 -0 0
    outer loop
      vertex 20 3.7082 -14.4127
      vertex 20 12 -15
      vertex 20 7.05342 -12.7082
    endloop
  endfacet
  facet normal 1 0 0
    outer loop
      vertex 20 12 -15
      vertex 20 3.7082 -14.4127
      vertex 20 0 -15
    endloop
  endfacet
  facet normal 1 0 0
    outer loop
      vertex 20 -3.7082 -14.4127
      vertex 20 -12 -15
      vertex 20 0 -15
    endloop
  endfacet
  facet normal 1 0 0
    outer loop
      vertex 20 -7.05342 -12.7082
      vertex 20 -12 -15
      vertex 20 -3.7082 -14.4127
    endloop
  endfacet
  facet normal 1 0 0
    outer loop
      vertex 20 -9.7082 -10.0534
      vertex 20 -12 -15
      vertex 20 -7.05342 -12.7082
    endloop
  endfacet
  facet normal 1 0 0
    outer loop
      vertex 20 -11.4127 -6.7082
      vertex 20 -12 -15
      vertex 20 -9.7082 -10.0534
    endloop
  endfacet
  facet normal 1 0 0
    outer loop
      vertex 20 -12 -15
      vertex 20 -11.4127 -6.7082
      vertex 20 -12 -3
    endloop
  endfacet
  facet normal 0 0 -1
    outer loop
      vertex -20 -12 -15
      vertex 20 0 -15
      vertex 20 -12 -15
    endloop
  endfacet
  facet normal 0 0 -1
    outer loop
      vertex -20 12 -15
      vertex 20 0 -15
      vertex -20 -12 -15
    endloop
  endfacet
  facet normal 0 0 -1
    outer loop
      vertex 20 0 -15
      vertex -20 12 -15
      vertex 20 12 -15
    endloop
  endfacet
  facet normal 0 1 0
    outer loop
      vertex 22.5 12 0
      vertex 20.05 12 -3
      vertex 20 12 0
    endloop
  endfacet
  facet normal 0 1 -0
    outer loop
      vertex 20 12 0
      vertex -20 12 9
      vertex 20 12 9
    endloop
  endfacet
  facet normal 0 1 0
    outer loop
      vertex 20 12 -3
      vertex 20 12 0
      vertex 20.05 12 -3
    endloop
  endfacet
  facet normal 0 1 0
    outer loop
      vertex 20 12 0
      vertex 20 12 -3
      vertex -20 12 9
    endloop
  endfacet
  facet normal 0 1 0
    outer loop
      vertex -20 12 -15
      vertex 20 12 -3
      vertex 20 12 -15
    endloop
  endfacet
  facet normal 0 1 0
    outer loop
      vertex 20 12 -3
      vertex -20 12 -15
      vertex -20 12 9
    endloop
  endfacet
  facet normal 0 -1 0
    outer loop
      vertex -20 -12 9
      vertex 20 -12 0
      vertex 20 -12 9
    endloop
  endfacet
  facet normal 0 -1 0
    outer loop
      vertex 20.05 -12 -3
      vertex 20 -12 0
      vertex 20 -12 -3
    endloop
  endfacet
  facet normal 0 -1 0
    outer loop
      vertex -20 -12 9
      vertex 20 -12 -3
      vertex 20 -12 0
    endloop
  endfacet
  facet normal 0 -1 0
    outer loop
      vertex -20 -12 -15
      vertex 20 -12 -3
      vertex -20 -12 9
    endloop
  endfacet
  facet normal 0 -1 -0
    outer loop
      vertex 20 -12 -3
      vertex -20 -12 -15
      vertex 20 -12 -15
    endloop
  endfacet
  facet normal 0 -1 0
    outer loop
      vertex 20 -12 0
      vertex 20.05 -12 -3
      vertex 22.5 -12 0
    endloop
  endfacet
  facet normal 0 -0.156429 -0.987689
    outer loop
      vertex 20 -3.7082 -14.4127
      vertex 20.05 0 -15
      vertex 20.05 -3.7082 -14.4127
    endloop
  endfacet
  facet normal -0 -0.156429 -0.987689
    outer loop
      vertex 20.05 0 -15
      vertex 20 -3.7082 -14.4127
      vertex 20 0 -15
    endloop
  endfacet
  facet normal 0 0.156429 -0.987689
    outer loop
      vertex 20 0 -15
      vertex 20.05 3.7082 -14.4127
      vertex 20.05 0 -15
    endloop
  endfacet
  facet normal 0 0.156429 -0.987689
    outer loop
      vertex 20.05 3.7082 -14.4127
      vertex 20 0 -15
      vertex 20 3.7082 -14.4127
    endloop
  endfacet
  facet normal 0 -0.891003 -0.453998
    outer loop
      vertex 20 -9.7082 -10.0534
      vertex 20.05 -11.4127 -6.7082
      vertex 20 -11.4127 -6.7082
    endloop
  endfacet
  facet normal 0 -0.891003 -0.453998
    outer loop
      vertex 20.05 -11.4127 -6.7082
      vertex 20 -9.7082 -10.0534
      vertex 20.05 -9.7082 -10.0534
    endloop
  endfacet
  facet normal 0 0.707109 -0.707104
    outer loop
      vertex 20.05 7.05342 -12.7082
      vertex 20 9.7082 -10.0534
      vertex 20.05 9.7082 -10.0534
    endloop
  endfacet
  facet normal 0 0.707109 -0.707104
    outer loop
      vertex 20 9.7082 -10.0534
      vertex 20.05 7.05342 -12.7082
      vertex 20 7.05342 -12.7082
    endloop
  endfacet
  facet normal 0.188126 0.970054 -0.153636
    outer loop
      vertex 22.5 11.4127 -3.7082
      vertex 20.05 12 -3
      vertex 22.5 12 0
    endloop
  endfacet
  facet normal 0.188126 0.970054 -0.153636
    outer loop
      vertex 20.05 12 -3
      vertex 22.5 11.4127 -3.7082
      vertex 20.05 11.4127 -6.7082
    endloop
  endfacet
  facet normal 0 0.891003 -0.453998
    outer loop
      vertex 20.05 9.7082 -10.0534
      vertex 20 11.4127 -6.7082
      vertex 20.05 11.4127 -6.7082
    endloop
  endfacet
  facet normal 0 0.891003 -0.453998
    outer loop
      vertex 20 11.4127 -6.7082
      vertex 20.05 9.7082 -10.0534
      vertex 20 9.7082 -10.0534
    endloop
  endfacet
  facet normal 0.654573 0.534572 -0.534572
    outer loop
      vertex 22.5 7.05342 -9.7082
      vertex 20.05 9.7082 -10.0534
      vertex 22.5 9.7082 -7.05342
    endloop
  endfacet
  facet normal 0.654574 0.534573 -0.534569
    outer loop
      vertex 20.05 9.7082 -10.0534
      vertex 22.5 7.05342 -9.7082
      vertex 20.05 7.05342 -12.7082
    endloop
  endfacet
  facet normal 0.485882 0.778759 -0.396803
    outer loop
      vertex 22.5 9.7082 -7.05342
      vertex 20.05 11.4127 -6.7082
      vertex 22.5 11.4127 -3.7082
    endloop
  endfacet
  facet normal 0.485881 0.778759 -0.396806
    outer loop
      vertex 20.05 11.4127 -6.7082
      vertex 22.5 9.7082 -7.05342
      vertex 20.05 9.7082 -10.0534
    endloop
  endfacet
  facet normal 0 -0.987689 -0.156429
    outer loop
      vertex 20 -11.4127 -6.7082
      vertex 20.05 -12 -3
      vertex 20 -12 -3
    endloop
  endfacet
  facet normal 0 -0.987689 -0.156429
    outer loop
      vertex 20.05 -12 -3
      vertex 20 -11.4127 -6.7082
      vertex 20.05 -11.4127 -6.7082
    endloop
  endfacet
  facet normal 0.770675 -0.0996811 -0.629384
    outer loop
      vertex 20.05 -3.7082 -14.4127
      vertex 22.5 0 -12
      vertex 22.5 -3.7082 -11.4127
    endloop
  endfacet
  facet normal 0.770675 -0.0996811 -0.629384
    outer loop
      vertex 22.5 0 -12
      vertex 20.05 -3.7082 -14.4127
      vertex 20.05 0 -15
    endloop
  endfacet
  facet normal 0 0.453996 -0.891004
    outer loop
      vertex 20 3.7082 -14.4127
      vertex 20.05 7.05342 -12.7082
      vertex 20.05 3.7082 -14.4127
    endloop
  endfacet
  facet normal 0 0.453996 -0.891004
    outer loop
      vertex 20.05 7.05342 -12.7082
      vertex 20 3.7082 -14.4127
      vertex 20 7.05342 -12.7082
    endloop
  endfacet
  facet normal 0.770675 0.0996811 -0.629384
    outer loop
      vertex 22.5 0 -12
      vertex 20.05 3.7082 -14.4127
      vertex 22.5 3.7082 -11.4127
    endloop
  endfacet
  facet normal 0.770675 0.0996811 -0.629384
    outer loop
      vertex 20.05 3.7082 -14.4127
      vertex 22.5 0 -12
      vertex 20.05 0 -15
    endloop
  endfacet
  facet normal 0.73719 0.306758 -0.602038
    outer loop
      vertex 22.5 3.7082 -11.4127
      vertex 20.05 7.05342 -12.7082
      vertex 22.5 7.05342 -9.7082
    endloop
  endfacet
  facet normal 0.73719 0.306758 -0.602038
    outer loop
      vertex 20.05 7.05342 -12.7082
      vertex 22.5 3.7082 -11.4127
      vertex 20.05 3.7082 -14.4127
    endloop
  endfacet
  facet normal 0.485882 -0.778759 -0.396803
    outer loop
      vertex 20.05 -11.4127 -6.7082
      vertex 22.5 -9.7082 -7.05342
      vertex 22.5 -11.4127 -3.7082
    endloop
  endfacet
  facet normal 0.485881 -0.778759 -0.396806
    outer loop
      vertex 22.5 -9.7082 -7.05342
      vertex 20.05 -11.4127 -6.7082
      vertex 20.05 -9.7082 -10.0534
    endloop
  endfacet
  facet normal 1 -0 0
    outer loop
      vertex 22.5 7.60845 -2.47214
      vertex 22.5 11.4127 -3.7082
      vertex 22.5 12 0
    endloop
  endfacet
  facet normal 1 0 0
    outer loop
      vertex 22.5 7.60845 -2.47214
      vertex 22.5 12 0
      vertex 22.5 8 0
    endloop
  endfacet
  facet normal 1 0 0
    outer loop
      vertex 22.5 11.4127 -3.7082
      vertex 22.5 7.60845 -2.47214
      vertex 22.5 9.7082 -7.05342
    endloop
  endfacet
  facet normal 1 -0 0
    outer loop
      vertex 22.5 6.47214 -4.70228
      vertex 22.5 9.7082 -7.05342
      vertex 22.5 7.60845 -2.47214
    endloop
  endfacet
  facet normal 1 0 0
    outer loop
      vertex 22.5 9.7082 -7.05342
      vertex 22.5 6.47214 -4.70228
      vertex 22.5 7.05342 -9.7082
    endloop
  endfacet
  facet normal 1 -0 0
    outer loop
      vertex 22.5 4.70228 -6.47214
      vertex 22.5 7.05342 -9.7082
      vertex 22.5 6.47214 -4.70228
    endloop
  endfacet
  facet normal 1 0 0
    outer loop
      vertex 22.5 4.70228 -6.47214
      vertex 22.5 3.7082 -11.4127
      vertex 22.5 7.05342 -9.7082
    endloop
  endfacet
  facet normal 1 -0 0
    outer loop
      vertex 22.5 2.47214 -7.60845
      vertex 22.5 3.7082 -11.4127
      vertex 22.5 4.70228 -6.47214
    endloop
  endfacet
  facet normal 1 -0 0
    outer loop
      vertex 22.5 0 -8
      vertex 22.5 3.7082 -11.4127
      vertex 22.5 2.47214 -7.60845
    endloop
  endfacet
  facet normal 1 0 0
    outer loop
      vertex 22.5 0 -8
      vertex 22.5 0 -12
      vertex 22.5 3.7082 -11.4127
    endloop
  endfacet
  facet normal 1 0 0
    outer loop
      vertex 22.5 -2.47214 -7.60845
      vertex 22.5 0 -12
      vertex 22.5 0 -8
    endloop
  endfacet
  facet normal 1 0 0
    outer loop
      vertex 22.5 -2.47214 -7.60845
      vertex 22.5 -3.7082 -11.4127
      vertex 22.5 0 -12
    endloop
  endfacet
  facet normal 1 0 0
    outer loop
      vertex 22.5 -4.70228 -6.47214
      vertex 22.5 -3.7082 -11.4127
      vertex 22.5 -2.47214 -7.60845
    endloop
  endfacet
  facet normal 1 0 0
    outer loop
      vertex 22.5 -7.05342 -9.7082
      vertex 22.5 -4.70228 -6.47214
      vertex 22.5 -6.47214 -4.70228
    endloop
  endfacet
  facet normal 1 0 0
    outer loop
      vertex 22.5 -4.70228 -6.47214
      vertex 22.5 -7.05342 -9.7082
      vertex 22.5 -3.7082 -11.4127
    endloop
  endfacet
  facet normal 1 0 0
    outer loop
      vertex 22.5 -9.7082 -7.05342
      vertex 22.5 -6.47214 -4.70228
      vertex 22.5 -7.60845 -2.47214
    endloop
  endfacet
  facet normal 1 0 0
    outer loop
      vertex 22.5 -11.4127 -3.7082
      vertex 22.5 -7.60845 -2.47214
      vertex 22.5 -8 0
    endloop
  endfacet
  facet normal 1 0 0
    outer loop
      vertex 22.5 -6.47214 -4.70228
      vertex 22.5 -9.7082 -7.05342
      vertex 22.5 -7.05342 -9.7082
    endloop
  endfacet
  facet normal 1 0 0
    outer loop
      vertex 22.5 -7.60845 -2.47214
      vertex 22.5 -11.4127 -3.7082
      vertex 22.5 -9.7082 -7.05342
    endloop
  endfacet
  facet normal 1 0 -0
    outer loop
      vertex 22.5 -11.4127 -3.7082
      vertex 22.5 -8 0
      vertex 22.5 -12 0
    endloop
  endfacet
  facet normal 0 -0.707109 -0.707104
    outer loop
      vertex 20 -7.05342 -12.7082
      vertex 20.05 -9.7082 -10.0534
      vertex 20 -9.7082 -10.0534
    endloop
  endfacet
  facet normal 0 -0.707109 -0.707104
    outer loop
      vertex 20.05 -9.7082 -10.0534
      vertex 20 -7.05342 -12.7082
      vertex 20.05 -7.05342 -12.7082
    endloop
  endfacet
  facet normal 0 -0.453996 -0.891004
    outer loop
      vertex 20 -7.05342 -12.7082
      vertex 20.05 -3.7082 -14.4127
      vertex 20.05 -7.05342 -12.7082
    endloop
  endfacet
  facet normal -0 -0.453996 -0.891004
    outer loop
      vertex 20.05 -3.7082 -14.4127
      vertex 20 -7.05342 -12.7082
      vertex 20 -3.7082 -14.4127
    endloop
  endfacet
  facet normal 0 0.987689 -0.156429
    outer loop
      vertex 20.05 11.4127 -6.7082
      vertex 20 12 -3
      vertex 20.05 12 -3
    endloop
  endfacet
  facet normal 0 0.987689 -0.156429
    outer loop
      vertex 20 12 -3
      vertex 20.05 11.4127 -6.7082
      vertex 20 11.4127 -6.7082
    endloop
  endfacet
  facet normal 0.188126 -0.970054 -0.153636
    outer loop
      vertex 20.05 -12 -3
      vertex 22.5 -11.4127 -3.7082
      vertex 22.5 -12 0
    endloop
  endfacet
  facet normal 0.188126 -0.970054 -0.153636
    outer loop
      vertex 22.5 -11.4127 -3.7082
      vertex 20.05 -12 -3
      vertex 20.05 -11.4127 -6.7082
    endloop
  endfacet
  facet normal 0.73719 -0.306758 -0.602038
    outer loop
      vertex 20.05 -7.05342 -12.7082
      vertex 22.5 -3.7082 -11.4127
      vertex 22.5 -7.05342 -9.7082
    endloop
  endfacet
  facet normal 0.73719 -0.306758 -0.602038
    outer loop
      vertex 22.5 -3.7082 -11.4127
      vertex 20.05 -7.05342 -12.7082
      vertex 20.05 -3.7082 -14.4127
    endloop
  endfacet
  facet normal 0.654573 -0.534572 -0.534572
    outer loop
      vertex 20.05 -9.7082 -10.0534
      vertex 22.5 -7.05342 -9.7082
      vertex 22.5 -9.7082 -7.05342
    endloop
  endfacet
  facet normal 0.654574 -0.534573 -0.534569
    outer loop
      vertex 22.5 -7.05342 -9.7082
      vertex 20.05 -9.7082 -10.0534
      vertex 20.05 -7.05342 -12.7082
    endloop
  endfacet
  facet normal 0 -0.45399 0.891007
    outer loop
      vertex 20 5.87785 -8.09017
      vertex 21.5 3.09017 -9.51056
      vertex 21.5 5.87785 -8.09017
    endloop
  endfacet
  facet normal 0 -0.45399 0.891007
    outer loop
      vertex 21.5 3.09017 -9.51056
      vertex 20 5.87785 -8.09017
      vertex 20 3.09017 -9.51056
    endloop
  endfacet
  facet normal 0 -0.156436 0.987688
    outer loop
      vertex 20 3.09017 -9.51056
      vertex 21.5 0 -10
      vertex 21.5 3.09017 -9.51056
    endloop
  endfacet
  facet normal 0 -0.156436 0.987688
    outer loop
      vertex 21.5 0 -10
      vertex 20 3.09017 -9.51056
      vertex 20 0 -10
    endloop
  endfacet
  facet normal 0 -0.707107 0.707107
    outer loop
      vertex 20 5.87785 -8.09017
      vertex 21.5 8.09017 -5.87785
      vertex 20 8.09017 -5.87785
    endloop
  endfacet
  facet normal 0 -0.707107 0.707107
    outer loop
      vertex 21.5 8.09017 -5.87785
      vertex 20 5.87785 -8.09017
      vertex 21.5 5.87785 -8.09017
    endloop
  endfacet
  facet normal 0 -0.987688 0.156436
    outer loop
      vertex 20 9.51056 -3.09017
      vertex 21.5 10 0
      vertex 20 10 0
    endloop
  endfacet
  facet normal 0 -0.987688 0.156436
    outer loop
      vertex 21.5 10 0
      vertex 20 9.51056 -3.09017
      vertex 21.5 9.51056 -3.09017
    endloop
  endfacet
  facet normal 0 -0.891007 0.45399
    outer loop
      vertex 20 8.09017 -5.87785
      vertex 21.5 9.51056 -3.09017
      vertex 20 9.51056 -3.09017
    endloop
  endfacet
  facet normal 0 -0.891007 0.45399
    outer loop
      vertex 21.5 9.51056 -3.09017
      vertex 20 8.09017 -5.87785
      vertex 21.5 8.09017 -5.87785
    endloop
  endfacet
  facet normal 0 0.707107 0.707107
    outer loop
      vertex 21.5 -5.87785 -8.09017
      vertex 20 -8.09017 -5.87785
      vertex 21.5 -8.09017 -5.87785
    endloop
  endfacet
  facet normal 0 0.707107 0.707107
    outer loop
      vertex 20 -8.09017 -5.87785
      vertex 21.5 -5.87785 -8.09017
      vertex 20 -5.87785 -8.09017
    endloop
  endfacet
  facet normal 0 0.891007 0.45399
    outer loop
      vertex 21.5 -8.09017 -5.87785
      vertex 20 -9.51056 -3.09017
      vertex 21.5 -9.51056 -3.09017
    endloop
  endfacet
  facet normal 0 0.891007 0.45399
    outer loop
      vertex 20 -9.51056 -3.09017
      vertex 21.5 -8.09017 -5.87785
      vertex 20 -8.09017 -5.87785
    endloop
  endfacet
  facet normal 0 0.987688 0.156436
    outer loop
      vertex 21.5 -9.51056 -3.09017
      vertex 20 -10 0
      vertex 21.5 -10 0
    endloop
  endfacet
  facet normal 0 0.987688 0.156436
    outer loop
      vertex 20 -10 0
      vertex 21.5 -9.51056 -3.09017
      vertex 20 -9.51056 -3.09017
    endloop
  endfacet
  facet normal -1 0 0
    outer loop
      vertex 21.5 7.60845 -2.47214
      vertex 21.5 9.51056 -3.09017
      vertex 21.5 8.09017 -5.87785
    endloop
  endfacet
  facet normal -1 0 0
    outer loop
      vertex 21.5 9.51056 -3.09017
      vertex 21.5 7.60845 -2.47214
      vertex 21.5 10 0
    endloop
  endfacet
  facet normal -1 -0 0
    outer loop
      vertex 21.5 10 0
      vertex 21.5 7.60845 -2.47214
      vertex 21.5 8 0
    endloop
  endfacet
  facet normal -1 0 0
    outer loop
      vertex 21.5 8.09017 -5.87785
      vertex 21.5 6.47214 -4.70228
      vertex 21.5 7.60845 -2.47214
    endloop
  endfacet
  facet normal -1 0 0
    outer loop
      vertex 21.5 5.87785 -8.09017
      vertex 21.5 6.47214 -4.70228
      vertex 21.5 8.09017 -5.87785
    endloop
  endfacet
  facet normal -1 0 0
    outer loop
      vertex 21.5 5.87785 -8.09017
      vertex 21.5 4.70228 -6.47214
      vertex 21.5 6.47214 -4.70228
    endloop
  endfacet
  facet normal -1 0 0
    outer loop
      vertex 21.5 3.09017 -9.51056
      vertex 21.5 4.70228 -6.47214
      vertex 21.5 5.87785 -8.09017
    endloop
  endfacet
  facet normal -1 0 0
    outer loop
      vertex 21.5 3.09017 -9.51056
      vertex 21.5 2.47214 -7.60845
      vertex 21.5 4.70228 -6.47214
    endloop
  endfacet
  facet normal -1 0 0
    outer loop
      vertex 21.5 0 -10
      vertex 21.5 2.47214 -7.60845
      vertex 21.5 3.09017 -9.51056
    endloop
  endfacet
  facet normal -1 0 0
    outer loop
      vertex 21.5 0 -10
      vertex 21.5 0 -8
      vertex 21.5 2.47214 -7.60845
    endloop
  endfacet
  facet normal -1 0 0
    outer loop
      vertex 21.5 0 -10
      vertex 21.5 -2.47214 -7.60845
      vertex 21.5 0 -8
    endloop
  endfacet
  facet normal -1 0 0
    outer loop
      vertex 21.5 -3.09017 -9.51056
      vertex 21.5 -2.47214 -7.60845
      vertex 21.5 0 -10
    endloop
  endfacet
  facet normal -1 0 0
    outer loop
      vertex 21.5 -3.09017 -9.51056
      vertex 21.5 -4.70228 -6.47214
      vertex 21.5 -2.47214 -7.60845
    endloop
  endfacet
  facet normal -1 0 0
    outer loop
      vertex 21.5 -5.87785 -8.09017
      vertex 21.5 -4.70228 -6.47214
      vertex 21.5 -3.09017 -9.51056
    endloop
  endfacet
  facet normal -1 0 0
    outer loop
      vertex 21.5 -5.87785 -8.09017
      vertex 21.5 -6.47214 -4.70228
      vertex 21.5 -4.70228 -6.47214
    endloop
  endfacet
  facet normal -1 0 0
    outer loop
      vertex 21.5 -8.09017 -5.87785
      vertex 21.5 -6.47214 -4.70228
      vertex 21.5 -5.87785 -8.09017
    endloop
  endfacet
  facet normal -1 -0 0
    outer loop
      vertex 21.5 -6.47214 -4.70228
      vertex 21.5 -8.09017 -5.87785
      vertex 21.5 -7.60845 -2.47214
    endloop
  endfacet
  facet normal -1 0 0
    outer loop
      vertex 21.5 -9.51056 -3.09017
      vertex 21.5 -7.60845 -2.47214
      vertex 21.5 -8.09017 -5.87785
    endloop
  endfacet
  facet normal -1 -0 0
    outer loop
      vertex 21.5 -7.60845 -2.47214
      vertex 21.5 -9.51056 -3.09017
      vertex 21.5 -8 0
    endloop
  endfacet
  facet normal -1 -0 0
    outer loop
      vertex 21.5 -8 0
      vertex 21.5 -9.51056 -3.09017
      vertex 21.5 -10 0
    endloop
  endfacet
  facet normal -0 0.45399 0.891007
    outer loop
      vertex 20 -3.09017 -9.51056
      vertex 21.5 -5.87785 -8.09017
      vertex 21.5 -3.09017 -9.51056
    endloop
  endfacet
  facet normal 0 0.45399 0.891007
    outer loop
      vertex 21.5 -5.87785 -8.09017
      vertex 20 -3.09017 -9.51056
      vertex 20 -5.87785 -8.09017
    endloop
  endfacet
  facet normal -0 0.156436 0.987688
    outer loop
      vertex 20 0 -10
      vertex 21.5 -3.09017 -9.51056
      vertex 21.5 0 -10
    endloop
  endfacet
  facet normal 0 0.156436 0.987688
    outer loop
      vertex 21.5 -3.09017 -9.51056
      vertex 20 0 -10
      vertex 20 -3.09017 -9.51056
    endloop
  endfacet
  facet normal 0 -0.45399 0.891007
    outer loop
      vertex 21.5 4.70228 -6.47214
      vertex 22.5 2.47214 -7.60845
      vertex 22.5 4.70228 -6.47214
    endloop
  endfacet
  facet normal 0 -0.45399 0.891007
    outer loop
      vertex 22.5 2.47214 -7.60845
      vertex 21.5 4.70228 -6.47214
      vertex 21.5 2.47214 -7.60845
    endloop
  endfacet
  facet normal 0 -0.156435 0.987688
    outer loop
      vertex 21.5 2.47214 -7.60845
      vertex 22.5 0 -8
      vertex 22.5 2.47214 -7.60845
    endloop
  endfacet
  facet normal 0 -0.156435 0.987688
    outer loop
      vertex 22.5 0 -8
      vertex 21.5 2.47214 -7.60845
      vertex 21.5 0 -8
    endloop
  endfacet
  facet normal 0 -0.707107 0.707107
    outer loop
      vertex 21.5 4.70228 -6.47214
      vertex 22.5 6.47214 -4.70228
      vertex 21.5 6.47214 -4.70228
    endloop
  endfacet
  facet normal 0 -0.707107 0.707107
    outer loop
      vertex 22.5 6.47214 -4.70228
      vertex 21.5 4.70228 -6.47214
      vertex 22.5 4.70228 -6.47214
    endloop
  endfacet
  facet normal 0 -0.987688 0.156435
    outer loop
      vertex 21.5 7.60845 -2.47214
      vertex 22.5 8 0
      vertex 21.5 8 0
    endloop
  endfacet
  facet normal 0 -0.987688 0.156435
    outer loop
      vertex 22.5 8 0
      vertex 21.5 7.60845 -2.47214
      vertex 22.5 7.60845 -2.47214
    endloop
  endfacet
  facet normal 0 -0.891007 0.45399
    outer loop
      vertex 21.5 6.47214 -4.70228
      vertex 22.5 7.60845 -2.47214
      vertex 21.5 7.60845 -2.47214
    endloop
  endfacet
  facet normal 0 -0.891007 0.45399
    outer loop
      vertex 22.5 7.60845 -2.47214
      vertex 21.5 6.47214 -4.70228
      vertex 22.5 6.47214 -4.70228
    endloop
  endfacet
  facet normal 0 0.707107 0.707107
    outer loop
      vertex 22.5 -4.70228 -6.47214
      vertex 21.5 -6.47214 -4.70228
      vertex 22.5 -6.47214 -4.70228
    endloop
  endfacet
  facet normal 0 0.707107 0.707107
    outer loop
      vertex 21.5 -6.47214 -4.70228
      vertex 22.5 -4.70228 -6.47214
      vertex 21.5 -4.70228 -6.47214
    endloop
  endfacet
  facet normal 0 0.891007 0.45399
    outer loop
      vertex 22.5 -6.47214 -4.70228
      vertex 21.5 -7.60845 -2.47214
      vertex 22.5 -7.60845 -2.47214
    endloop
  endfacet
  facet normal 0 0.891007 0.45399
    outer loop
      vertex 21.5 -7.60845 -2.47214
      vertex 22.5 -6.47214 -4.70228
      vertex 21.5 -6.47214 -4.70228
    endloop
  endfacet
  facet normal 0 0.987688 0.156435
    outer loop
      vertex 22.5 -7.60845 -2.47214
      vertex 21.5 -8 0
      vertex 22.5 -8 0
    endloop
  endfacet
  facet normal 0 0.987688 0.156435
    outer loop
      vertex 21.5 -8 0
      vertex 22.5 -7.60845 -2.47214
      vertex 21.5 -7.60845 -2.47214
    endloop
  endfacet
  facet normal -0 0.45399 0.891007
    outer loop
      vertex 21.5 -2.47214 -7.60845
      vertex 22.5 -4.70228 -6.47214
      vertex 22.5 -2.47214 -7.60845
    endloop
  endfacet
  facet normal 0 0.45399 0.891007
    outer loop
      vertex 22.5 -4.70228 -6.47214
      vertex 21.5 -2.47214 -7.60845
      vertex 21.5 -4.70228 -6.47214
    endloop
  endfacet
  facet normal -0 0.156435 0.987688
    outer loop
      vertex 21.5 0 -8
      vertex 22.5 -2.47214 -7.60845
      vertex 22.5 0 -8
    endloop
  endfacet
  facet normal 0 0.156435 0.987688
    outer loop
      vertex 22.5 -2.47214 -7.60845
      vertex 21.5 0 -8
      vertex 21.5 -2.47214 -7.60845
    endloop
  endfacet
  facet normal 0 0 1
    outer loop
      vertex 21.5 -10 0
      vertex 22.5 -8 0
      vertex 21.5 -8 0
    endloop
  endfacet
  facet normal 0 0 1
    outer loop
      vertex 22.5 -8 0
      vertex 21.5 -10 0
      vertex 22.5 -12 0
    endloop
  endfacet
  facet normal 0 0 1
    outer loop
      vertex 20 -12 0
      vertex 21.5 -10 0
      vertex 20 -10 0
    endloop
  endfacet
  facet normal 0 0 1
    outer loop
      vertex 21.5 -10 0
      vertex 20 -12 0
      vertex 22.5 -12 0
    endloop
  endfacet
  facet normal 0 0 1
    outer loop
      vertex 22.5 12 0
      vertex 21.5 10 0
      vertex 22.5 8 0
    endloop
  endfacet
  facet normal -0 0 1
    outer loop
      vertex 20 12 0
      vertex 21.5 10 0
      vertex 22.5 12 0
    endloop
  endfacet
  facet normal 0 0 1
    outer loop
      vertex 21.5 10 0
      vertex 20 12 0
      vertex 20 10 0
    endloop
  endfacet
  facet normal 0 0 1
    outer loop
      vertex 22.5 8 0
      vertex 21.5 10 0
      vertex 21.5 8 0
    endloop
  endfacet
  facet normal 0 -0.707107 0.707107
    outer loop
      vertex -20 2.35114 -3.23607
      vertex 20 3.23607 -2.35114
      vertex -20 3.23607 -2.35114
    endloop
  endfacet
  facet normal 0 -0.707107 0.707107
    outer loop
      vertex 20 3.23607 -2.35114
      vertex -20 2.35114 -3.23607
      vertex 20 2.35114 -3.23607
    endloop
  endfacet
  facet normal 0 -0.156431 0.987689
    outer loop
      vertex -20 1.23607 -3.80423
      vertex 20 0 -4
      vertex 20 1.23607 -3.80423
    endloop
  endfacet
  facet normal 0 -0.156431 0.987689
    outer loop
      vertex 20 0 -4
      vertex -20 1.23607 -3.80423
      vertex -20 0 -4
    endloop
  endfacet
  facet normal 0 0.707107 -0.707107
    outer loop
      vertex 20 -3.23607 2.35114
      vertex -20 -2.35114 3.23607
      vertex 20 -2.35114 3.23607
    endloop
  endfacet
  facet normal 0 0.707107 -0.707107
    outer loop
      vertex -20 -2.35114 3.23607
      vertex 20 -3.23607 2.35114
      vertex -20 -3.23607 2.35114
    endloop
  endfacet
  facet normal 0 -0.156431 -0.987689
    outer loop
      vertex -20 0 4
      vertex 20 1.23607 3.80423
      vertex 20 0 4
    endloop
  endfacet
  facet normal -0 -0.156431 -0.987689
    outer loop
      vertex 20 1.23607 3.80423
      vertex -20 0 4
      vertex -20 1.23607 3.80423
    endloop
  endfacet
  facet normal -0 0.453993 0.891005
    outer loop
      vertex -20 -1.23607 -3.80423
      vertex 20 -2.35114 -3.23607
      vertex 20 -1.23607 -3.80423
    endloop
  endfacet
  facet normal 0 0.453993 0.891005
    outer loop
      vertex 20 -2.35114 -3.23607
      vertex -20 -1.23607 -3.80423
      vertex -20 -2.35114 -3.23607
    endloop
  endfacet
  facet normal 0 -0.891005 0.453993
    outer loop
      vertex -20 3.23607 -2.35114
      vertex 20 3.80423 -1.23607
      vertex -20 3.80423 -1.23607
    endloop
  endfacet
  facet normal 0 -0.891005 0.453993
    outer loop
      vertex 20 3.80423 -1.23607
      vertex -20 3.23607 -2.35114
      vertex 20 3.23607 -2.35114
    endloop
  endfacet
  facet normal 0 -0.987689 0.156431
    outer loop
      vertex -20 3.80423 -1.23607
      vertex 20 4 0
      vertex -20 4 0
    endloop
  endfacet
  facet normal 0 -0.987689 0.156431
    outer loop
      vertex 20 4 0
      vertex -20 3.80423 -1.23607
      vertex 20 3.80423 -1.23607
    endloop
  endfacet
  facet normal 0 -0.891005 -0.453993
    outer loop
      vertex -20 3.80423 1.23607
      vertex 20 3.23607 2.35114
      vertex -20 3.23607 2.35114
    endloop
  endfacet
  facet normal 0 -0.891005 -0.453993
    outer loop
      vertex 20 3.23607 2.35114
      vertex -20 3.80423 1.23607
      vertex 20 3.80423 1.23607
    endloop
  endfacet
  facet normal 0 -0.453993 0.891005
    outer loop
      vertex -20 2.35114 -3.23607
      vertex 20 1.23607 -3.80423
      vertex 20 2.35114 -3.23607
    endloop
  endfacet
  facet normal 0 -0.453993 0.891005
    outer loop
      vertex 20 1.23607 -3.80423
      vertex -20 2.35114 -3.23607
      vertex -20 1.23607 -3.80423
    endloop
  endfacet
  facet normal 0 0.891005 -0.453993
    outer loop
      vertex 20 -3.80423 1.23607
      vertex -20 -3.23607 2.35114
      vertex 20 -3.23607 2.35114
    endloop
  endfacet
  facet normal 0 0.891005 -0.453993
    outer loop
      vertex -20 -3.23607 2.35114
      vertex 20 -3.80423 1.23607
      vertex -20 -3.80423 1.23607
    endloop
  endfacet
  facet normal 0 0.987689 -0.156431
    outer loop
      vertex 20 -4 0
      vertex -20 -3.80423 1.23607
      vertex 20 -3.80423 1.23607
    endloop
  endfacet
  facet normal 0 0.987689 -0.156431
    outer loop
      vertex -20 -3.80423 1.23607
      vertex 20 -4 0
      vertex -20 -4 0
    endloop
  endfacet
  facet normal 0 0.707107 0.707107
    outer loop
      vertex 20 -2.35114 -3.23607
      vertex -20 -3.23607 -2.35114
      vertex 20 -3.23607 -2.35114
    endloop
  endfacet
  facet normal 0 0.707107 0.707107
    outer loop
      vertex -20 -3.23607 -2.35114
      vertex 20 -2.35114 -3.23607
      vertex -20 -2.35114 -3.23607
    endloop
  endfacet
  facet normal 0 -0.987689 -0.156431
    outer loop
      vertex -20 4 0
      vertex 20 3.80423 1.23607
      vertex -20 3.80423 1.23607
    endloop
  endfacet
  facet normal 0 -0.987689 -0.156431
    outer loop
      vertex 20 3.80423 1.23607
      vertex -20 4 0
      vertex 20 4 0
    endloop
  endfacet
  facet normal 0 0.891005 0.453993
    outer loop
      vertex 20 -3.23607 -2.35114
      vertex -20 -3.80423 -1.23607
      vertex 20 -3.80423 -1.23607
    endloop
  endfacet
  facet normal 0 0.891005 0.453993
    outer loop
      vertex -20 -3.80423 -1.23607
      vertex 20 -3.23607 -2.35114
      vertex -20 -3.23607 -2.35114
    endloop
  endfacet
  facet normal 0 0.987689 0.156431
    outer loop
      vertex 20 -3.80423 -1.23607
      vertex -20 -4 0
      vertex 20 -4 0
    endloop
  endfacet
  facet normal 0 0.987689 0.156431
    outer loop
      vertex -20 -4 0
      vertex 20 -3.80423 -1.23607
      vertex -20 -3.80423 -1.23607
    endloop
  endfacet
  facet normal 0 0.453993 -0.891005
    outer loop
      vertex -20 -2.35114 3.23607
      vertex 20 -1.23607 3.80423
      vertex 20 -2.35114 3.23607
    endloop
  endfacet
  facet normal 0 0.453993 -0.891005
    outer loop
      vertex 20 -1.23607 3.80423
      vertex -20 -2.35114 3.23607
      vertex -20 -1.23607 3.80423
    endloop
  endfacet
  facet normal 0 0.156431 -0.987689
    outer loop
      vertex -20 -1.23607 3.80423
      vertex 20 0 4
      vertex 20 -1.23607 3.80423
    endloop
  endfacet
  facet normal 0 0.156431 -0.987689
    outer loop
      vertex 20 0 4
      vertex -20 -1.23607 3.80423
      vertex -20 0 4
    endloop
  endfacet
  facet normal 0 -0.453993 -0.891005
    outer loop
      vertex -20 1.23607 3.80423
      vertex 20 2.35114 3.23607
      vertex 20 1.23607 3.80423
    endloop
  endfacet
  facet normal -0 -0.453993 -0.891005
    outer loop
      vertex 20 2.35114 3.23607
      vertex -20 1.23607 3.80423
      vertex -20 2.35114 3.23607
    endloop
  endfacet
  facet normal 0 -0.707107 -0.707107
    outer loop
      vertex -20 3.23607 2.35114
      vertex 20 2.35114 3.23607
      vertex -20 2.35114 3.23607
    endloop
  endfacet
  facet normal 0 -0.707107 -0.707107
    outer loop
      vertex 20 2.35114 3.23607
      vertex -20 3.23607 2.35114
      vertex 20 3.23607 2.35114
    endloop
  endfacet
  facet normal -0 0.156431 0.987689
    outer loop
      vertex -20 0 -4
      vertex 20 -1.23607 -3.80423
      vertex 20 0 -4
    endloop
  endfacet
  facet normal 0 0.156431 0.987689
    outer loop
      vertex 20 -1.23607 -3.80423
      vertex -20 0 -4
      vertex -20 -1.23607 -3.80423
    endloop
  endfacet
endsolid OpenSCAD_Model
