solid OpenSCAD_Model
  facet normal -0 0 1
    outer loop
      vertex -15 8 13.9875
      vertex 0 -8 13.9875
      vertex 0 8 13.9875
    endloop
  endfacet
  facet normal 0 0 1
    outer loop
      vertex 0 -8 13.9875
      vertex -15 8 13.9875
      vertex -15 -8 13.9875
    endloop
  endfacet
  facet normal 0 0.866025 -0.5
    outer loop
      vertex 0 5.75907 9
      vertex -15 8 12.8814
      vertex 0 8 12.8814
    endloop
  endfacet
  facet normal 0 0.866025 -0.5
    outer loop
      vertex -15 8 12.8814
      vertex 0 5.75907 9
      vertex -15 5.75907 9
    endloop
  endfacet
  facet normal 1 0 0
    outer loop
      vertex 0 8 13.9875
      vertex 0 5.75907 9
      vertex 0 8 12.8814
    endloop
  endfacet
  facet normal 1 0 0
    outer loop
      vertex 0 8 13.9875
      vertex 0 -5.75907 9
      vertex 0 5.75907 9
    endloop
  endfacet
  facet normal 1 -0 0
    outer loop
      vertex 0 -8 13.9875
      vertex 0 -5.75907 9
      vertex 0 8 13.9875
    endloop
  endfacet
  facet normal 1 0 0
    outer loop
      vertex 0 -5.75907 9
      vertex 0 -8 13.9875
      vertex 0 -8 12.8814
    endloop
  endfacet
  facet normal 0 -0.866025 -0.5
    outer loop
      vertex -15 -5.75907 9
      vertex 0 -8 12.8814
      vertex -15 -8 12.8814
    endloop
  endfacet
  facet normal 0 -0.866025 -0.5
    outer loop
      vertex 0 -8 12.8814
      vertex -15 -5.75907 9
      vertex 0 -5.75907 9
    endloop
  endfacet
  facet normal -1 0 0
    outer loop
      vertex -15 3.80423 -5.38977
      vertex -15 12 9
      vertex -15 12 -15
    endloop
  endfacet
  facet normal -1 0 0
    outer loop
      vertex -15 3.97809 -6.22034
      vertex -15 12 -15
      vertex -15 3.97809 -7.06947
    endloop
  endfacet
  facet normal -1 0 0
    outer loop
      vertex -15 12 -15
      vertex -15 3.91785 -7.35722
      vertex -15 3.97809 -7.06947
    endloop
  endfacet
  facet normal -1 0 0
    outer loop
      vertex -15 12 -15
      vertex -15 3.80423 -7.90004
      vertex -15 3.91785 -7.35722
    endloop
  endfacet
  facet normal -1 0 0
    outer loop
      vertex -15 12 -15
      vertex -15 3.58132 -8.40843
      vertex -15 3.80423 -7.90004
    endloop
  endfacet
  facet normal -1 0 0
    outer loop
      vertex -15 12 -15
      vertex -15 3.4641 -8.67576
      vertex -15 3.58132 -8.40843
    endloop
  endfacet
  facet normal -1 0 0
    outer loop
      vertex -15 12 -15
      vertex -15 3.14136 -9.12683
      vertex -15 3.4641 -8.67576
    endloop
  endfacet
  facet normal -1 0 0
    outer loop
      vertex -15 12 -15
      vertex -15 2.97258 -9.36272
      vertex -15 3.14136 -9.12683
    endloop
  endfacet
  facet normal -1 0 0
    outer loop
      vertex -15 12 -15
      vertex -15 2.75966 -9.55739
      vertex -15 2.97258 -9.36272
    endloop
  endfacet
  facet normal -1 0 0
    outer loop
      vertex -15 12 -15
      vertex -15 2.35114 -9.93089
      vertex -15 2.75966 -9.55739
    endloop
  endfacet
  facet normal -1 0 0
    outer loop
      vertex -15 12 -15
      vertex -15 1.87425 -10.2105
      vertex -15 2.35114 -9.93089
    endloop
  endfacet
  facet normal -1 0 0
    outer loop
      vertex -15 12 -15
      vertex -15 1.62695 -10.3555
      vertex -15 1.87425 -10.2105
    endloop
  endfacet
  facet normal -1 0 0
    outer loop
      vertex -15 12 -15
      vertex -15 1.35568 -10.445
      vertex -15 1.62695 -10.3555
    endloop
  endfacet
  facet normal -1 0 0
    outer loop
      vertex -15 12 -15
      vertex -15 0.831646 -10.6179
      vertex -15 1.35568 -10.445
    endloop
  endfacet
  facet normal -1 0 0
    outer loop
      vertex -15 12 -15
      vertex -15 0.28333 -10.6764
      vertex -15 0.831646 -10.6179
    endloop
  endfacet
  facet normal -1 0 0
    outer loop
      vertex -15 12 -15
      vertex -15 0 -10.7066
      vertex -15 0.28333 -10.6764
    endloop
  endfacet
  facet normal -1 0 0
    outer loop
      vertex -15 -12 -15
      vertex -15 0 -10.7066
      vertex -15 12 -15
    endloop
  endfacet
  facet normal -1 -0 0
    outer loop
      vertex -15 0 -10.7066
      vertex -15 -12 -15
      vertex -15 -0.28333 -10.6764
    endloop
  endfacet
  facet normal -1 -0 0
    outer loop
      vertex -15 -0.28333 -10.6764
      vertex -15 -12 -15
      vertex -15 -0.831646 -10.6179
    endloop
  endfacet
  facet normal -1 -0 0
    outer loop
      vertex -15 -0.831646 -10.6179
      vertex -15 -12 -15
      vertex -15 -1.35568 -10.445
    endloop
  endfacet
  facet normal -1 0 0
    outer loop
      vertex -15 -12 -15
      vertex -15 -3.14136 -9.12683
      vertex -15 -2.97258 -9.36272
    endloop
  endfacet
  facet normal -1 0 0
    outer loop
      vertex -15 -12 -15
      vertex -15 -3.97809 -6.22034
      vertex -15 -3.97809 -7.06947
    endloop
  endfacet
  facet normal -1 -0 0
    outer loop
      vertex -15 -1.35568 -10.445
      vertex -15 -12 -15
      vertex -15 -1.62695 -10.3555
    endloop
  endfacet
  facet normal -1 0 0
    outer loop
      vertex -15 -12 -15
      vertex -15 -1.87425 -10.2105
      vertex -15 -1.62695 -10.3555
    endloop
  endfacet
  facet normal -1 0 0
    outer loop
      vertex -15 -12 -15
      vertex -15 -2.35114 -9.93089
      vertex -15 -1.87425 -10.2105
    endloop
  endfacet
  facet normal -1 0 0
    outer loop
      vertex -15 -12 -15
      vertex -15 -2.75966 -9.55739
      vertex -15 -2.35114 -9.93089
    endloop
  endfacet
  facet normal -1 0 0
    outer loop
      vertex -15 -12 -15
      vertex -15 -2.97258 -9.36272
      vertex -15 -2.75966 -9.55739
    endloop
  endfacet
  facet normal -1 -0 0
    outer loop
      vertex -15 -3.14136 -9.12683
      vertex -15 -12 -15
      vertex -15 -3.4641 -8.67576
    endloop
  endfacet
  facet normal -1 0 0
    outer loop
      vertex -15 -12 -15
      vertex -15 -3.58132 -8.40843
      vertex -15 -3.4641 -8.67576
    endloop
  endfacet
  facet normal -1 0 0
    outer loop
      vertex -15 -12 -15
      vertex -15 -3.80423 -7.90004
      vertex -15 -3.58132 -8.40843
    endloop
  endfacet
  facet normal -1 0 0
    outer loop
      vertex -15 -12 -15
      vertex -15 -3.91785 -7.35722
      vertex -15 -3.80423 -7.90004
    endloop
  endfacet
  facet normal -1 0 0
    outer loop
      vertex -15 -12 -15
      vertex -15 -3.97809 -7.06947
      vertex -15 -3.91785 -7.35722
    endloop
  endfacet
  facet normal -1 -0 0
    outer loop
      vertex -15 -3.97809 -6.22034
      vertex -15 -12 -15
      vertex -15 -12 9
    endloop
  endfacet
  facet normal -1 0 0
    outer loop
      vertex -15 -3.97809 -6.22034
      vertex -15 -12 9
      vertex -15 -5.75907 9
    endloop
  endfacet
  facet normal -1 0 0
    outer loop
      vertex -15 5.75907 9
      vertex -15 8 13.9875
      vertex -15 8 12.8814
    endloop
  endfacet
  facet normal -1 0 0
    outer loop
      vertex -15 3.86497 -5.67994
      vertex -15 12 -15
      vertex -15 3.97809 -6.22034
    endloop
  endfacet
  facet normal -1 0 0
    outer loop
      vertex -15 3.80423 -5.38977
      vertex -15 12 -15
      vertex -15 3.86497 -5.67994
    endloop
  endfacet
  facet normal -1 0 0
    outer loop
      vertex -15 3.68507 -5.11801
      vertex -15 12 9
      vertex -15 3.80423 -5.38977
    endloop
  endfacet
  facet normal -1 0 0
    outer loop
      vertex -15 3.4641 -4.61405
      vertex -15 12 9
      vertex -15 3.68507 -5.11801
    endloop
  endfacet
  facet normal -1 0 0
    outer loop
      vertex -15 3.29127 -4.37249
      vertex -15 12 9
      vertex -15 3.4641 -4.61405
    endloop
  endfacet
  facet normal -1 0 0
    outer loop
      vertex -15 2.97258 -3.92709
      vertex -15 12 9
      vertex -15 3.29127 -4.37249
    endloop
  endfacet
  facet normal -1 -0 0
    outer loop
      vertex -15 12 9
      vertex -15 2.97258 -3.92709
      vertex -15 5.75907 9
    endloop
  endfacet
  facet normal -1 0 0
    outer loop
      vertex -15 2.57054 -3.55951
      vertex -15 5.75907 9
      vertex -15 2.97258 -3.92709
    endloop
  endfacet
  facet normal -1 0 0
    outer loop
      vertex -15 2.35114 -3.35891
      vertex -15 5.75907 9
      vertex -15 2.57054 -3.55951
    endloop
  endfacet
  facet normal -1 0 0
    outer loop
      vertex -15 2.09503 -3.20877
      vertex -15 5.75907 9
      vertex -15 2.35114 -3.35891
    endloop
  endfacet
  facet normal -1 0 0
    outer loop
      vertex -15 1.62695 -2.93435
      vertex -15 5.75907 9
      vertex -15 2.09503 -3.20877
    endloop
  endfacet
  facet normal -1 0 0
    outer loop
      vertex -15 1.11352 -2.76495
      vertex -15 5.75907 9
      vertex -15 1.62695 -2.93435
    endloop
  endfacet
  facet normal -1 0 0
    outer loop
      vertex -15 0.831646 -2.67196
      vertex -15 5.75907 9
      vertex -15 1.11352 -2.76495
    endloop
  endfacet
  facet normal -1 0 0
    outer loop
      vertex -15 0.536711 -2.64048
      vertex -15 5.75907 9
      vertex -15 0.831646 -2.67196
    endloop
  endfacet
  facet normal -1 0 0
    outer loop
      vertex -15 0 -2.5832
      vertex -15 5.75907 9
      vertex -15 0.536711 -2.64048
    endloop
  endfacet
  facet normal -1 0 0
    outer loop
      vertex -15 -5.75907 9
      vertex -15 5.75907 9
      vertex -15 0 -2.5832
    endloop
  endfacet
  facet normal -1 0 0
    outer loop
      vertex -15 -5.75907 9
      vertex -15 0 -2.5832
      vertex -15 -0.536711 -2.64048
    endloop
  endfacet
  facet normal -1 0 0
    outer loop
      vertex -15 -5.75907 9
      vertex -15 -0.536711 -2.64048
      vertex -15 -0.831646 -2.67196
    endloop
  endfacet
  facet normal -1 0 0
    outer loop
      vertex -15 -5.75907 9
      vertex -15 -0.831646 -2.67196
      vertex -15 -1.11352 -2.76495
    endloop
  endfacet
  facet normal -1 0 0
    outer loop
      vertex -15 -5.75907 9
      vertex -15 -1.11352 -2.76495
      vertex -15 -1.62695 -2.93435
    endloop
  endfacet
  facet normal -1 0 0
    outer loop
      vertex -15 -5.75907 9
      vertex -15 -1.62695 -2.93435
      vertex -15 -2.09503 -3.20877
    endloop
  endfacet
  facet normal -1 0 0
    outer loop
      vertex -15 -5.75907 9
      vertex -15 -2.09503 -3.20877
      vertex -15 -2.35114 -3.35891
    endloop
  endfacet
  facet normal -1 0 0
    outer loop
      vertex -15 -5.75907 9
      vertex -15 -2.35114 -3.35891
      vertex -15 -2.57054 -3.55951
    endloop
  endfacet
  facet normal -1 0 0
    outer loop
      vertex -15 -5.75907 9
      vertex -15 -2.57054 -3.55951
      vertex -15 -2.97258 -3.92709
    endloop
  endfacet
  facet normal -1 0 0
    outer loop
      vertex -15 -5.75907 9
      vertex -15 -2.97258 -3.92709
      vertex -15 -3.29127 -4.37249
    endloop
  endfacet
  facet normal -1 0 0
    outer loop
      vertex -15 -5.75907 9
      vertex -15 -3.29127 -4.37249
      vertex -15 -3.4641 -4.61405
    endloop
  endfacet
  facet normal -1 0 0
    outer loop
      vertex -15 -5.75907 9
      vertex -15 -3.86497 -5.67994
      vertex -15 -3.97809 -6.22034
    endloop
  endfacet
  facet normal -1 0 0
    outer loop
      vertex -15 -3.86497 -5.67994
      vertex -15 -5.75907 9
      vertex -15 -3.80423 -5.38977
    endloop
  endfacet
  facet normal -1 0 0
    outer loop
      vertex -15 -5.75907 9
      vertex -15 -3.68507 -5.11801
      vertex -15 -3.80423 -5.38977
    endloop
  endfacet
  facet normal -1 0 0
    outer loop
      vertex -15 -5.75907 9
      vertex -15 -3.4641 -4.61405
      vertex -15 -3.68507 -5.11801
    endloop
  endfacet
  facet normal -1 0 0
    outer loop
      vertex -15 5.75907 9
      vertex -15 -5.75907 9
      vertex -15 8 13.9875
    endloop
  endfacet
  facet normal -1 0 0
    outer loop
      vertex -15 -8 13.9875
      vertex -15 -5.75907 9
      vertex -15 -8 12.8814
    endloop
  endfacet
  facet normal -1 0 0
    outer loop
      vertex -15 -5.75907 9
      vertex -15 -8 13.9875
      vertex -15 8 13.9875
    endloop
  endfacet
  facet normal 0 1 -0
    outer loop
      vertex 0 8 12.8814
      vertex -15 8 13.9875
      vertex 0 8 13.9875
    endloop
  endfacet
  facet normal 0 1 0
    outer loop
      vertex -15 8 13.9875
      vertex 0 8 12.8814
      vertex -15 8 12.8814
    endloop
  endfacet
  facet normal 0 -1 0
    outer loop
      vertex -15 -8 12.8814
      vertex 0 -8 13.9875
      vertex -15 -8 13.9875
    endloop
  endfacet
  facet normal 0 -1 -0
    outer loop
      vertex 0 -8 13.9875
      vertex -15 -8 12.8814
      vertex 0 -8 12.8814
    endloop
  endfacet
  facet normal 0 0 1
    outer loop
      vertex 15 12 9
      vertex 0 5.75907 9
      vertex 15 -12 9
    endloop
  endfacet
  facet normal -0 0 1
    outer loop
      vertex -15 12 9
      vertex 0 5.75907 9
      vertex 15 12 9
    endloop
  endfacet
  facet normal 0 0 1
    outer loop
      vertex 0 5.75907 9
      vertex -15 12 9
      vertex -15 5.75907 9
    endloop
  endfacet
  facet normal -0 0 1
    outer loop
      vertex 0 -5.75907 9
      vertex 15 -12 9
      vertex 0 5.75907 9
    endloop
  endfacet
  facet normal 0 0 1
    outer loop
      vertex -15 -12 9
      vertex 0 -5.75907 9
      vertex -15 -5.75907 9
    endloop
  endfacet
  facet normal 0 0 1
    outer loop
      vertex 0 -5.75907 9
      vertex -15 -12 9
      vertex 15 -12 9
    endloop
  endfacet
  facet normal 1 0 0
    outer loop
      vertex 15 12 9
      vertex 15 11.9343 0
      vertex 15 12 -15
    endloop
  endfacet
  facet normal 1 0 0
    outer loop
      vertex 15 12 9
      vertex 15 9.94522 0
      vertex 15 11.9343 0
    endloop
  endfacet
  facet normal 1 -0 0
    outer loop
      vertex 15 3.97809 -0.930531
      vertex 15 9.94522 -1.04528
      vertex 15 9.94522 0
    endloop
  endfacet
  facet normal 1 0 0
    outer loop
      vertex 15 3.97809 -1.77966
      vertex 15 9.94522 -1.04528
      vertex 15 3.97809 -0.930531
    endloop
  endfacet
  facet normal 1 -0 0
    outer loop
      vertex 15 2.97258 1.36272
      vertex 15 9.94522 0
      vertex 15 12 9
    endloop
  endfacet
  facet normal 1 0 -0
    outer loop
      vertex 15 3.91785 -0.64278
      vertex 15 9.94522 0
      vertex 15 3.80423 -0.0999595
    endloop
  endfacet
  facet normal 1 -0 0
    outer loop
      vertex 15 3.86497 -2.32006
      vertex 15 9.51056 -3.09017
      vertex 15 3.97809 -1.77966
    endloop
  endfacet
  facet normal 1 -0 0
    outer loop
      vertex 15 3.80423 -2.61023
      vertex 15 8.66025 -5
      vertex 15 3.86497 -2.32006
    endloop
  endfacet
  facet normal 1 0 0
    outer loop
      vertex 15 9.51056 -3.09017
      vertex 15 3.86497 -2.32006
      vertex 15 8.66025 -5
    endloop
  endfacet
  facet normal 1 0 0
    outer loop
      vertex 15 9.94522 -1.04528
      vertex 15 3.97809 -1.77966
      vertex 15 9.51056 -3.09017
    endloop
  endfacet
  facet normal 1 0 -0
    outer loop
      vertex 15 3.97809 -0.930531
      vertex 15 9.94522 0
      vertex 15 3.91785 -0.64278
    endloop
  endfacet
  facet normal 1 0 0
    outer loop
      vertex 15 9.94522 0
      vertex 15 3.58132 0.408428
      vertex 15 3.80423 -0.0999595
    endloop
  endfacet
  facet normal 1 0 0
    outer loop
      vertex 15 9.94522 0
      vertex 15 3.4641 0.675758
      vertex 15 3.58132 0.408428
    endloop
  endfacet
  facet normal 1 0 0
    outer loop
      vertex 15 9.94522 0
      vertex 15 3.14136 1.12683
      vertex 15 3.4641 0.675758
    endloop
  endfacet
  facet normal 1 0 0
    outer loop
      vertex 15 9.94522 0
      vertex 15 2.97258 1.36272
      vertex 15 3.14136 1.12683
    endloop
  endfacet
  facet normal 1 0 0
    outer loop
      vertex 15 12 9
      vertex 15 2.75966 1.55739
      vertex 15 2.97258 1.36272
    endloop
  endfacet
  facet normal 1 0 0
    outer loop
      vertex 15 12 9
      vertex 15 2.35114 1.93089
      vertex 15 2.75966 1.55739
    endloop
  endfacet
  facet normal 1 0 0
    outer loop
      vertex 15 12 9
      vertex 15 1.87425 2.21047
      vertex 15 2.35114 1.93089
    endloop
  endfacet
  facet normal 1 0 0
    outer loop
      vertex 15 12 9
      vertex 15 1.62695 2.35546
      vertex 15 1.87425 2.21047
    endloop
  endfacet
  facet normal 1 0 0
    outer loop
      vertex 15 12 9
      vertex 15 1.35568 2.44496
      vertex 15 1.62695 2.35546
    endloop
  endfacet
  facet normal 1 0 0
    outer loop
      vertex 15 12 9
      vertex 15 0.831646 2.61785
      vertex 15 1.35568 2.44496
    endloop
  endfacet
  facet normal 1 0 0
    outer loop
      vertex 15 12 9
      vertex 15 0.28333 2.67637
      vertex 15 0.831646 2.61785
    endloop
  endfacet
  facet normal 1 0 0
    outer loop
      vertex 15 12 9
      vertex 15 0 2.70661
      vertex 15 0.28333 2.67637
    endloop
  endfacet
  facet normal 1 -0 0
    outer loop
      vertex 15 -12 9
      vertex 15 0 2.70661
      vertex 15 12 9
    endloop
  endfacet
  facet normal 1 0 0
    outer loop
      vertex 15 0 2.70661
      vertex 15 -12 9
      vertex 15 -0.28333 2.67637
    endloop
  endfacet
  facet normal 1 0 0
    outer loop
      vertex 15 -0.28333 2.67637
      vertex 15 -12 9
      vertex 15 -0.831646 2.61785
    endloop
  endfacet
  facet normal 1 0 0
    outer loop
      vertex 15 -0.831646 2.61785
      vertex 15 -12 9
      vertex 15 -1.35568 2.44496
    endloop
  endfacet
  facet normal 1 -0 0
    outer loop
      vertex 15 -9.94522 -1.04528
      vertex 15 -3.97809 -1.77966
      vertex 15 -3.97809 -0.930531
    endloop
  endfacet
  facet normal 1 0 0
    outer loop
      vertex 15 -3.97809 -1.77966
      vertex 15 -5.87785 -8.09017
      vertex 15 -4.06737 -9.13545
    endloop
  endfacet
  facet normal 1 0 0
    outer loop
      vertex 15 -9.94522 0
      vertex 15 -3.97809 -0.930531
      vertex 15 -3.91785 -0.64278
    endloop
  endfacet
  facet normal 1 0 0
    outer loop
      vertex 15 -9.94522 0
      vertex 15 -3.91785 -0.64278
      vertex 15 -3.80423 -0.0999595
    endloop
  endfacet
  facet normal 1 0 0
    outer loop
      vertex 15 -3.97809 -1.77966
      vertex 15 -7.43145 -6.69131
      vertex 15 -5.87785 -8.09017
    endloop
  endfacet
  facet normal 1 -0 0
    outer loop
      vertex 15 -9.94522 0
      vertex 15 -3.80423 -0.0999595
      vertex 15 -3.58132 0.408428
    endloop
  endfacet
  facet normal 1 0 0
    outer loop
      vertex 15 -9.94522 0
      vertex 15 -3.58132 0.408428
      vertex 15 -3.4641 0.675758
    endloop
  endfacet
  facet normal 1 0 0
    outer loop
      vertex 15 -3.97809 -1.77966
      vertex 15 -8.66025 -5
      vertex 15 -7.43145 -6.69131
    endloop
  endfacet
  facet normal 1 0 0
    outer loop
      vertex 15 -9.94522 0
      vertex 15 -3.4641 0.675758
      vertex 15 -3.14136 1.12683
    endloop
  endfacet
  facet normal 1 0 0
    outer loop
      vertex 15 -9.94522 0
      vertex 15 -3.14136 1.12683
      vertex 15 -2.97258 1.36272
    endloop
  endfacet
  facet normal 1 0 0
    outer loop
      vertex 15 -3.97809 -1.77966
      vertex 15 -9.51056 -3.09017
      vertex 15 -8.66025 -5
    endloop
  endfacet
  facet normal 1 0 0
    outer loop
      vertex 15 -12 9
      vertex 15 -2.97258 1.36272
      vertex 15 -2.75966 1.55739
    endloop
  endfacet
  facet normal 1 0 0
    outer loop
      vertex 15 -12 9
      vertex 15 -2.75966 1.55739
      vertex 15 -2.35114 1.93089
    endloop
  endfacet
  facet normal 1 0 0
    outer loop
      vertex 15 -3.97809 -0.930531
      vertex 15 -9.94522 0
      vertex 15 -9.94522 -1.04528
    endloop
  endfacet
  facet normal 1 0 0
    outer loop
      vertex 15 -12 9
      vertex 15 -2.35114 1.93089
      vertex 15 -1.87425 2.21047
    endloop
  endfacet
  facet normal 1 0 0
    outer loop
      vertex 15 -12 9
      vertex 15 -1.87425 2.21047
      vertex 15 -1.62695 2.35546
    endloop
  endfacet
  facet normal 1 0 0
    outer loop
      vertex 15 -1.35568 2.44496
      vertex 15 -12 9
      vertex 15 -1.62695 2.35546
    endloop
  endfacet
  facet normal 1 0 0
    outer loop
      vertex 15 -2.97258 1.36272
      vertex 15 -12 9
      vertex 15 -9.94522 0
    endloop
  endfacet
  facet normal 1 0 0
    outer loop
      vertex 15 -11.9343 0
      vertex 15 -12 9
      vertex 15 -11.9343 -4.25434
    endloop
  endfacet
  facet normal 1 0 0
    outer loop
      vertex 15 -9.94522 0
      vertex 15 -12 9
      vertex 15 -11.9343 0
    endloop
  endfacet
  facet normal 1 -0 0
    outer loop
      vertex 15 11.9343 -4.25434
      vertex 15 12 -15
      vertex 15 11.9343 0
    endloop
  endfacet
  facet normal 1 -0 0
    outer loop
      vertex 15 11.4127 -6.7082
      vertex 15 12 -15
      vertex 15 11.9343 -4.25434
    endloop
  endfacet
  facet normal 1 -0 0
    outer loop
      vertex 15 10.3923 -9
      vertex 15 12 -15
      vertex 15 11.4127 -6.7082
    endloop
  endfacet
  facet normal 1 -0 0
    outer loop
      vertex 15 8.91774 -11.0296
      vertex 15 12 -15
      vertex 15 10.3923 -9
    endloop
  endfacet
  facet normal 1 -0 0
    outer loop
      vertex 15 7.05342 -12.7082
      vertex 15 12 -15
      vertex 15 8.91774 -11.0296
    endloop
  endfacet
  facet normal 1 -0 0
    outer loop
      vertex 15 4.88084 -13.9625
      vertex 15 12 -15
      vertex 15 7.05342 -12.7082
    endloop
  endfacet
  facet normal 1 -0 0
    outer loop
      vertex 15 2.49494 -14.7378
      vertex 15 12 -15
      vertex 15 4.88084 -13.9625
    endloop
  endfacet
  facet normal 1 0 0
    outer loop
      vertex 15 12 -15
      vertex 15 2.49494 -14.7378
      vertex 15 0 -15
    endloop
  endfacet
  facet normal 1 -0 0
    outer loop
      vertex 15 3.68507 -2.88199
      vertex 15 8.66025 -5
      vertex 15 3.80423 -2.61023
    endloop
  endfacet
  facet normal 1 -0 0
    outer loop
      vertex 15 3.4641 -3.38595
      vertex 15 8.66025 -5
      vertex 15 3.68507 -2.88199
    endloop
  endfacet
  facet normal 1 0 0
    outer loop
      vertex 15 8.66025 -5
      vertex 15 3.4641 -3.38595
      vertex 15 7.43145 -6.69131
    endloop
  endfacet
  facet normal 1 -0 0
    outer loop
      vertex 15 3.29127 -3.62751
      vertex 15 7.43145 -6.69131
      vertex 15 3.4641 -3.38595
    endloop
  endfacet
  facet normal 1 -0 0
    outer loop
      vertex 15 2.97258 -4.07291
      vertex 15 7.43145 -6.69131
      vertex 15 3.29127 -3.62751
    endloop
  endfacet
  facet normal 1 0 0
    outer loop
      vertex 15 7.43145 -6.69131
      vertex 15 2.97258 -4.07291
      vertex 15 5.87785 -8.09017
    endloop
  endfacet
  facet normal 1 -0 0
    outer loop
      vertex 15 2.57054 -4.44049
      vertex 15 5.87785 -8.09017
      vertex 15 2.97258 -4.07291
    endloop
  endfacet
  facet normal 1 -0 0
    outer loop
      vertex 15 2.35114 -4.64109
      vertex 15 5.87785 -8.09017
      vertex 15 2.57054 -4.44049
    endloop
  endfacet
  facet normal 1 0 0
    outer loop
      vertex 15 5.87785 -8.09017
      vertex 15 2.35114 -4.64109
      vertex 15 4.06737 -9.13545
    endloop
  endfacet
  facet normal 1 -0 0
    outer loop
      vertex 15 2.09503 -4.79123
      vertex 15 4.06737 -9.13545
      vertex 15 2.35114 -4.64109
    endloop
  endfacet
  facet normal 1 -0 0
    outer loop
      vertex 15 1.62695 -5.06565
      vertex 15 4.06737 -9.13545
      vertex 15 2.09503 -4.79123
    endloop
  endfacet
  facet normal 1 0 0
    outer loop
      vertex 15 4.06737 -9.13545
      vertex 15 1.62695 -5.06565
      vertex 15 2.07912 -9.78148
    endloop
  endfacet
  facet normal 1 -0 0
    outer loop
      vertex 15 1.11352 -5.23504
      vertex 15 2.07912 -9.78148
      vertex 15 1.62695 -5.06565
    endloop
  endfacet
  facet normal 1 -0 0
    outer loop
      vertex 15 0.831646 -5.32804
      vertex 15 2.07912 -9.78148
      vertex 15 1.11352 -5.23504
    endloop
  endfacet
  facet normal 1 -0 0
    outer loop
      vertex 15 0.536711 -5.35952
      vertex 15 2.07912 -9.78148
      vertex 15 0.831646 -5.32804
    endloop
  endfacet
  facet normal 1 0 0
    outer loop
      vertex 15 0 -10
      vertex 15 0.536711 -5.35952
      vertex 15 0 -5.4168
    endloop
  endfacet
  facet normal 1 0 0
    outer loop
      vertex 15 0.536711 -5.35952
      vertex 15 0 -10
      vertex 15 2.07912 -9.78148
    endloop
  endfacet
  facet normal 1 0 0
    outer loop
      vertex 15 -0.536711 -5.35952
      vertex 15 0 -10
      vertex 15 0 -5.4168
    endloop
  endfacet
  facet normal 1 0 0
    outer loop
      vertex 15 -2.07912 -9.78148
      vertex 15 -0.536711 -5.35952
      vertex 15 -0.831646 -5.32804
    endloop
  endfacet
  facet normal 1 0 0
    outer loop
      vertex 15 -2.07912 -9.78148
      vertex 15 -0.831646 -5.32804
      vertex 15 -1.11352 -5.23504
    endloop
  endfacet
  facet normal 1 0 0
    outer loop
      vertex 15 -2.07912 -9.78148
      vertex 15 -1.11352 -5.23504
      vertex 15 -1.62695 -5.06565
    endloop
  endfacet
  facet normal 1 0 0
    outer loop
      vertex 15 -0.536711 -5.35952
      vertex 15 -2.07912 -9.78148
      vertex 15 0 -10
    endloop
  endfacet
  facet normal 1 0 0
    outer loop
      vertex 15 -4.06737 -9.13545
      vertex 15 -1.62695 -5.06565
      vertex 15 -2.09503 -4.79123
    endloop
  endfacet
  facet normal 1 0 0
    outer loop
      vertex 15 -4.06737 -9.13545
      vertex 15 -2.09503 -4.79123
      vertex 15 -2.35114 -4.64109
    endloop
  endfacet
  facet normal 1 0 0
    outer loop
      vertex 15 -4.06737 -9.13545
      vertex 15 -2.35114 -4.64109
      vertex 15 -2.57054 -4.44049
    endloop
  endfacet
  facet normal 1 0 0
    outer loop
      vertex 15 -4.06737 -9.13545
      vertex 15 -2.57054 -4.44049
      vertex 15 -2.97258 -4.07291
    endloop
  endfacet
  facet normal 1 0 0
    outer loop
      vertex 15 -4.06737 -9.13545
      vertex 15 -2.97258 -4.07291
      vertex 15 -3.29127 -3.62751
    endloop
  endfacet
  facet normal 1 0 0
    outer loop
      vertex 15 -4.06737 -9.13545
      vertex 15 -3.29127 -3.62751
      vertex 15 -3.4641 -3.38595
    endloop
  endfacet
  facet normal 1 0 0
    outer loop
      vertex 15 -4.06737 -9.13545
      vertex 15 -3.4641 -3.38595
      vertex 15 -3.68507 -2.88199
    endloop
  endfacet
  facet normal 1 0 0
    outer loop
      vertex 15 -4.06737 -9.13545
      vertex 15 -3.68507 -2.88199
      vertex 15 -3.80423 -2.61023
    endloop
  endfacet
  facet normal 1 0 0
    outer loop
      vertex 15 -4.06737 -9.13545
      vertex 15 -3.86497 -2.32006
      vertex 15 -3.97809 -1.77966
    endloop
  endfacet
  facet normal 1 0 0
    outer loop
      vertex 15 -1.62695 -5.06565
      vertex 15 -4.06737 -9.13545
      vertex 15 -2.07912 -9.78148
    endloop
  endfacet
  facet normal 1 0 0
    outer loop
      vertex 15 -3.86497 -2.32006
      vertex 15 -4.06737 -9.13545
      vertex 15 -3.80423 -2.61023
    endloop
  endfacet
  facet normal 1 0 0
    outer loop
      vertex 15 -2.49494 -14.7378
      vertex 15 -12 -15
      vertex 15 0 -15
    endloop
  endfacet
  facet normal 1 0 0
    outer loop
      vertex 15 -4.88084 -13.9625
      vertex 15 -12 -15
      vertex 15 -2.49494 -14.7378
    endloop
  endfacet
  facet normal 1 0 0
    outer loop
      vertex 15 -7.05342 -12.7082
      vertex 15 -12 -15
      vertex 15 -4.88084 -13.9625
    endloop
  endfacet
  facet normal 1 0 0
    outer loop
      vertex 15 -8.91774 -11.0296
      vertex 15 -12 -15
      vertex 15 -7.05342 -12.7082
    endloop
  endfacet
  facet normal 1 0 0
    outer loop
      vertex 15 -10.3923 -9
      vertex 15 -12 -15
      vertex 15 -8.91774 -11.0296
    endloop
  endfacet
  facet normal 1 0 0
    outer loop
      vertex 15 -11.4127 -6.7082
      vertex 15 -12 -15
      vertex 15 -10.3923 -9
    endloop
  endfacet
  facet normal 1 0 0
    outer loop
      vertex 15 -11.9343 -4.25434
      vertex 15 -12 -15
      vertex 15 -11.4127 -6.7082
    endloop
  endfacet
  facet normal 1 0 0
    outer loop
      vertex 15 -12 -15
      vertex 15 -11.9343 -4.25434
      vertex 15 -12 9
    endloop
  endfacet
  facet normal 1 0 0
    outer loop
      vertex 15 -3.97809 -1.77966
      vertex 15 -9.94522 -1.04528
      vertex 15 -9.51056 -3.09017
    endloop
  endfacet
  facet normal 0 0 -1
    outer loop
      vertex -15 -12 -15
      vertex 15 0 -15
      vertex 15 -12 -15
    endloop
  endfacet
  facet normal 0 0 -1
    outer loop
      vertex -15 12 -15
      vertex 15 0 -15
      vertex -15 -12 -15
    endloop
  endfacet
  facet normal 0 0 -1
    outer loop
      vertex 15 0 -15
      vertex -15 12 -15
      vertex 15 12 -15
    endloop
  endfacet
  facet normal 0 1 -0
    outer loop
      vertex 15 12 -15
      vertex -15 12 9
      vertex 15 12 9
    endloop
  endfacet
  facet normal 0 1 0
    outer loop
      vertex -15 12 9
      vertex 15 12 -15
      vertex -15 12 -15
    endloop
  endfacet
  facet normal 0 -1 0
    outer loop
      vertex -15 -12 -15
      vertex 15 -12 9
      vertex -15 -12 9
    endloop
  endfacet
  facet normal 0 -1 -0
    outer loop
      vertex 15 -12 9
      vertex -15 -12 -15
      vertex 15 -12 -15
    endloop
  endfacet
  facet normal 0.602721 -0.0833997 -0.793582
    outer loop
      vertex 15.05 -2.49494 -14.7378
      vertex 19 0 -12
      vertex 19 -2.49494 -11.7378
    endloop
  endfacet
  facet normal 0.602721 -0.0833997 -0.793582
    outer loop
      vertex 19 0 -12
      vertex 15.05 -2.49494 -14.7378
      vertex 15.05 0 -15
    endloop
  endfacet
  facet normal 0 -0.978146 -0.207918
    outer loop
      vertex 15 -11.4127 -6.7082
      vertex 15.05 -11.9343 -4.25434
      vertex 15 -11.9343 -4.25434
    endloop
  endfacet
  facet normal 0 -0.978146 -0.207918
    outer loop
      vertex 15.05 -11.9343 -4.25434
      vertex 15 -11.4127 -6.7082
      vertex 15.05 -11.4127 -6.7082
    endloop
  endfacet
  facet normal 0.58554 0.250524 -0.770961
    outer loop
      vertex 15.05 2.49494 -14.7378
      vertex 19 4.88084 -10.9625
      vertex 19 2.49494 -11.7378
    endloop
  endfacet
  facet normal 0.58554 0.250524 -0.770961
    outer loop
      vertex 19 4.88084 -10.9625
      vertex 15.05 2.49494 -14.7378
      vertex 15.05 4.88084 -13.9625
    endloop
  endfacet
  facet normal 0 0.499988 -0.866032
    outer loop
      vertex 15 4.88084 -13.9625
      vertex 15.05 7.05342 -12.7082
      vertex 15.05 4.88084 -13.9625
    endloop
  endfacet
  facet normal 0 0.499988 -0.866032
    outer loop
      vertex 15.05 7.05342 -12.7082
      vertex 15 4.88084 -13.9625
      vertex 15 7.05342 -12.7082
    endloop
  endfacet
  facet normal 0.491528 0.582718 -0.647178
    outer loop
      vertex 15.05 7.05342 -12.7082
      vertex 19 8.91774 -8.02957
      vertex 19 7.05342 -9.7082
    endloop
  endfacet
  facet normal 0.491535 0.58271 -0.647181
    outer loop
      vertex 19 8.91774 -8.02957
      vertex 15.05 7.05342 -12.7082
      vertex 15.05 8.91774 -11.0296
    endloop
  endfacet
  facet normal 0 0.978146 -0.207918
    outer loop
      vertex 15.05 11.4127 -6.7082
      vertex 15 11.9343 -4.25434
      vertex 15.05 11.9343 -4.25434
    endloop
  endfacet
  facet normal 0 0.978146 -0.207918
    outer loop
      vertex 15 11.9343 -4.25434
      vertex 15.05 11.4127 -6.7082
      vertex 15 11.4127 -6.7082
    endloop
  endfacet
  facet normal 0.54953 0.417727 -0.723548
    outer loop
      vertex 15.05 4.88084 -13.9625
      vertex 19 7.05342 -9.7082
      vertex 19 4.88084 -10.9625
    endloop
  endfacet
  facet normal 0.54953 0.417727 -0.723548
    outer loop
      vertex 19 7.05342 -9.7082
      vertex 15.05 4.88084 -13.9625
      vertex 15.05 7.05342 -12.7082
    endloop
  endfacet
  facet normal 0 0.309044 -0.951048
    outer loop
      vertex 15 2.49494 -14.7378
      vertex 15.05 4.88084 -13.9625
      vertex 15.05 2.49494 -14.7378
    endloop
  endfacet
  facet normal 0 0.309044 -0.951048
    outer loop
      vertex 15.05 4.88084 -13.9625
      vertex 15 2.49494 -14.7378
      vertex 15 4.88084 -13.9625
    endloop
  endfacet
  facet normal 0.602721 0.0833997 -0.793582
    outer loop
      vertex 15.05 0 -15
      vertex 19 2.49494 -11.7378
      vertex 19 0 -12
    endloop
  endfacet
  facet normal 0.602721 0.0833997 -0.793582
    outer loop
      vertex 19 2.49494 -11.7378
      vertex 15.05 0 -15
      vertex 15.05 2.49494 -14.7378
    endloop
  endfacet
  facet normal 0.155979 -0.966174 -0.205373
    outer loop
      vertex 15.05 -11.9343 -4.25434
      vertex 19 -11.4127 -3.7082
      vertex 19 -11.9343 -1.25434
    endloop
  endfacet
  facet normal 0.155979 -0.966174 -0.205373
    outer loop
      vertex 19 -11.4127 -3.7082
      vertex 15.05 -11.9343 -4.25434
      vertex 15.05 -11.4127 -6.7082
    endloop
  endfacet
  facet normal 0 -0.499988 -0.866032
    outer loop
      vertex 15 -7.05342 -12.7082
      vertex 15.05 -4.88084 -13.9625
      vertex 15.05 -7.05342 -12.7082
    endloop
  endfacet
  facet normal -0 -0.499988 -0.866032
    outer loop
      vertex 15.05 -4.88084 -13.9625
      vertex 15 -7.05342 -12.7082
      vertex 15 -4.88084 -13.9625
    endloop
  endfacet
  facet normal 0 -0.669122 -0.743153
    outer loop
      vertex 15 -8.91774 -11.0296
      vertex 15.05 -7.05342 -12.7082
      vertex 15.05 -8.91774 -11.0296
    endloop
  endfacet
  facet normal -0 -0.669122 -0.743153
    outer loop
      vertex 15.05 -7.05342 -12.7082
      vertex 15 -8.91774 -11.0296
      vertex 15 -7.05342 -12.7082
    endloop
  endfacet
  facet normal 0.155979 0.966174 -0.205373
    outer loop
      vertex 19 11.4127 -3.7082
      vertex 15.05 11.9343 -4.25434
      vertex 19 11.9343 -1.25434
    endloop
  endfacet
  facet normal 0.155979 0.966174 -0.205373
    outer loop
      vertex 15.05 11.9343 -4.25434
      vertex 19 11.4127 -3.7082
      vertex 15.05 11.4127 -6.7082
    endloop
  endfacet
  facet normal 0.407642 -0.738749 -0.536729
    outer loop
      vertex 15.05 -10.3923 -9
      vertex 19 -8.91774 -8.02957
      vertex 19 -10.3923 -6
    endloop
  endfacet
  facet normal 0.407642 -0.738752 -0.536724
    outer loop
      vertex 19 -8.91774 -8.02957
      vertex 15.05 -10.3923 -9
      vertex 15.05 -8.91774 -11.0296
    endloop
  endfacet
  facet normal 0.295157 -0.872842 -0.388624
    outer loop
      vertex 15.05 -11.4127 -6.7082
      vertex 19 -10.3923 -6
      vertex 19 -11.4127 -3.7082
    endloop
  endfacet
  facet normal 0.295157 -0.872842 -0.388624
    outer loop
      vertex 19 -10.3923 -6
      vertex 15.05 -11.4127 -6.7082
      vertex 15.05 -10.3923 -9
    endloop
  endfacet
  facet normal 0 -0.309044 -0.951048
    outer loop
      vertex 15 -4.88084 -13.9625
      vertex 15.05 -2.49494 -14.7378
      vertex 15.05 -4.88084 -13.9625
    endloop
  endfacet
  facet normal -0 -0.309044 -0.951048
    outer loop
      vertex 15.05 -2.49494 -14.7378
      vertex 15 -4.88084 -13.9625
      vertex 15 -2.49494 -14.7378
    endloop
  endfacet
  facet normal 0 0.104517 -0.994523
    outer loop
      vertex 15 0 -15
      vertex 15.05 2.49494 -14.7378
      vertex 15.05 0 -15
    endloop
  endfacet
  facet normal 0 0.104517 -0.994523
    outer loop
      vertex 15.05 2.49494 -14.7378
      vertex 15 0 -15
      vertex 15 2.49494 -14.7378
    endloop
  endfacet
  facet normal 0 -1 0
    outer loop
      vertex 15 -11.9343 0
      vertex 19 -11.9343 -1.25434
      vertex 19 -11.9343 0
    endloop
  endfacet
  facet normal 0 -1 0
    outer loop
      vertex 15.05 -11.9343 -4.25434
      vertex 15 -11.9343 0
      vertex 15 -11.9343 -4.25434
    endloop
  endfacet
  facet normal 0 -1 0
    outer loop
      vertex 15 -11.9343 0
      vertex 15.05 -11.9343 -4.25434
      vertex 19 -11.9343 -1.25434
    endloop
  endfacet
  facet normal 0.407642 0.738749 -0.536729
    outer loop
      vertex 19 8.91774 -8.02957
      vertex 15.05 10.3923 -9
      vertex 19 10.3923 -6
    endloop
  endfacet
  facet normal 0.407642 0.738752 -0.536724
    outer loop
      vertex 15.05 10.3923 -9
      vertex 19 8.91774 -8.02957
      vertex 15.05 8.91774 -11.0296
    endloop
  endfacet
  facet normal 0 0.669122 -0.743153
    outer loop
      vertex 15 7.05342 -12.7082
      vertex 15.05 8.91774 -11.0296
      vertex 15.05 7.05342 -12.7082
    endloop
  endfacet
  facet normal 0 0.669122 -0.743153
    outer loop
      vertex 15.05 8.91774 -11.0296
      vertex 15 7.05342 -12.7082
      vertex 15 8.91774 -11.0296
    endloop
  endfacet
  facet normal 0 1 -0
    outer loop
      vertex 19 11.9343 -1.25434
      vertex 15 11.9343 0
      vertex 19 11.9343 0
    endloop
  endfacet
  facet normal 0 1 -0
    outer loop
      vertex 15.05 11.9343 -4.25434
      vertex 15 11.9343 0
      vertex 19 11.9343 -1.25434
    endloop
  endfacet
  facet normal 0 1 0
    outer loop
      vertex 15 11.9343 0
      vertex 15.05 11.9343 -4.25434
      vertex 15 11.9343 -4.25434
    endloop
  endfacet
  facet normal 0 0.913542 -0.406745
    outer loop
      vertex 15.05 10.3923 -9
      vertex 15 11.4127 -6.7082
      vertex 15.05 11.4127 -6.7082
    endloop
  endfacet
  facet normal 0 0.913542 -0.406745
    outer loop
      vertex 15 11.4127 -6.7082
      vertex 15.05 10.3923 -9
      vertex 15 10.3923 -9
    endloop
  endfacet
  facet normal 0 0.809023 -0.587777
    outer loop
      vertex 15.05 8.91774 -11.0296
      vertex 15 10.3923 -9
      vertex 15.05 10.3923 -9
    endloop
  endfacet
  facet normal 0 0.809023 -0.587777
    outer loop
      vertex 15 10.3923 -9
      vertex 15.05 8.91774 -11.0296
      vertex 15 8.91774 -11.0296
    endloop
  endfacet
  facet normal 0.295157 0.872842 -0.388624
    outer loop
      vertex 19 10.3923 -6
      vertex 15.05 11.4127 -6.7082
      vertex 19 11.4127 -3.7082
    endloop
  endfacet
  facet normal 0.295157 0.872842 -0.388624
    outer loop
      vertex 15.05 11.4127 -6.7082
      vertex 19 10.3923 -6
      vertex 15.05 10.3923 -9
    endloop
  endfacet
  facet normal 0.54953 -0.417727 -0.723548
    outer loop
      vertex 15.05 -7.05342 -12.7082
      vertex 19 -4.88084 -10.9625
      vertex 19 -7.05342 -9.7082
    endloop
  endfacet
  facet normal 0.54953 -0.417727 -0.723548
    outer loop
      vertex 19 -4.88084 -10.9625
      vertex 15.05 -7.05342 -12.7082
      vertex 15.05 -4.88084 -13.9625
    endloop
  endfacet
  facet normal 0 -0.104517 -0.994523
    outer loop
      vertex 15 -2.49494 -14.7378
      vertex 15.05 0 -15
      vertex 15.05 -2.49494 -14.7378
    endloop
  endfacet
  facet normal -0 -0.104517 -0.994523
    outer loop
      vertex 15.05 0 -15
      vertex 15 -2.49494 -14.7378
      vertex 15 0 -15
    endloop
  endfacet
  facet normal 0.58554 -0.250524 -0.770961
    outer loop
      vertex 15.05 -4.88084 -13.9625
      vertex 19 -2.49494 -11.7378
      vertex 19 -4.88084 -10.9625
    endloop
  endfacet
  facet normal 0.58554 -0.250524 -0.770961
    outer loop
      vertex 19 -2.49494 -11.7378
      vertex 15.05 -4.88084 -13.9625
      vertex 15.05 -2.49494 -14.7378
    endloop
  endfacet
  facet normal 0 -0.913542 -0.406745
    outer loop
      vertex 15 -10.3923 -9
      vertex 15.05 -11.4127 -6.7082
      vertex 15 -11.4127 -6.7082
    endloop
  endfacet
  facet normal 0 -0.913542 -0.406745
    outer loop
      vertex 15.05 -11.4127 -6.7082
      vertex 15 -10.3923 -9
      vertex 15.05 -10.3923 -9
    endloop
  endfacet
  facet normal 1 -0 0
    outer loop
      vertex 19 -11.9343 0
      vertex 19 -7.95617 -0.836227
      vertex 19 -7.95617 0
    endloop
  endfacet
  facet normal 1 0 0
    outer loop
      vertex 19 -7.95617 -0.836227
      vertex 19 -10.3923 -6
      vertex 19 -8.91774 -8.02957
    endloop
  endfacet
  facet normal 1 0 0
    outer loop
      vertex 19 -7.95617 -0.836227
      vertex 19 -11.4127 -3.7082
      vertex 19 -10.3923 -6
    endloop
  endfacet
  facet normal 1 0 0
    outer loop
      vertex 19 -7.95617 -0.836227
      vertex 19 -11.9343 0
      vertex 19 -11.9343 -1.25434
    endloop
  endfacet
  facet normal 1 0 0
    outer loop
      vertex 19 -7.95617 -0.836227
      vertex 19 -11.9343 -1.25434
      vertex 19 -11.4127 -3.7082
    endloop
  endfacet
  facet normal 1 -0 0
    outer loop
      vertex 19 7.95617 -0.836227
      vertex 19 11.9343 -1.25434
      vertex 19 11.9343 0
    endloop
  endfacet
  facet normal 1 0 0
    outer loop
      vertex 19 11.9343 -1.25434
      vertex 19 7.95617 -0.836227
      vertex 19 11.4127 -3.7082
    endloop
  endfacet
  facet normal 1 0 0
    outer loop
      vertex 19 11.4127 -3.7082
      vertex 19 7.60845 -2.47214
      vertex 19 10.3923 -6
    endloop
  endfacet
  facet normal 1 0 0
    outer loop
      vertex 19 7.95617 -0.836227
      vertex 19 11.9343 0
      vertex 19 7.95617 0
    endloop
  endfacet
  facet normal 1 0 0
    outer loop
      vertex 19 11.4127 -3.7082
      vertex 19 7.95617 -0.836227
      vertex 19 7.60845 -2.47214
    endloop
  endfacet
  facet normal 1 -0 0
    outer loop
      vertex 19 6.9282 -4
      vertex 19 10.3923 -6
      vertex 19 7.60845 -2.47214
    endloop
  endfacet
  facet normal 1 0 0
    outer loop
      vertex 19 10.3923 -6
      vertex 19 6.9282 -4
      vertex 19 8.91774 -8.02957
    endloop
  endfacet
  facet normal 1 -0 0
    outer loop
      vertex 19 5.94516 -5.35304
      vertex 19 8.91774 -8.02957
      vertex 19 6.9282 -4
    endloop
  endfacet
  facet normal 1 0 0
    outer loop
      vertex 19 8.91774 -8.02957
      vertex 19 5.94516 -5.35304
      vertex 19 7.05342 -9.7082
    endloop
  endfacet
  facet normal 1 -0 0
    outer loop
      vertex 19 4.70228 -6.47214
      vertex 19 7.05342 -9.7082
      vertex 19 5.94516 -5.35304
    endloop
  endfacet
  facet normal 1 0 0
    outer loop
      vertex 19 7.05342 -9.7082
      vertex 19 4.70228 -6.47214
      vertex 19 4.88084 -10.9625
    endloop
  endfacet
  facet normal 1 -0 0
    outer loop
      vertex 19 3.25389 -7.30836
      vertex 19 4.88084 -10.9625
      vertex 19 4.70228 -6.47214
    endloop
  endfacet
  facet normal 1 0 0
    outer loop
      vertex 19 3.25389 -7.30836
      vertex 19 2.49494 -11.7378
      vertex 19 4.88084 -10.9625
    endloop
  endfacet
  facet normal 1 -0 0
    outer loop
      vertex 19 1.66329 -7.82518
      vertex 19 2.49494 -11.7378
      vertex 19 3.25389 -7.30836
    endloop
  endfacet
  facet normal 1 -0 0
    outer loop
      vertex 19 0 -8
      vertex 19 2.49494 -11.7378
      vertex 19 1.66329 -7.82518
    endloop
  endfacet
  facet normal 1 0 0
    outer loop
      vertex 19 0 -8
      vertex 19 0 -12
      vertex 19 2.49494 -11.7378
    endloop
  endfacet
  facet normal 1 0 0
    outer loop
      vertex 19 -1.66329 -7.82518
      vertex 19 0 -12
      vertex 19 0 -8
    endloop
  endfacet
  facet normal 1 0 0
    outer loop
      vertex 19 -1.66329 -7.82518
      vertex 19 -2.49494 -11.7378
      vertex 19 0 -12
    endloop
  endfacet
  facet normal 1 0 0
    outer loop
      vertex 19 -3.25389 -7.30836
      vertex 19 -2.49494 -11.7378
      vertex 19 -1.66329 -7.82518
    endloop
  endfacet
  facet normal 1 0 0
    outer loop
      vertex 19 -4.88084 -10.9625
      vertex 19 -3.25389 -7.30836
      vertex 19 -4.70228 -6.47214
    endloop
  endfacet
  facet normal 1 0 0
    outer loop
      vertex 19 -3.25389 -7.30836
      vertex 19 -4.88084 -10.9625
      vertex 19 -2.49494 -11.7378
    endloop
  endfacet
  facet normal 1 0 0
    outer loop
      vertex 19 -7.05342 -9.7082
      vertex 19 -4.70228 -6.47214
      vertex 19 -5.94516 -5.35304
    endloop
  endfacet
  facet normal 1 0 0
    outer loop
      vertex 19 -8.91774 -8.02957
      vertex 19 -5.94516 -5.35304
      vertex 19 -6.9282 -4
    endloop
  endfacet
  facet normal 1 0 0
    outer loop
      vertex 19 -4.70228 -6.47214
      vertex 19 -7.05342 -9.7082
      vertex 19 -4.88084 -10.9625
    endloop
  endfacet
  facet normal 1 0 0
    outer loop
      vertex 19 -8.91774 -8.02957
      vertex 19 -6.9282 -4
      vertex 19 -7.60845 -2.47214
    endloop
  endfacet
  facet normal 1 0 0
    outer loop
      vertex 19 -8.91774 -8.02957
      vertex 19 -7.60845 -2.47214
      vertex 19 -7.95617 -0.836227
    endloop
  endfacet
  facet normal 1 0 0
    outer loop
      vertex 19 -5.94516 -5.35304
      vertex 19 -8.91774 -8.02957
      vertex 19 -7.05342 -9.7082
    endloop
  endfacet
  facet normal 0 -0.809023 -0.587777
    outer loop
      vertex 15 -8.91774 -11.0296
      vertex 15.05 -10.3923 -9
      vertex 15 -10.3923 -9
    endloop
  endfacet
  facet normal 0 -0.809023 -0.587777
    outer loop
      vertex 15.05 -10.3923 -9
      vertex 15 -8.91774 -11.0296
      vertex 15.05 -8.91774 -11.0296
    endloop
  endfacet
  facet normal 0.491532 -0.582717 -0.647177
    outer loop
      vertex 15.05 -8.91774 -11.0296
      vertex 19 -7.05342 -9.7082
      vertex 19 -8.91774 -8.02957
    endloop
  endfacet
  facet normal 0.491531 -0.582711 -0.647182
    outer loop
      vertex 19 -7.05342 -9.7082
      vertex 15.05 -8.91774 -11.0296
      vertex 15.05 -7.05342 -12.7082
    endloop
  endfacet
  facet normal 0 -0.809019 0.587783
    outer loop
      vertex 15 7.43145 -6.69131
      vertex 18 8.66025 -5
      vertex 15 8.66025 -5
    endloop
  endfacet
  facet normal 0 -0.809019 0.587783
    outer loop
      vertex 18 8.66025 -5
      vertex 15 7.43145 -6.69131
      vertex 18 7.43145 -6.69131
    endloop
  endfacet
  facet normal -0 0.104526 0.994522
    outer loop
      vertex 15 0 -10
      vertex 18 -2.07912 -9.78148
      vertex 18 0 -10
    endloop
  endfacet
  facet normal 0 0.104526 0.994522
    outer loop
      vertex 18 -2.07912 -9.78148
      vertex 15 0 -10
      vertex 15 -2.07912 -9.78148
    endloop
  endfacet
  facet normal 0 0.809019 0.587783
    outer loop
      vertex 18 -7.43145 -6.69131
      vertex 15 -8.66025 -5
      vertex 18 -8.66025 -5
    endloop
  endfacet
  facet normal 0 0.809019 0.587783
    outer loop
      vertex 15 -8.66025 -5
      vertex 18 -7.43145 -6.69131
      vertex 15 -7.43145 -6.69131
    endloop
  endfacet
  facet normal 0 -0.5 0.866026
    outer loop
      vertex 15 5.87785 -8.09017
      vertex 18 4.06737 -9.13545
      vertex 18 5.87785 -8.09017
    endloop
  endfacet
  facet normal 0 -0.5 0.866026
    outer loop
      vertex 18 4.06737 -9.13545
      vertex 15 5.87785 -8.09017
      vertex 15 4.06737 -9.13545
    endloop
  endfacet
  facet normal 0 -0.104526 0.994522
    outer loop
      vertex 15 2.07912 -9.78148
      vertex 18 0 -10
      vertex 18 2.07912 -9.78148
    endloop
  endfacet
  facet normal 0 -0.104526 0.994522
    outer loop
      vertex 18 0 -10
      vertex 15 2.07912 -9.78148
      vertex 15 0 -10
    endloop
  endfacet
  facet normal 0 1 -0
    outer loop
      vertex 18 -9.94522 -1.04528
      vertex 15 -9.94522 0
      vertex 18 -9.94522 0
    endloop
  endfacet
  facet normal 0 1 0
    outer loop
      vertex 15 -9.94522 0
      vertex 18 -9.94522 -1.04528
      vertex 15 -9.94522 -1.04528
    endloop
  endfacet
  facet normal 0 0.913546 0.406736
    outer loop
      vertex 18 -8.66025 -5
      vertex 15 -9.51056 -3.09017
      vertex 18 -9.51056 -3.09017
    endloop
  endfacet
  facet normal 0 0.913546 0.406736
    outer loop
      vertex 15 -9.51056 -3.09017
      vertex 18 -8.66025 -5
      vertex 15 -8.66025 -5
    endloop
  endfacet
  facet normal 0 -0.309021 0.951055
    outer loop
      vertex 15 4.06737 -9.13545
      vertex 18 2.07912 -9.78148
      vertex 18 4.06737 -9.13545
    endloop
  endfacet
  facet normal 0 -0.309021 0.951055
    outer loop
      vertex 18 2.07912 -9.78148
      vertex 15 4.06737 -9.13545
      vertex 15 2.07912 -9.78148
    endloop
  endfacet
  facet normal 0 0.978147 0.207914
    outer loop
      vertex 18 -9.51056 -3.09017
      vertex 15 -9.94522 -1.04528
      vertex 18 -9.94522 -1.04528
    endloop
  endfacet
  facet normal 0 0.978147 0.207914
    outer loop
      vertex 15 -9.94522 -1.04528
      vertex 18 -9.51056 -3.09017
      vertex 15 -9.51056 -3.09017
    endloop
  endfacet
  facet normal -0 0.309021 0.951055
    outer loop
      vertex 15 -2.07912 -9.78148
      vertex 18 -4.06737 -9.13545
      vertex 18 -2.07912 -9.78148
    endloop
  endfacet
  facet normal 0 0.309021 0.951055
    outer loop
      vertex 18 -4.06737 -9.13545
      vertex 15 -2.07912 -9.78148
      vertex 15 -4.06737 -9.13545
    endloop
  endfacet
  facet normal 0 -0.913546 0.406736
    outer loop
      vertex 15 8.66025 -5
      vertex 18 9.51056 -3.09017
      vertex 15 9.51056 -3.09017
    endloop
  endfacet
  facet normal 0 -0.913546 0.406736
    outer loop
      vertex 18 9.51056 -3.09017
      vertex 15 8.66025 -5
      vertex 18 8.66025 -5
    endloop
  endfacet
  facet normal -0 0.5 0.866026
    outer loop
      vertex 15 -4.06737 -9.13545
      vertex 18 -5.87785 -8.09017
      vertex 18 -4.06737 -9.13545
    endloop
  endfacet
  facet normal 0 0.5 0.866026
    outer loop
      vertex 18 -5.87785 -8.09017
      vertex 15 -4.06737 -9.13545
      vertex 15 -5.87785 -8.09017
    endloop
  endfacet
  facet normal -0 0.669129 0.743147
    outer loop
      vertex 15 -5.87785 -8.09017
      vertex 18 -7.43145 -6.69131
      vertex 18 -5.87785 -8.09017
    endloop
  endfacet
  facet normal 0 0.669129 0.743147
    outer loop
      vertex 18 -7.43145 -6.69131
      vertex 15 -5.87785 -8.09017
      vertex 15 -7.43145 -6.69131
    endloop
  endfacet
  facet normal 0 -0.669129 0.743147
    outer loop
      vertex 15 7.43145 -6.69131
      vertex 18 5.87785 -8.09017
      vertex 18 7.43145 -6.69131
    endloop
  endfacet
  facet normal 0 -0.669129 0.743147
    outer loop
      vertex 18 5.87785 -8.09017
      vertex 15 7.43145 -6.69131
      vertex 15 5.87785 -8.09017
    endloop
  endfacet
  facet normal 0 -0.978147 0.207914
    outer loop
      vertex 15 9.51056 -3.09017
      vertex 18 9.94522 -1.04528
      vertex 15 9.94522 -1.04528
    endloop
  endfacet
  facet normal 0 -0.978147 0.207914
    outer loop
      vertex 18 9.94522 -1.04528
      vertex 15 9.51056 -3.09017
      vertex 18 9.51056 -3.09017
    endloop
  endfacet
  facet normal 0 -1 0
    outer loop
      vertex 15 9.94522 -1.04528
      vertex 18 9.94522 0
      vertex 15 9.94522 0
    endloop
  endfacet
  facet normal 0 -1 -0
    outer loop
      vertex 18 9.94522 0
      vertex 15 9.94522 -1.04528
      vertex 18 9.94522 -1.04528
    endloop
  endfacet
  facet normal -1 0 0
    outer loop
      vertex 18 9.51056 -3.09017
      vertex 18 7.60845 -2.47214
      vertex 18 7.95617 -0.836227
    endloop
  endfacet
  facet normal -1 0 0
    outer loop
      vertex 18 6.9282 -4
      vertex 18 8.66025 -5
      vertex 18 7.43145 -6.69131
    endloop
  endfacet
  facet normal -1 0 0
    outer loop
      vertex 18 8.66025 -5
      vertex 18 6.9282 -4
      vertex 18 7.60845 -2.47214
    endloop
  endfacet
  facet normal -1 0 0
    outer loop
      vertex 18 7.43145 -6.69131
      vertex 18 5.94516 -5.35304
      vertex 18 6.9282 -4
    endloop
  endfacet
  facet normal -1 0 0
    outer loop
      vertex 18 5.87785 -8.09017
      vertex 18 5.94516 -5.35304
      vertex 18 7.43145 -6.69131
    endloop
  endfacet
  facet normal -1 0 0
    outer loop
      vertex 18 5.87785 -8.09017
      vertex 18 4.70228 -6.47214
      vertex 18 5.94516 -5.35304
    endloop
  endfacet
  facet normal -1 0 0
    outer loop
      vertex 18 4.06737 -9.13545
      vertex 18 4.70228 -6.47214
      vertex 18 5.87785 -8.09017
    endloop
  endfacet
  facet normal -1 0 0
    outer loop
      vertex 18 4.06737 -9.13545
      vertex 18 3.25389 -7.30836
      vertex 18 4.70228 -6.47214
    endloop
  endfacet
  facet normal -1 0 0
    outer loop
      vertex 18 2.07912 -9.78148
      vertex 18 3.25389 -7.30836
      vertex 18 4.06737 -9.13545
    endloop
  endfacet
  facet normal -1 0 0
    outer loop
      vertex 18 2.07912 -9.78148
      vertex 18 1.66329 -7.82518
      vertex 18 3.25389 -7.30836
    endloop
  endfacet
  facet normal -1 0 0
    outer loop
      vertex 18 0 -10
      vertex 18 1.66329 -7.82518
      vertex 18 2.07912 -9.78148
    endloop
  endfacet
  facet normal -1 0 0
    outer loop
      vertex 18 0 -10
      vertex 18 0 -8
      vertex 18 1.66329 -7.82518
    endloop
  endfacet
  facet normal -1 0 0
    outer loop
      vertex 18 0 -10
      vertex 18 -1.66329 -7.82518
      vertex 18 0 -8
    endloop
  endfacet
  facet normal -1 0 0
    outer loop
      vertex 18 -2.07912 -9.78148
      vertex 18 -1.66329 -7.82518
      vertex 18 0 -10
    endloop
  endfacet
  facet normal -1 0 0
    outer loop
      vertex 18 -2.07912 -9.78148
      vertex 18 -3.25389 -7.30836
      vertex 18 -1.66329 -7.82518
    endloop
  endfacet
  facet normal -1 0 0
    outer loop
      vertex 18 -4.06737 -9.13545
      vertex 18 -3.25389 -7.30836
      vertex 18 -2.07912 -9.78148
    endloop
  endfacet
  facet normal -1 0 0
    outer loop
      vertex 18 -4.06737 -9.13545
      vertex 18 -4.70228 -6.47214
      vertex 18 -3.25389 -7.30836
    endloop
  endfacet
  facet normal -1 0 0
    outer loop
      vertex 18 -5.87785 -8.09017
      vertex 18 -4.70228 -6.47214
      vertex 18 -4.06737 -9.13545
    endloop
  endfacet
  facet normal -1 0 0
    outer loop
      vertex 18 -5.87785 -8.09017
      vertex 18 -5.94516 -5.35304
      vertex 18 -4.70228 -6.47214
    endloop
  endfacet
  facet normal -1 0 0
    outer loop
      vertex 18 -7.43145 -6.69131
      vertex 18 -5.94516 -5.35304
      vertex 18 -5.87785 -8.09017
    endloop
  endfacet
  facet normal -1 -0 0
    outer loop
      vertex 18 -5.94516 -5.35304
      vertex 18 -7.43145 -6.69131
      vertex 18 -6.9282 -4
    endloop
  endfacet
  facet normal -1 0 0
    outer loop
      vertex 18 -8.66025 -5
      vertex 18 -6.9282 -4
      vertex 18 -7.43145 -6.69131
    endloop
  endfacet
  facet normal -1 -0 0
    outer loop
      vertex 18 -6.9282 -4
      vertex 18 -8.66025 -5
      vertex 18 -7.60845 -2.47214
    endloop
  endfacet
  facet normal -1 0 0
    outer loop
      vertex 18 -9.51056 -3.09017
      vertex 18 -7.60845 -2.47214
      vertex 18 -8.66025 -5
    endloop
  endfacet
  facet normal -1 -0 0
    outer loop
      vertex 18 -7.60845 -2.47214
      vertex 18 -9.51056 -3.09017
      vertex 18 -7.95617 -0.836227
    endloop
  endfacet
  facet normal -1 0 0
    outer loop
      vertex 18 -9.94522 -1.04528
      vertex 18 -7.95617 -0.836227
      vertex 18 -9.51056 -3.09017
    endloop
  endfacet
  facet normal -1 0 0
    outer loop
      vertex 18 -9.94522 0
      vertex 18 -7.95617 -0.836227
      vertex 18 -9.94522 -1.04528
    endloop
  endfacet
  facet normal -1 0 0
    outer loop
      vertex 18 -7.95617 -0.836227
      vertex 18 -9.94522 0
      vertex 18 -7.95617 0
    endloop
  endfacet
  facet normal -1 0 0
    outer loop
      vertex 18 7.95617 -0.836227
      vertex 18 9.94522 -1.04528
      vertex 18 9.51056 -3.09017
    endloop
  endfacet
  facet normal -1 0 0
    outer loop
      vertex 18 7.60845 -2.47214
      vertex 18 9.51056 -3.09017
      vertex 18 8.66025 -5
    endloop
  endfacet
  facet normal -1 0 0
    outer loop
      vertex 18 9.94522 -1.04528
      vertex 18 7.95617 -0.836227
      vertex 18 9.94522 0
    endloop
  endfacet
  facet normal -1 -0 0
    outer loop
      vertex 18 9.94522 0
      vertex 18 7.95617 -0.836227
      vertex 18 7.95617 0
    endloop
  endfacet
  facet normal 0 -0.809017 0.587785
    outer loop
      vertex 18 5.94516 -5.35304
      vertex 19 6.9282 -4
      vertex 18 6.9282 -4
    endloop
  endfacet
  facet normal 0 -0.809017 0.587785
    outer loop
      vertex 19 6.9282 -4
      vertex 18 5.94516 -5.35304
      vertex 19 5.94516 -5.35304
    endloop
  endfacet
  facet normal -0 0.104529 0.994522
    outer loop
      vertex 18 0 -8
      vertex 19 -1.66329 -7.82518
      vertex 19 0 -8
    endloop
  endfacet
  facet normal 0 0.104529 0.994522
    outer loop
      vertex 19 -1.66329 -7.82518
      vertex 18 0 -8
      vertex 18 -1.66329 -7.82518
    endloop
  endfacet
  facet normal 0 0.809017 0.587785
    outer loop
      vertex 19 -5.94516 -5.35304
      vertex 18 -6.9282 -4
      vertex 19 -6.9282 -4
    endloop
  endfacet
  facet normal 0 0.809017 0.587785
    outer loop
      vertex 18 -6.9282 -4
      vertex 19 -5.94516 -5.35304
      vertex 18 -5.94516 -5.35304
    endloop
  endfacet
  facet normal 0 -0.499996 0.866028
    outer loop
      vertex 18 4.70228 -6.47214
      vertex 19 3.25389 -7.30836
      vertex 19 4.70228 -6.47214
    endloop
  endfacet
  facet normal 0 -0.499996 0.866028
    outer loop
      vertex 19 3.25389 -7.30836
      vertex 18 4.70228 -6.47214
      vertex 18 3.25389 -7.30836
    endloop
  endfacet
  facet normal 0 -0.104529 0.994522
    outer loop
      vertex 18 1.66329 -7.82518
      vertex 19 0 -8
      vertex 19 1.66329 -7.82518
    endloop
  endfacet
  facet normal 0 -0.104529 0.994522
    outer loop
      vertex 19 0 -8
      vertex 18 1.66329 -7.82518
      vertex 18 0 -8
    endloop
  endfacet
  facet normal 0 1 -0
    outer loop
      vertex 19 -7.95617 -0.836227
      vertex 18 -7.95617 0
      vertex 19 -7.95617 0
    endloop
  endfacet
  facet normal 0 1 0
    outer loop
      vertex 18 -7.95617 0
      vertex 19 -7.95617 -0.836227
      vertex 18 -7.95617 -0.836227
    endloop
  endfacet
  facet normal 0 0.913545 0.406738
    outer loop
      vertex 19 -6.9282 -4
      vertex 18 -7.60845 -2.47214
      vertex 19 -7.60845 -2.47214
    endloop
  endfacet
  facet normal 0 0.913545 0.406738
    outer loop
      vertex 18 -7.60845 -2.47214
      vertex 19 -6.9282 -4
      vertex 18 -6.9282 -4
    endloop
  endfacet
  facet normal 0 -0.309018 0.951056
    outer loop
      vertex 18 3.25389 -7.30836
      vertex 19 1.66329 -7.82518
      vertex 19 3.25389 -7.30836
    endloop
  endfacet
  facet normal 0 -0.309018 0.951056
    outer loop
      vertex 19 1.66329 -7.82518
      vertex 18 3.25389 -7.30836
      vertex 18 1.66329 -7.82518
    endloop
  endfacet
  facet normal 0 0.978148 0.207909
    outer loop
      vertex 19 -7.60845 -2.47214
      vertex 18 -7.95617 -0.836227
      vertex 19 -7.95617 -0.836227
    endloop
  endfacet
  facet normal 0 0.978148 0.207909
    outer loop
      vertex 18 -7.95617 -0.836227
      vertex 19 -7.60845 -2.47214
      vertex 18 -7.60845 -2.47214
    endloop
  endfacet
  facet normal 0 -0.913545 0.406738
    outer loop
      vertex 18 6.9282 -4
      vertex 19 7.60845 -2.47214
      vertex 18 7.60845 -2.47214
    endloop
  endfacet
  facet normal 0 -0.913545 0.406738
    outer loop
      vertex 19 7.60845 -2.47214
      vertex 18 6.9282 -4
      vertex 19 6.9282 -4
    endloop
  endfacet
  facet normal -0 0.499996 0.866028
    outer loop
      vertex 18 -3.25389 -7.30836
      vertex 19 -4.70228 -6.47214
      vertex 19 -3.25389 -7.30836
    endloop
  endfacet
  facet normal 0 0.499996 0.866028
    outer loop
      vertex 19 -4.70228 -6.47214
      vertex 18 -3.25389 -7.30836
      vertex 18 -4.70228 -6.47214
    endloop
  endfacet
  facet normal -0 0.669133 0.743143
    outer loop
      vertex 18 -4.70228 -6.47214
      vertex 19 -5.94516 -5.35304
      vertex 19 -4.70228 -6.47214
    endloop
  endfacet
  facet normal 0 0.669133 0.743143
    outer loop
      vertex 19 -5.94516 -5.35304
      vertex 18 -4.70228 -6.47214
      vertex 18 -5.94516 -5.35304
    endloop
  endfacet
  facet normal 0 -0.669133 0.743143
    outer loop
      vertex 18 5.94516 -5.35304
      vertex 19 4.70228 -6.47214
      vertex 19 5.94516 -5.35304
    endloop
  endfacet
  facet normal 0 -0.669133 0.743143
    outer loop
      vertex 19 4.70228 -6.47214
      vertex 18 5.94516 -5.35304
      vertex 18 4.70228 -6.47214
    endloop
  endfacet
  facet normal 0 -0.978148 0.207909
    outer loop
      vertex 18 7.60845 -2.47214
      vertex 19 7.95617 -0.836227
      vertex 18 7.95617 -0.836227
    endloop
  endfacet
  facet normal 0 -0.978148 0.207909
    outer loop
      vertex 19 7.95617 -0.836227
      vertex 18 7.60845 -2.47214
      vertex 19 7.60845 -2.47214
    endloop
  endfacet
  facet normal -0 0.309018 0.951056
    outer loop
      vertex 18 -1.66329 -7.82518
      vertex 19 -3.25389 -7.30836
      vertex 19 -1.66329 -7.82518
    endloop
  endfacet
  facet normal 0 0.309018 0.951056
    outer loop
      vertex 19 -3.25389 -7.30836
      vertex 18 -1.66329 -7.82518
      vertex 18 -3.25389 -7.30836
    endloop
  endfacet
  facet normal 0 -1 0
    outer loop
      vertex 18 7.95617 -0.836227
      vertex 19 7.95617 0
      vertex 18 7.95617 0
    endloop
  endfacet
  facet normal 0 -1 -0
    outer loop
      vertex 19 7.95617 0
      vertex 18 7.95617 -0.836227
      vertex 19 7.95617 -0.836227
    endloop
  endfacet
  facet normal 0 0 1
    outer loop
      vertex 19 11.9343 0
      vertex 18 9.94522 0
      vertex 19 7.95617 0
    endloop
  endfacet
  facet normal -0 0 1
    outer loop
      vertex 15 11.9343 0
      vertex 18 9.94522 0
      vertex 19 11.9343 0
    endloop
  endfacet
  facet normal 0 0 1
    outer loop
      vertex 18 9.94522 0
      vertex 15 11.9343 0
      vertex 15 9.94522 0
    endloop
  endfacet
  facet normal 0 0 1
    outer loop
      vertex 19 7.95617 0
      vertex 18 9.94522 0
      vertex 18 7.95617 0
    endloop
  endfacet
  facet normal 0 0 1
    outer loop
      vertex 18 -9.94522 0
      vertex 19 -7.95617 0
      vertex 18 -7.95617 0
    endloop
  endfacet
  facet normal 0 0 1
    outer loop
      vertex 19 -7.95617 0
      vertex 18 -9.94522 0
      vertex 19 -11.9343 0
    endloop
  endfacet
  facet normal 0 0 1
    outer loop
      vertex 15 -11.9343 0
      vertex 18 -9.94522 0
      vertex 15 -9.94522 0
    endloop
  endfacet
  facet normal 0 0 1
    outer loop
      vertex 18 -9.94522 0
      vertex 15 -11.9343 0
      vertex 19 -11.9343 0
    endloop
  endfacet
  facet normal -0.172698 -0.104538 0.979412
    outer loop
      vertex -15 0.831646 -10.6179
      vertex 15 0.536711 -5.35952
      vertex 15 0.831646 -5.32804
    endloop
  endfacet
  facet normal -0.172699 -0.104494 0.979416
    outer loop
      vertex 15 0.536711 -5.35952
      vertex -15 0.831646 -10.6179
      vertex -15 0.28333 -10.6764
    endloop
  endfacet
  facet normal 0.0361013 -0.97815 -0.204741
    outer loop
      vertex -15 3.80423 -5.38977
      vertex 15 3.91785 -0.64278
      vertex 15 3.80423 -0.0999595
    endloop
  endfacet
  facet normal 0.036103 -0.978148 -0.204751
    outer loop
      vertex 15 3.91785 -0.64278
      vertex -15 3.80423 -5.38977
      vertex -15 3.86497 -5.67994
    endloop
  endfacet
  facet normal -0.172698 -0.104527 0.979413
    outer loop
      vertex -15 0.28333 -10.6764
      vertex 15 0 -5.4168
      vertex 15 0.536711 -5.35952
    endloop
  endfacet
  facet normal -0.172699 -0.104397 0.979427
    outer loop
      vertex 15 0 -5.4168
      vertex -15 0.28333 -10.6764
      vertex -15 0 -10.7066
    endloop
  endfacet
  facet normal -0.172698 0.104538 0.979412
    outer loop
      vertex -15 -0.28333 -10.6764
      vertex 15 -0.831646 -5.32804
      vertex 15 -0.536711 -5.35952
    endloop
  endfacet
  facet normal -0.172699 0.104494 0.979416
    outer loop
      vertex 15 -0.831646 -5.32804
      vertex -15 -0.28333 -10.6764
      vertex -15 -0.831646 -10.6179
    endloop
  endfacet
  facet normal 0.165149 0.309015 -0.936609
    outer loop
      vertex -15 -1.62695 -2.93435
      vertex 15 -1.35568 2.44496
      vertex 15 -1.62695 2.35546
    endloop
  endfacet
  facet normal 0.165149 0.309022 -0.936606
    outer loop
      vertex 15 -1.35568 2.44496
      vertex -15 -1.62695 -2.93435
      vertex -15 -1.11352 -2.76495
    endloop
  endfacet
  facet normal 0.0706317 -0.913539 -0.400572
    outer loop
      vertex -15 3.4641 -4.61405
      vertex 15 3.58132 0.408428
      vertex 15 3.4641 0.675758
    endloop
  endfacet
  facet normal 0.0706296 -0.913545 -0.400559
    outer loop
      vertex 15 3.58132 0.408428
      vertex -15 3.4641 -4.61405
      vertex -15 3.68507 -5.11801
    endloop
  endfacet
  facet normal 0.150381 0.500022 -0.852856
    outer loop
      vertex -15 -2.09503 -3.20877
      vertex 15 -1.62695 2.35546
      vertex 15 -1.87425 2.21047
    endloop
  endfacet
  facet normal 0.150383 0.500007 -0.852865
    outer loop
      vertex 15 -1.62695 2.35546
      vertex -15 -2.09503 -3.20877
      vertex -15 -1.62695 -2.93435
    endloop
  endfacet
  facet normal -0.0706305 -0.913542 0.400565
    outer loop
      vertex -15 3.80423 -7.90004
      vertex 15 3.68507 -2.88199
      vertex 15 3.80423 -2.61023
    endloop
  endfacet
  facet normal -0.0706289 -0.913546 0.400556
    outer loop
      vertex 15 3.68507 -2.88199
      vertex -15 3.80423 -7.90004
      vertex -15 3.58132 -8.40843
    endloop
  endfacet
  facet normal -0.129045 -0.669138 0.731848
    outer loop
      vertex -15 2.75966 -9.55739
      vertex 15 2.35114 -4.64109
      vertex 15 2.57054 -4.44049
    endloop
  endfacet
  facet normal -0.129047 -0.669123 0.731861
    outer loop
      vertex 15 2.35114 -4.64109
      vertex -15 2.75966 -9.55739
      vertex -15 2.35114 -9.93089
    endloop
  endfacet
  facet normal 0.0706292 -0.913545 -0.400557
    outer loop
      vertex -15 3.68507 -5.11801
      vertex 15 3.80423 -0.0999595
      vertex 15 3.58132 0.408428
    endloop
  endfacet
  facet normal 0.0706305 -0.913542 -0.400565
    outer loop
      vertex 15 3.80423 -0.0999595
      vertex -15 3.68507 -5.11801
      vertex -15 3.80423 -5.38977
    endloop
  endfacet
  facet normal -0.150384 0.500007 0.852865
    outer loop
      vertex -15 -1.62695 -10.3555
      vertex 15 -2.09503 -4.79123
      vertex 15 -1.62695 -5.06565
    endloop
  endfacet
  facet normal -0.150379 0.500048 0.852841
    outer loop
      vertex 15 -2.09503 -4.79123
      vertex -15 -1.62695 -10.3555
      vertex -15 -1.87425 -10.2105
    endloop
  endfacet
  facet normal -0.0706296 0.913545 0.400559
    outer loop
      vertex 15 -3.4641 -3.38595
      vertex -15 -3.58132 -8.40843
      vertex 15 -3.68507 -2.88199
    endloop
  endfacet
  facet normal -0.0706317 0.913539 0.400572
    outer loop
      vertex -15 -3.58132 -8.40843
      vertex 15 -3.4641 -3.38595
      vertex -15 -3.4641 -8.67576
    endloop
  endfacet
  facet normal 0.165149 -0.309015 -0.936609
    outer loop
      vertex -15 1.11352 -2.76495
      vertex 15 1.62695 2.35546
      vertex 15 1.35568 2.44496
    endloop
  endfacet
  facet normal 0.165149 -0.309022 -0.936606
    outer loop
      vertex 15 1.62695 2.35546
      vertex -15 1.11352 -2.76495
      vertex -15 1.62695 -2.93435
    endloop
  endfacet
  facet normal 0.102067 -0.809021 -0.578851
    outer loop
      vertex -15 3.29127 -4.37249
      vertex 15 3.4641 0.675758
      vertex 15 3.14136 1.12683
    endloop
  endfacet
  facet normal 0.102065 -0.809029 -0.578839
    outer loop
      vertex 15 3.4641 0.675758
      vertex -15 3.29127 -4.37249
      vertex -15 3.4641 -4.61405
    endloop
  endfacet
  facet normal -0.102069 -0.809013 0.57886
    outer loop
      vertex -15 3.14136 -9.12683
      vertex 15 2.97258 -4.07291
      vertex 15 3.29127 -3.62751
    endloop
  endfacet
  facet normal -0.102068 -0.809018 0.578855
    outer loop
      vertex 15 2.97258 -4.07291
      vertex -15 3.14136 -9.12683
      vertex -15 2.97258 -9.36272
    endloop
  endfacet
  facet normal 0.102067 0.809021 -0.578851
    outer loop
      vertex 15 -3.4641 0.675758
      vertex -15 -3.29127 -4.37249
      vertex 15 -3.14136 1.12683
    endloop
  endfacet
  facet normal 0.102065 0.809029 -0.578839
    outer loop
      vertex -15 -3.29127 -4.37249
      vertex 15 -3.4641 0.675758
      vertex -15 -3.4641 -4.61405
    endloop
  endfacet
  facet normal -0.129046 0.669128 0.731857
    outer loop
      vertex -15 -2.75966 -9.55739
      vertex 15 -2.97258 -4.07291
      vertex 15 -2.57054 -4.44049
    endloop
  endfacet
  facet normal -0.129046 0.669128 0.731857
    outer loop
      vertex 15 -2.97258 -4.07291
      vertex -15 -2.75966 -9.55739
      vertex -15 -2.97258 -9.36272
    endloop
  endfacet
  facet normal -0.165151 0.309005 0.936611
    outer loop
      vertex -15 -1.35568 -10.445
      vertex 15 -1.62695 -5.06565
      vertex 15 -1.11352 -5.23504
    endloop
  endfacet
  facet normal -0.165151 0.309015 0.936608
    outer loop
      vertex 15 -1.62695 -5.06565
      vertex -15 -1.35568 -10.445
      vertex -15 -1.62695 -10.3555
    endloop
  endfacet
  facet normal 0.150383 0.5 -0.852869
    outer loop
      vertex -15 -2.35114 -3.35891
      vertex 15 -1.87425 2.21047
      vertex 15 -2.35114 1.93089
    endloop
  endfacet
  facet normal 0.150385 0.499984 -0.852877
    outer loop
      vertex 15 -1.87425 2.21047
      vertex -15 -2.35114 -3.35891
      vertex -15 -2.09503 -3.20877
    endloop
  endfacet
  facet normal 0.0361013 0.97815 -0.204741
    outer loop
      vertex 15 -3.91785 -0.64278
      vertex -15 -3.80423 -5.38977
      vertex 15 -3.80423 -0.0999595
    endloop
  endfacet
  facet normal 0.036103 0.978148 -0.204751
    outer loop
      vertex -15 -3.80423 -5.38977
      vertex 15 -3.91785 -0.64278
      vertex -15 -3.86497 -5.67994
    endloop
  endfacet
  facet normal 0.0706317 0.913539 -0.400572
    outer loop
      vertex 15 -3.58132 0.408428
      vertex -15 -3.4641 -4.61405
      vertex 15 -3.4641 0.675758
    endloop
  endfacet
  facet normal 0.0706296 0.913545 -0.400559
    outer loop
      vertex -15 -3.4641 -4.61405
      vertex 15 -3.58132 0.408428
      vertex -15 -3.68507 -5.11801
    endloop
  endfacet
  facet normal 0.172697 0.104533 -0.979412
    outer loop
      vertex -15 -0.536711 -2.64048
      vertex 15 0 2.70661
      vertex 15 -0.28333 2.67637
    endloop
  endfacet
  facet normal 0.172697 0.104527 -0.979413
    outer loop
      vertex 15 0 2.70661
      vertex -15 -0.536711 -2.64048
      vertex -15 0 -2.5832
    endloop
  endfacet
  facet normal 0.172697 -0.104533 -0.979412
    outer loop
      vertex -15 0 -2.5832
      vertex 15 0.28333 2.67637
      vertex 15 0 2.70661
    endloop
  endfacet
  facet normal 0.172697 -0.104527 -0.979413
    outer loop
      vertex 15 0.28333 2.67637
      vertex -15 0 -2.5832
      vertex -15 0.536711 -2.64048
    endloop
  endfacet
  facet normal -0.129046 -0.669128 0.731857
    outer loop
      vertex -15 2.97258 -9.36272
      vertex 15 2.57054 -4.44049
      vertex 15 2.97258 -4.07291
    endloop
  endfacet
  facet normal -0.129046 -0.669128 0.731857
    outer loop
      vertex 15 2.57054 -4.44049
      vertex -15 2.97258 -9.36272
      vertex -15 2.75966 -9.55739
    endloop
  endfacet
  facet normal -0.0706296 -0.913545 0.400559
    outer loop
      vertex -15 3.58132 -8.40843
      vertex 15 3.4641 -3.38595
      vertex 15 3.68507 -2.88199
    endloop
  endfacet
  facet normal -0.0706317 -0.913539 0.400572
    outer loop
      vertex 15 3.4641 -3.38595
      vertex -15 3.58132 -8.40843
      vertex -15 3.4641 -8.67576
    endloop
  endfacet
  facet normal -0.150384 -0.500007 0.852865
    outer loop
      vertex -15 1.87425 -10.2105
      vertex 15 1.62695 -5.06565
      vertex 15 2.09503 -4.79123
    endloop
  endfacet
  facet normal -0.15038 -0.500048 0.852841
    outer loop
      vertex 15 1.62695 -5.06565
      vertex -15 1.87425 -10.2105
      vertex -15 1.62695 -10.3555
    endloop
  endfacet
  facet normal 0.150381 -0.500022 -0.852856
    outer loop
      vertex -15 1.62695 -2.93435
      vertex 15 1.87425 2.21047
      vertex 15 1.62695 2.35546
    endloop
  endfacet
  facet normal 0.150383 -0.500007 -0.852865
    outer loop
      vertex 15 1.87425 2.21047
      vertex -15 1.62695 -2.93435
      vertex -15 2.09503 -3.20877
    endloop
  endfacet
  facet normal -0.172697 0.104527 0.979413
    outer loop
      vertex -15 0 -10.7066
      vertex 15 -0.536711 -5.35952
      vertex 15 0 -5.4168
    endloop
  endfacet
  facet normal -0.172701 0.104397 0.979426
    outer loop
      vertex 15 -0.536711 -5.35952
      vertex -15 0 -10.7066
      vertex -15 -0.28333 -10.6764
    endloop
  endfacet
  facet normal -0.036103 0.978148 0.204751
    outer loop
      vertex 15 -3.80423 -2.61023
      vertex -15 -3.91785 -7.35722
      vertex 15 -3.86497 -2.32006
    endloop
  endfacet
  facet normal -0.0361013 0.97815 0.204741
    outer loop
      vertex -15 -3.91785 -7.35722
      vertex 15 -3.80423 -2.61023
      vertex -15 -3.80423 -7.90004
    endloop
  endfacet
  facet normal 0.0361065 -0.978144 -0.204772
    outer loop
      vertex -15 3.86497 -5.67994
      vertex 15 3.97809 -0.930531
      vertex 15 3.91785 -0.64278
    endloop
  endfacet
  facet normal 0.0361033 -0.978148 -0.204752
    outer loop
      vertex 15 3.97809 -0.930531
      vertex -15 3.86497 -5.67994
      vertex -15 3.97809 -6.22034
    endloop
  endfacet
  facet normal -0.036103 -0.978148 0.204751
    outer loop
      vertex -15 3.91785 -7.35722
      vertex 15 3.80423 -2.61023
      vertex 15 3.86497 -2.32006
    endloop
  endfacet
  facet normal -0.0361013 -0.97815 0.204741
    outer loop
      vertex 15 3.80423 -2.61023
      vertex -15 3.91785 -7.35722
      vertex -15 3.80423 -7.90004
    endloop
  endfacet
  facet normal 0.0706292 0.913545 -0.400557
    outer loop
      vertex 15 -3.80423 -0.0999595
      vertex -15 -3.68507 -5.11801
      vertex 15 -3.58132 0.408428
    endloop
  endfacet
  facet normal 0.0706305 0.913542 -0.400565
    outer loop
      vertex -15 -3.68507 -5.11801
      vertex 15 -3.80423 -0.0999595
      vertex -15 -3.80423 -5.38977
    endloop
  endfacet
  facet normal 0.150384 -0.5 -0.852869
    outer loop
      vertex -15 2.09503 -3.20877
      vertex 15 2.35114 1.93089
      vertex 15 1.87425 2.21047
    endloop
  endfacet
  facet normal 0.150385 -0.499984 -0.852877
    outer loop
      vertex 15 2.35114 1.93089
      vertex -15 2.09503 -3.20877
      vertex -15 2.35114 -3.35891
    endloop
  endfacet
  facet normal 0.129047 -0.669123 -0.731861
    outer loop
      vertex -15 2.35114 -3.35891
      vertex 15 2.75966 1.55739
      vertex 15 2.35114 1.93089
    endloop
  endfacet
  facet normal 0.129045 -0.669138 -0.731848
    outer loop
      vertex 15 2.75966 1.55739
      vertex -15 2.35114 -3.35891
      vertex -15 2.57054 -3.55951
    endloop
  endfacet
  facet normal -0.102065 -0.809029 0.578839
    outer loop
      vertex -15 3.4641 -8.67576
      vertex 15 3.29127 -3.62751
      vertex 15 3.4641 -3.38595
    endloop
  endfacet
  facet normal -0.102067 -0.809019 0.578852
    outer loop
      vertex 15 3.29127 -3.62751
      vertex -15 3.4641 -8.67576
      vertex -15 3.14136 -9.12683
    endloop
  endfacet
  facet normal -0.0361033 -0.978148 0.204752
    outer loop
      vertex -15 3.97809 -7.06947
      vertex 15 3.86497 -2.32006
      vertex 15 3.97809 -1.77966
    endloop
  endfacet
  facet normal -0.0361066 -0.978143 0.204773
    outer loop
      vertex 15 3.86497 -2.32006
      vertex -15 3.97809 -7.06947
      vertex -15 3.91785 -7.35722
    endloop
  endfacet
  facet normal -0.150385 -0.499984 0.852877
    outer loop
      vertex -15 2.35114 -9.93089
      vertex 15 2.09503 -4.79123
      vertex 15 2.35114 -4.64109
    endloop
  endfacet
  facet normal -0.15038 -0.50004 0.852846
    outer loop
      vertex 15 2.09503 -4.79123
      vertex -15 2.35114 -9.93089
      vertex -15 1.87425 -10.2105
    endloop
  endfacet
  facet normal 0.16515 -0.309008 -0.936611
    outer loop
      vertex -15 0.831646 -2.67196
      vertex 15 1.35568 2.44496
      vertex 15 0.831646 2.61785
    endloop
  endfacet
  facet normal 0.16515 -0.308989 -0.936617
    outer loop
      vertex 15 1.35568 2.44496
      vertex -15 0.831646 -2.67196
      vertex -15 1.11352 -2.76495
    endloop
  endfacet
  facet normal 0.172697 -0.10453 -0.979413
    outer loop
      vertex -15 0.536711 -2.64048
      vertex 15 0.831646 2.61785
      vertex 15 0.28333 2.67637
    endloop
  endfacet
  facet normal 0.172697 -0.104538 -0.979412
    outer loop
      vertex 15 0.831646 2.61785
      vertex -15 0.536711 -2.64048
      vertex -15 0.831646 -2.67196
    endloop
  endfacet
  facet normal -0.102065 0.809029 0.578839
    outer loop
      vertex 15 -3.29127 -3.62751
      vertex -15 -3.4641 -8.67576
      vertex 15 -3.4641 -3.38595
    endloop
  endfacet
  facet normal -0.102067 0.809019 0.578852
    outer loop
      vertex -15 -3.4641 -8.67576
      vertex 15 -3.29127 -3.62751
      vertex -15 -3.14136 -9.12683
    endloop
  endfacet
  facet normal -0.102069 0.809013 0.57886
    outer loop
      vertex 15 -2.97258 -4.07291
      vertex -15 -3.14136 -9.12683
      vertex 15 -3.29127 -3.62751
    endloop
  endfacet
  facet normal -0.102068 0.809018 0.578855
    outer loop
      vertex -15 -3.14136 -9.12683
      vertex 15 -2.97258 -4.07291
      vertex -15 -2.97258 -9.36272
    endloop
  endfacet
  facet normal -0.165151 0.309019 0.936607
    outer loop
      vertex -15 -0.831646 -10.6179
      vertex 15 -1.11352 -5.23504
      vertex 15 -0.831646 -5.32804
    endloop
  endfacet
  facet normal -0.16515 0.309024 0.936605
    outer loop
      vertex 15 -1.11352 -5.23504
      vertex -15 -0.831646 -10.6179
      vertex -15 -1.35568 -10.445
    endloop
  endfacet
  facet normal -0.129044 0.669138 0.731849
    outer loop
      vertex -15 -2.35114 -9.93089
      vertex 15 -2.57054 -4.44049
      vertex 15 -2.35114 -4.64109
    endloop
  endfacet
  facet normal -0.129047 0.669123 0.731861
    outer loop
      vertex 15 -2.57054 -4.44049
      vertex -15 -2.35114 -9.93089
      vertex -15 -2.75966 -9.55739
    endloop
  endfacet
  facet normal 0.0361065 0.978144 -0.204772
    outer loop
      vertex 15 -3.97809 -0.930531
      vertex -15 -3.86497 -5.67994
      vertex 15 -3.91785 -0.64278
    endloop
  endfacet
  facet normal 0.0361033 0.978148 -0.204752
    outer loop
      vertex -15 -3.86497 -5.67994
      vertex 15 -3.97809 -0.930531
      vertex -15 -3.97809 -6.22034
    endloop
  endfacet
  facet normal -0.0706305 0.913542 0.400565
    outer loop
      vertex 15 -3.68507 -2.88199
      vertex -15 -3.80423 -7.90004
      vertex 15 -3.80423 -2.61023
    endloop
  endfacet
  facet normal -0.0706289 0.913546 0.400556
    outer loop
      vertex -15 -3.80423 -7.90004
      vertex 15 -3.68507 -2.88199
      vertex -15 -3.58132 -8.40843
    endloop
  endfacet
  facet normal 0.129046 -0.669128 -0.731857
    outer loop
      vertex -15 2.57054 -3.55951
      vertex 15 2.97258 1.36272
      vertex 15 2.75966 1.55739
    endloop
  endfacet
  facet normal 0.129046 -0.669128 -0.731857
    outer loop
      vertex 15 2.97258 1.36272
      vertex -15 2.57054 -3.55951
      vertex -15 2.97258 -3.92709
    endloop
  endfacet
  facet normal 0.16515 0.309008 -0.936611
    outer loop
      vertex -15 -1.11352 -2.76495
      vertex 15 -0.831646 2.61785
      vertex 15 -1.35568 2.44496
    endloop
  endfacet
  facet normal 0.165151 0.308989 -0.936617
    outer loop
      vertex 15 -0.831646 2.61785
      vertex -15 -1.11352 -2.76495
      vertex -15 -0.831646 -2.67196
    endloop
  endfacet
  facet normal 0.172697 0.10453 -0.979413
    outer loop
      vertex -15 -0.831646 -2.67196
      vertex 15 -0.28333 2.67637
      vertex 15 -0.831646 2.61785
    endloop
  endfacet
  facet normal 0.172697 0.104538 -0.979412
    outer loop
      vertex 15 -0.28333 2.67637
      vertex -15 -0.831646 -2.67196
      vertex -15 -0.536711 -2.64048
    endloop
  endfacet
  facet normal -0.150386 0.499984 0.852877
    outer loop
      vertex -15 -1.87425 -10.2105
      vertex 15 -2.35114 -4.64109
      vertex 15 -2.09503 -4.79123
    endloop
  endfacet
  facet normal -0.150379 0.50004 0.852846
    outer loop
      vertex 15 -2.35114 -4.64109
      vertex -15 -1.87425 -10.2105
      vertex -15 -2.35114 -9.93089
    endloop
  endfacet
  facet normal -0.165151 -0.309005 0.936611
    outer loop
      vertex -15 1.62695 -10.3555
      vertex 15 1.11352 -5.23504
      vertex 15 1.62695 -5.06565
    endloop
  endfacet
  facet normal -0.165151 -0.309015 0.936608
    outer loop
      vertex 15 1.11352 -5.23504
      vertex -15 1.62695 -10.3555
      vertex -15 1.35568 -10.445
    endloop
  endfacet
  facet normal -0.165151 -0.309019 0.936607
    outer loop
      vertex -15 1.35568 -10.445
      vertex 15 0.831646 -5.32804
      vertex 15 1.11352 -5.23504
    endloop
  endfacet
  facet normal -0.16515 -0.309024 0.936605
    outer loop
      vertex 15 0.831646 -5.32804
      vertex -15 1.35568 -10.445
      vertex -15 0.831646 -10.6179
    endloop
  endfacet
  facet normal 0 -1 0
    outer loop
      vertex -15 3.97809 -6.22034
      vertex 15 3.97809 -1.77966
      vertex 15 3.97809 -0.930531
    endloop
  endfacet
  facet normal 0 -1 0
    outer loop
      vertex 15 3.97809 -1.77966
      vertex -15 3.97809 -6.22034
      vertex -15 3.97809 -7.06947
    endloop
  endfacet
  facet normal 0.129047 0.669123 -0.731861
    outer loop
      vertex -15 -2.57054 -3.55951
      vertex 15 -2.35114 1.93089
      vertex 15 -2.75966 1.55739
    endloop
  endfacet
  facet normal 0.129044 0.669138 -0.731849
    outer loop
      vertex 15 -2.35114 1.93089
      vertex -15 -2.57054 -3.55951
      vertex -15 -2.35114 -3.35891
    endloop
  endfacet
  facet normal 0 1 -0
    outer loop
      vertex 15 -3.97809 -1.77966
      vertex -15 -3.97809 -6.22034
      vertex 15 -3.97809 -0.930531
    endloop
  endfacet
  facet normal -0 1 0
    outer loop
      vertex -15 -3.97809 -6.22034
      vertex 15 -3.97809 -1.77966
      vertex -15 -3.97809 -7.06947
    endloop
  endfacet
  facet normal -0.0361033 0.978148 0.204752
    outer loop
      vertex 15 -3.86497 -2.32006
      vertex -15 -3.97809 -7.06947
      vertex 15 -3.97809 -1.77966
    endloop
  endfacet
  facet normal -0.0361066 0.978143 0.204773
    outer loop
      vertex -15 -3.97809 -7.06947
      vertex 15 -3.86497 -2.32006
      vertex -15 -3.91785 -7.35722
    endloop
  endfacet
  facet normal 0.102068 -0.809018 -0.578855
    outer loop
      vertex -15 2.97258 -3.92709
      vertex 15 3.14136 1.12683
      vertex 15 2.97258 1.36272
    endloop
  endfacet
  facet normal 0.102069 -0.809013 -0.57886
    outer loop
      vertex 15 3.14136 1.12683
      vertex -15 2.97258 -3.92709
      vertex -15 3.29127 -4.37249
    endloop
  endfacet
  facet normal 0.102068 0.809018 -0.578855
    outer loop
      vertex 15 -3.14136 1.12683
      vertex -15 -2.97258 -3.92709
      vertex 15 -2.97258 1.36272
    endloop
  endfacet
  facet normal 0.102069 0.809013 -0.57886
    outer loop
      vertex -15 -2.97258 -3.92709
      vertex 15 -3.14136 1.12683
      vertex -15 -3.29127 -4.37249
    endloop
  endfacet
  facet normal 0.129046 0.669128 -0.731857
    outer loop
      vertex -15 -2.97258 -3.92709
      vertex 15 -2.75966 1.55739
      vertex 15 -2.97258 1.36272
    endloop
  endfacet
  facet normal 0.129046 0.669128 -0.731857
    outer loop
      vertex 15 -2.75966 1.55739
      vertex -15 -2.97258 -3.92709
      vertex -15 -2.57054 -3.55951
    endloop
  endfacet
  facet normal 1 0 0
    outer loop
      vertex -15 -10 1
      vertex -15 -12 1
      vertex -15 -10 -12
    endloop
  endfacet
  facet normal 1 0 0
    outer loop
      vertex -15 10 -12
      vertex -15 12 1
      vertex -15 10 1
    endloop
  endfacet
  facet normal 1 0 0
    outer loop
      vertex -15 12 1
      vertex -15 10 -12
      vertex -15 12 -15
    endloop
  endfacet
  facet normal 1 -0 0
    outer loop
      vertex -15 -10 -12
      vertex -15 12 -15
      vertex -15 10 -12
    endloop
  endfacet
  facet normal 1 0 0
    outer loop
      vertex -15 -10 -12
      vertex -15 -12 -15
      vertex -15 12 -15
    endloop
  endfacet
  facet normal 1 0 0
    outer loop
      vertex -15 -12 -15
      vertex -15 -10 -12
      vertex -15 -12 1
    endloop
  endfacet
  facet normal 0 0 -1
    outer loop
      vertex -28.7 -12 -15
      vertex -15 12 -15
      vertex -15 -12 -15
    endloop
  endfacet
  facet normal -0 0 -1
    outer loop
      vertex -15 12 -15
      vertex -28.7 -12 -15
      vertex -28.7 12 -15
    endloop
  endfacet
  facet normal -1 0 0
    outer loop
      vertex -28.7 -12 -15
      vertex -28.7 12 1
      vertex -28.7 12 -15
    endloop
  endfacet
  facet normal -1 -0 0
    outer loop
      vertex -28.7 12 1
      vertex -28.7 -12 -15
      vertex -28.7 -12 1
    endloop
  endfacet
  facet normal 0 1 -0
    outer loop
      vertex -15 12 -15
      vertex -28.7 12 1
      vertex -15 12 1
    endloop
  endfacet
  facet normal 0 1 0
    outer loop
      vertex -28.7 12 1
      vertex -15 12 -15
      vertex -28.7 12 -15
    endloop
  endfacet
  facet normal 0 -1 0
    outer loop
      vertex -28.7 -12 -15
      vertex -15 -12 1
      vertex -28.7 -12 1
    endloop
  endfacet
  facet normal 0 -1 -0
    outer loop
      vertex -15 -12 1
      vertex -28.7 -12 -15
      vertex -15 -12 -15
    endloop
  endfacet
  facet normal -0 0 1
    outer loop
      vertex -26.7 10 -12
      vertex -15 -10 -12
      vertex -15 10 -12
    endloop
  endfacet
  facet normal 0 0 1
    outer loop
      vertex -15 -10 -12
      vertex -26.7 10 -12
      vertex -26.7 -10 -12
    endloop
  endfacet
  facet normal 1 -0 0
    outer loop
      vertex -26.7 -10 1
      vertex -26.7 10 -12
      vertex -26.7 10 1
    endloop
  endfacet
  facet normal 1 0 0
    outer loop
      vertex -26.7 10 -12
      vertex -26.7 -10 1
      vertex -26.7 -10 -12
    endloop
  endfacet
  facet normal 0 -1 0
    outer loop
      vertex -26.7 10 -12
      vertex -15 10 1
      vertex -26.7 10 1
    endloop
  endfacet
  facet normal 0 -1 -0
    outer loop
      vertex -15 10 1
      vertex -26.7 10 -12
      vertex -15 10 -12
    endloop
  endfacet
  facet normal 0 1 -0
    outer loop
      vertex -15 -10 -12
      vertex -26.7 -10 1
      vertex -15 -10 1
    endloop
  endfacet
  facet normal 0 1 0
    outer loop
      vertex -26.7 -10 1
      vertex -15 -10 -12
      vertex -26.7 -10 -12
    endloop
  endfacet
  facet normal 0 0 1
    outer loop
      vertex -15 12 1
      vertex -26.7 10 1
      vertex -15 10 1
    endloop
  endfacet
  facet normal 0 0 1
    outer loop
      vertex -26.7 10 1
      vertex -28.7 12 1
      vertex -26.7 -10 1
    endloop
  endfacet
  facet normal -0 0 1
    outer loop
      vertex -28.7 12 1
      vertex -26.7 10 1
      vertex -15 12 1
    endloop
  endfacet
  facet normal -0 0 1
    outer loop
      vertex -26.7 -10 1
      vertex -15 -12 1
      vertex -15 -10 1
    endloop
  endfacet
  facet normal 0 0 1
    outer loop
      vertex -26.7 -10 1
      vertex -28.7 -12 1
      vertex -15 -12 1
    endloop
  endfacet
  facet normal 0 0 1
    outer loop
      vertex -28.7 -12 1
      vertex -26.7 -10 1
      vertex -28.7 12 1
    endloop
  endfacet
endsolid OpenSCAD_Model
