solid OpenSCAD_Model
  facet normal 0 -1 0
    outer loop
      vertex -10 -17.3205 44
      vertex -0.365849 -17.3205 37.4808
      vertex 10 -17.3205 44
    endloop
  endfacet
  facet normal 0 -1 0
    outer loop
      vertex -10 -17.3205 44
      vertex -1.08156 -17.3205 37.3287
      vertex -0.365849 -17.3205 37.4808
    endloop
  endfacet
  facet normal 0 -1 0
    outer loop
      vertex -10 -17.3205 44
      vertex -1.75 -17.3205 37.0311
      vertex -1.08156 -17.3205 37.3287
    endloop
  endfacet
  facet normal 0 -1 0
    outer loop
      vertex -10 -17.3205 44
      vertex -2.34196 -17.3205 36.601
      vertex -1.75 -17.3205 37.0311
    endloop
  endfacet
  facet normal 0 -1 0
    outer loop
      vertex -10 -17.3205 44
      vertex -2.83156 -17.3205 36.0572
      vertex -2.34196 -17.3205 36.601
    endloop
  endfacet
  facet normal 0 -1 0
    outer loop
      vertex -10 -17.3205 44
      vertex -3.19741 -17.3205 35.4236
      vertex -2.83156 -17.3205 36.0572
    endloop
  endfacet
  facet normal 0 -1 0
    outer loop
      vertex -10 -17.3205 44
      vertex -3.42352 -17.3205 34.7277
      vertex -3.19741 -17.3205 35.4236
    endloop
  endfacet
  facet normal 0 -1 0
    outer loop
      vertex -10 -17.3205 44
      vertex -3.5 -17.3205 34
      vertex -3.42352 -17.3205 34.7277
    endloop
  endfacet
  facet normal 0 -1 0
    outer loop
      vertex -10 -17.3205 24
      vertex -3.5 -17.3205 34
      vertex -10 -17.3205 44
    endloop
  endfacet
  facet normal 0 -1 -0
    outer loop
      vertex -3.5 -17.3205 34
      vertex -10 -17.3205 24
      vertex -3.42352 -17.3205 33.2723
    endloop
  endfacet
  facet normal 0 -1 -0
    outer loop
      vertex -3.42352 -17.3205 33.2723
      vertex -10 -17.3205 24
      vertex -3.19741 -17.3205 32.5764
    endloop
  endfacet
  facet normal 0 -1 -0
    outer loop
      vertex -0.365849 -17.3205 30.5192
      vertex -10 -17.3205 24
      vertex 0.365849 -17.3205 30.5192
    endloop
  endfacet
  facet normal 0 -1 -0
    outer loop
      vertex -1.08156 -17.3205 30.6713
      vertex -10 -17.3205 24
      vertex -0.365849 -17.3205 30.5192
    endloop
  endfacet
  facet normal 0 -1 -0
    outer loop
      vertex -1.75 -17.3205 30.9689
      vertex -10 -17.3205 24
      vertex -1.08156 -17.3205 30.6713
    endloop
  endfacet
  facet normal 0 -1 -0
    outer loop
      vertex -2.34196 -17.3205 31.399
      vertex -10 -17.3205 24
      vertex -1.75 -17.3205 30.9689
    endloop
  endfacet
  facet normal 0 -1 -0
    outer loop
      vertex -2.83156 -17.3205 31.9428
      vertex -10 -17.3205 24
      vertex -2.34196 -17.3205 31.399
    endloop
  endfacet
  facet normal 0 -1 -0
    outer loop
      vertex -3.19741 -17.3205 32.5764
      vertex -10 -17.3205 24
      vertex -2.83156 -17.3205 31.9428
    endloop
  endfacet
  facet normal 0 -1 0
    outer loop
      vertex 0.365849 -17.3205 37.4808
      vertex 10 -17.3205 44
      vertex -0.365849 -17.3205 37.4808
    endloop
  endfacet
  facet normal 0 -1 0
    outer loop
      vertex 1.08156 -17.3205 37.3287
      vertex 10 -17.3205 44
      vertex 0.365849 -17.3205 37.4808
    endloop
  endfacet
  facet normal 0 -1 0
    outer loop
      vertex 1.75 -17.3205 37.0311
      vertex 10 -17.3205 44
      vertex 1.08156 -17.3205 37.3287
    endloop
  endfacet
  facet normal 0 -1 0
    outer loop
      vertex 2.34196 -17.3205 36.601
      vertex 10 -17.3205 44
      vertex 1.75 -17.3205 37.0311
    endloop
  endfacet
  facet normal 0 -1 0
    outer loop
      vertex 2.83156 -17.3205 36.0572
      vertex 10 -17.3205 44
      vertex 2.34196 -17.3205 36.601
    endloop
  endfacet
  facet normal 0 -1 0
    outer loop
      vertex 3.19741 -17.3205 35.4236
      vertex 10 -17.3205 44
      vertex 2.83156 -17.3205 36.0572
    endloop
  endfacet
  facet normal 0 -1 0
    outer loop
      vertex 3.42352 -17.3205 34.7277
      vertex 10 -17.3205 44
      vertex 3.19741 -17.3205 35.4236
    endloop
  endfacet
  facet normal 0 -1 0
    outer loop
      vertex 3.5 -17.3205 34
      vertex 10 -17.3205 44
      vertex 3.42352 -17.3205 34.7277
    endloop
  endfacet
  facet normal 0 -1 0
    outer loop
      vertex 10 -17.3205 24
      vertex 3.5 -17.3205 34
      vertex 3.42352 -17.3205 33.2723
    endloop
  endfacet
  facet normal 0 -1 0
    outer loop
      vertex 10 -17.3205 24
      vertex 3.42352 -17.3205 33.2723
      vertex 3.19741 -17.3205 32.5764
    endloop
  endfacet
  facet normal 0 -1 0
    outer loop
      vertex 10 -17.3205 24
      vertex 3.19741 -17.3205 32.5764
      vertex 2.83156 -17.3205 31.9428
    endloop
  endfacet
  facet normal 0 -1 0
    outer loop
      vertex 10 -17.3205 24
      vertex 0.365849 -17.3205 30.5192
      vertex -10 -17.3205 24
    endloop
  endfacet
  facet normal 0 -1 0
    outer loop
      vertex 0.365849 -17.3205 30.5192
      vertex 10 -17.3205 24
      vertex 1.08156 -17.3205 30.6713
    endloop
  endfacet
  facet normal 0 -1 0
    outer loop
      vertex 3.5 -17.3205 34
      vertex 10 -17.3205 24
      vertex 10 -17.3205 44
    endloop
  endfacet
  facet normal 0 -1 0
    outer loop
      vertex 2.34196 -17.3205 31.399
      vertex 10 -17.3205 24
      vertex 2.83156 -17.3205 31.9428
    endloop
  endfacet
  facet normal 0 -1 0
    outer loop
      vertex 1.75 -17.3205 30.9689
      vertex 10 -17.3205 24
      vertex 2.34196 -17.3205 31.399
    endloop
  endfacet
  facet normal 0 -1 0
    outer loop
      vertex 1.08156 -17.3205 30.6713
      vertex 10 -17.3205 24
      vertex 1.75 -17.3205 30.9689
    endloop
  endfacet
  facet normal 0.866025 -0.5 0
    outer loop
      vertex 10 -17.3205 44
      vertex 20 0 24
      vertex 20 0 44
    endloop
  endfacet
  facet normal 0.866025 -0.5 0
    outer loop
      vertex 20 0 24
      vertex 10 -17.3205 44
      vertex 10 -17.3205 24
    endloop
  endfacet
  facet normal 0 1 -0
    outer loop
      vertex 10 17.3205 24
      vertex -10 17.3205 44
      vertex 10 17.3205 44
    endloop
  endfacet
  facet normal 0 1 0
    outer loop
      vertex -10 17.3205 44
      vertex 10 17.3205 24
      vertex -10 17.3205 24
    endloop
  endfacet
  facet normal 0.866025 0.5 0
    outer loop
      vertex 20 0 44
      vertex 10 17.3205 24
      vertex 10 17.3205 44
    endloop
  endfacet
  facet normal 0.866025 0.5 0
    outer loop
      vertex 10 17.3205 24
      vertex 20 0 44
      vertex 20 0 24
    endloop
  endfacet
  facet normal -0.866025 0.5 0
    outer loop
      vertex -20 0 24
      vertex -10 17.3205 44
      vertex -10 17.3205 24
    endloop
  endfacet
  facet normal -0.866025 0.5 0
    outer loop
      vertex -10 17.3205 44
      vertex -20 0 24
      vertex -20 0 44
    endloop
  endfacet
  facet normal -0.866025 -0.5 0
    outer loop
      vertex -10 -17.3205 24
      vertex -20 0 44
      vertex -20 0 24
    endloop
  endfacet
  facet normal -0.866025 -0.5 0
    outer loop
      vertex -20 0 44
      vertex -10 -17.3205 24
      vertex -10 -17.3205 44
    endloop
  endfacet
  facet normal 0 0 1
    outer loop
      vertex 6 0 44
      vertex 20 0 44
      vertex 10 17.3205 44
    endloop
  endfacet
  facet normal 0 0 1
    outer loop
      vertex 20 0 44
      vertex 6 0 44
      vertex 10 -17.3205 44
    endloop
  endfacet
  facet normal 0 0 1
    outer loop
      vertex 10 17.3205 44
      vertex 3 5.19615 44
      vertex 6 0 44
    endloop
  endfacet
  facet normal 0 0 1
    outer loop
      vertex 10 17.3205 44
      vertex -3 5.19615 44
      vertex 3 5.19615 44
    endloop
  endfacet
  facet normal 0 0 1
    outer loop
      vertex -3 5.19615 44
      vertex -10 17.3205 44
      vertex -6 0 44
    endloop
  endfacet
  facet normal -0 0 1
    outer loop
      vertex -10 17.3205 44
      vertex -3 5.19615 44
      vertex 10 17.3205 44
    endloop
  endfacet
  facet normal -0 0 1
    outer loop
      vertex 3 -5.19615 44
      vertex 10 -17.3205 44
      vertex 6 0 44
    endloop
  endfacet
  facet normal -0 0 1
    outer loop
      vertex -3 -5.19615 44
      vertex 10 -17.3205 44
      vertex 3 -5.19615 44
    endloop
  endfacet
  facet normal 0 0 1
    outer loop
      vertex -3 -5.19615 44
      vertex -10 -17.3205 44
      vertex 10 -17.3205 44
    endloop
  endfacet
  facet normal 0 0 1
    outer loop
      vertex -6 0 44
      vertex -10 -17.3205 44
      vertex -3 -5.19615 44
    endloop
  endfacet
  facet normal 0 0 1
    outer loop
      vertex -20 0 44
      vertex -6 0 44
      vertex -10 17.3205 44
    endloop
  endfacet
  facet normal 0 0 1
    outer loop
      vertex -6 0 44
      vertex -20 0 44
      vertex -10 -17.3205 44
    endloop
  endfacet
  facet normal 0 0 -1
    outer loop
      vertex 6.47214 -4.70228 24
      vertex 20 0 24
      vertex 10 -17.3205 24
    endloop
  endfacet
  facet normal 0 0 -1
    outer loop
      vertex 7.60845 2.47214 24
      vertex 20 0 24
      vertex 8 0 24
    endloop
  endfacet
  facet normal -0 0 -1
    outer loop
      vertex 20 0 24
      vertex 7.60845 -2.47214 24
      vertex 8 0 24
    endloop
  endfacet
  facet normal 0 0 -1
    outer loop
      vertex 20 0 24
      vertex 6.47214 -4.70228 24
      vertex 7.60845 -2.47214 24
    endloop
  endfacet
  facet normal 0 0 -1
    outer loop
      vertex 10 -17.3205 24
      vertex 4.70228 -6.47214 24
      vertex 6.47214 -4.70228 24
    endloop
  endfacet
  facet normal 0 0 -1
    outer loop
      vertex 10 -17.3205 24
      vertex 2.47214 -7.60845 24
      vertex 4.70228 -6.47214 24
    endloop
  endfacet
  facet normal 0 0 -1
    outer loop
      vertex 10 -17.3205 24
      vertex 0 -8 24
      vertex 2.47214 -7.60845 24
    endloop
  endfacet
  facet normal 0 0 -1
    outer loop
      vertex -10 -17.3205 24
      vertex 0 -8 24
      vertex 10 -17.3205 24
    endloop
  endfacet
  facet normal -0 0 -1
    outer loop
      vertex 0 -8 24
      vertex -10 -17.3205 24
      vertex -2.47214 -7.60845 24
    endloop
  endfacet
  facet normal 0 0 -1
    outer loop
      vertex -6.47214 -4.70228 24
      vertex -20 0 24
      vertex -7.60845 -2.47214 24
    endloop
  endfacet
  facet normal 0 0 -1
    outer loop
      vertex -20 0 24
      vertex -6.47214 -4.70228 24
      vertex -10 -17.3205 24
    endloop
  endfacet
  facet normal -0 0 -1
    outer loop
      vertex -4.70228 -6.47214 24
      vertex -10 -17.3205 24
      vertex -6.47214 -4.70228 24
    endloop
  endfacet
  facet normal -0 0 -1
    outer loop
      vertex -2.47214 -7.60845 24
      vertex -10 -17.3205 24
      vertex -4.70228 -6.47214 24
    endloop
  endfacet
  facet normal 0 0 -1
    outer loop
      vertex 6.47214 4.70228 24
      vertex 20 0 24
      vertex 7.60845 2.47214 24
    endloop
  endfacet
  facet normal 0 0 -1
    outer loop
      vertex 20 0 24
      vertex 6.47214 4.70228 24
      vertex 10 17.3205 24
    endloop
  endfacet
  facet normal 0 0 -1
    outer loop
      vertex 4.70228 6.47214 24
      vertex 10 17.3205 24
      vertex 6.47214 4.70228 24
    endloop
  endfacet
  facet normal 0 0 -1
    outer loop
      vertex 2.47214 7.60845 24
      vertex 10 17.3205 24
      vertex 4.70228 6.47214 24
    endloop
  endfacet
  facet normal 0 0 -1
    outer loop
      vertex 0 8 24
      vertex 10 17.3205 24
      vertex 2.47214 7.60845 24
    endloop
  endfacet
  facet normal 0 0 -1
    outer loop
      vertex -10 17.3205 24
      vertex 0 8 24
      vertex -2.47214 7.60845 24
    endloop
  endfacet
  facet normal 0 0 -1
    outer loop
      vertex -10 17.3205 24
      vertex -2.47214 7.60845 24
      vertex -4.70228 6.47214 24
    endloop
  endfacet
  facet normal 0 0 -1
    outer loop
      vertex 0 8 24
      vertex -10 17.3205 24
      vertex 10 17.3205 24
    endloop
  endfacet
  facet normal 0 0 -1
    outer loop
      vertex -6.47214 4.70228 24
      vertex -10 17.3205 24
      vertex -4.70228 6.47214 24
    endloop
  endfacet
  facet normal 0 0 -1
    outer loop
      vertex -20 0 24
      vertex -6.47214 4.70228 24
      vertex -7.60845 2.47214 24
    endloop
  endfacet
  facet normal 0 0 -1
    outer loop
      vertex -20 0 24
      vertex -7.60845 2.47214 24
      vertex -8 0 24
    endloop
  endfacet
  facet normal 0 0 -1
    outer loop
      vertex -7.60845 -2.47214 24
      vertex -20 0 24
      vertex -8 0 24
    endloop
  endfacet
  facet normal -0 0 -1
    outer loop
      vertex -6.47214 4.70228 24
      vertex -20 0 24
      vertex -10 17.3205 24
    endloop
  endfacet
  facet normal 0 0 1
    outer loop
      vertex 3 5.19615 24
      vertex 3 -5.19615 24
      vertex 6 0 24
    endloop
  endfacet
  facet normal -0 0 1
    outer loop
      vertex -3 5.19615 24
      vertex 3 -5.19615 24
      vertex 3 5.19615 24
    endloop
  endfacet
  facet normal 0 0 1
    outer loop
      vertex -3 5.19615 24
      vertex -3 -5.19615 24
      vertex 3 -5.19615 24
    endloop
  endfacet
  facet normal 0 -0 1
    outer loop
      vertex -3 -5.19615 24
      vertex -3 5.19615 24
      vertex -6 0 24
    endloop
  endfacet
  facet normal 0 1 0
    outer loop
      vertex 3 -5.19615 44
      vertex 0.365849 -5.19615 37.4808
      vertex -3 -5.19615 44
    endloop
  endfacet
  facet normal 0 1 0
    outer loop
      vertex 3 -5.19615 44
      vertex 1.08156 -5.19615 37.3287
      vertex 0.365849 -5.19615 37.4808
    endloop
  endfacet
  facet normal 0 1 0
    outer loop
      vertex 3 -5.19615 44
      vertex 1.75 -5.19615 37.0311
      vertex 1.08156 -5.19615 37.3287
    endloop
  endfacet
  facet normal 0 1 0
    outer loop
      vertex 3 -5.19615 44
      vertex 2.34196 -5.19615 36.601
      vertex 1.75 -5.19615 37.0311
    endloop
  endfacet
  facet normal 0 1 0
    outer loop
      vertex 3 -5.19615 44
      vertex 2.83156 -5.19615 36.0572
      vertex 2.34196 -5.19615 36.601
    endloop
  endfacet
  facet normal -0 1 0
    outer loop
      vertex 2.83156 -5.19615 36.0572
      vertex 3 -5.19615 44
      vertex 3 -5.19615 35.7655
    endloop
  endfacet
  facet normal 0 1 -0
    outer loop
      vertex -0.365849 -5.19615 37.4808
      vertex -3 -5.19615 44
      vertex 0.365849 -5.19615 37.4808
    endloop
  endfacet
  facet normal 0 1 -0
    outer loop
      vertex -1.08156 -5.19615 37.3287
      vertex -3 -5.19615 44
      vertex -0.365849 -5.19615 37.4808
    endloop
  endfacet
  facet normal 0 1 -0
    outer loop
      vertex -1.75 -5.19615 37.0311
      vertex -3 -5.19615 44
      vertex -1.08156 -5.19615 37.3287
    endloop
  endfacet
  facet normal 0 1 -0
    outer loop
      vertex -2.34196 -5.19615 36.601
      vertex -3 -5.19615 44
      vertex -1.75 -5.19615 37.0311
    endloop
  endfacet
  facet normal 0 1 -0
    outer loop
      vertex -2.83156 -5.19615 36.0572
      vertex -3 -5.19615 44
      vertex -2.34196 -5.19615 36.601
    endloop
  endfacet
  facet normal 0 1 0
    outer loop
      vertex -3 -5.19615 44
      vertex -2.83156 -5.19615 36.0572
      vertex -3 -5.19615 35.7655
    endloop
  endfacet
  facet normal 0 1 0
    outer loop
      vertex 0.365849 -5.19615 30.5192
      vertex 3 -5.19615 24
      vertex -0.365849 -5.19615 30.5192
    endloop
  endfacet
  facet normal 0 1 0
    outer loop
      vertex 1.08156 -5.19615 30.6713
      vertex 3 -5.19615 24
      vertex 0.365849 -5.19615 30.5192
    endloop
  endfacet
  facet normal 0 1 0
    outer loop
      vertex 1.75 -5.19615 30.9689
      vertex 3 -5.19615 24
      vertex 1.08156 -5.19615 30.6713
    endloop
  endfacet
  facet normal 0 1 0
    outer loop
      vertex 2.34196 -5.19615 31.399
      vertex 3 -5.19615 24
      vertex 1.75 -5.19615 30.9689
    endloop
  endfacet
  facet normal 0 1 0
    outer loop
      vertex 2.83156 -5.19615 31.9428
      vertex 3 -5.19615 24
      vertex 2.34196 -5.19615 31.399
    endloop
  endfacet
  facet normal 0 1 -0
    outer loop
      vertex 3 -5.19615 24
      vertex 2.83156 -5.19615 31.9428
      vertex 3 -5.19615 32.2345
    endloop
  endfacet
  facet normal 0 1 0
    outer loop
      vertex -3 -5.19615 24
      vertex -0.365849 -5.19615 30.5192
      vertex 3 -5.19615 24
    endloop
  endfacet
  facet normal 0 1 0
    outer loop
      vertex -0.365849 -5.19615 30.5192
      vertex -3 -5.19615 24
      vertex -1.08156 -5.19615 30.6713
    endloop
  endfacet
  facet normal 0 1 0
    outer loop
      vertex -1.08156 -5.19615 30.6713
      vertex -3 -5.19615 24
      vertex -1.75 -5.19615 30.9689
    endloop
  endfacet
  facet normal 0 1 0
    outer loop
      vertex -1.75 -5.19615 30.9689
      vertex -3 -5.19615 24
      vertex -2.34196 -5.19615 31.399
    endloop
  endfacet
  facet normal 0 1 0
    outer loop
      vertex -2.83156 -5.19615 31.9428
      vertex -3 -5.19615 24
      vertex -3 -5.19615 32.2345
    endloop
  endfacet
  facet normal 0 1 0
    outer loop
      vertex -2.34196 -5.19615 31.399
      vertex -3 -5.19615 24
      vertex -2.83156 -5.19615 31.9428
    endloop
  endfacet
  facet normal -0.866026 0.5 0
    outer loop
      vertex 6 0 24
      vertex 3.11325 -5 32.4307
      vertex 6 0 44
    endloop
  endfacet
  facet normal -0.866025 0.5 0
    outer loop
      vertex 3 -5.19615 32.2345
      vertex 6 0 24
      vertex 3 -5.19615 24
    endloop
  endfacet
  facet normal -0.866022 0.500006 4.5977e-06
    outer loop
      vertex 6 0 24
      vertex 3 -5.19615 32.2345
      vertex 3.11325 -5 32.4307
    endloop
  endfacet
  facet normal -0.866026 0.5 0
    outer loop
      vertex 3.11325 -5 35.5693
      vertex 6 0 44
      vertex 3.11325 -5 32.4307
    endloop
  endfacet
  facet normal -0.866022 0.500006 -4.5977e-06
    outer loop
      vertex 3 -5.19615 35.7655
      vertex 6 0 44
      vertex 3.11325 -5 35.5693
    endloop
  endfacet
  facet normal -0.866025 0.5 0
    outer loop
      vertex 6 0 44
      vertex 3 -5.19615 35.7655
      vertex 3 -5.19615 44
    endloop
  endfacet
  facet normal 0 -1 0
    outer loop
      vertex -3 5.19615 24
      vertex 3 5.19615 44
      vertex -3 5.19615 44
    endloop
  endfacet
  facet normal 0 -1 -0
    outer loop
      vertex 3 5.19615 44
      vertex -3 5.19615 24
      vertex 3 5.19615 24
    endloop
  endfacet
  facet normal -0.866025 -0.5 0
    outer loop
      vertex 6 0 24
      vertex 3 5.19615 44
      vertex 3 5.19615 24
    endloop
  endfacet
  facet normal -0.866025 -0.5 0
    outer loop
      vertex 3 5.19615 44
      vertex 6 0 24
      vertex 6 0 44
    endloop
  endfacet
  facet normal 0.866025 -0.5 0
    outer loop
      vertex -6 0 44
      vertex -3 5.19615 24
      vertex -3 5.19615 44
    endloop
  endfacet
  facet normal 0.866025 -0.5 0
    outer loop
      vertex -3 5.19615 24
      vertex -6 0 44
      vertex -6 0 24
    endloop
  endfacet
  facet normal 0.866026 0.5 0
    outer loop
      vertex -6 0 44
      vertex -3.11325 -5 35.5693
      vertex -6 0 24
    endloop
  endfacet
  facet normal 0.866025 0.5 -0
    outer loop
      vertex -3 -5.19615 35.7655
      vertex -6 0 44
      vertex -3 -5.19615 44
    endloop
  endfacet
  facet normal 0.866022 0.500006 -4.5977e-06
    outer loop
      vertex -6 0 44
      vertex -3 -5.19615 35.7655
      vertex -3.11325 -5 35.5693
    endloop
  endfacet
  facet normal 0.866026 0.5 -0
    outer loop
      vertex -3.11325 -5 32.4307
      vertex -6 0 24
      vertex -3.11325 -5 35.5693
    endloop
  endfacet
  facet normal 0.866022 0.500006 4.5977e-06
    outer loop
      vertex -3 -5.19615 32.2345
      vertex -6 0 24
      vertex -3.11325 -5 32.4307
    endloop
  endfacet
  facet normal 0.866025 0.5 0
    outer loop
      vertex -6 0 24
      vertex -3 -5.19615 32.2345
      vertex -3 -5.19615 24
    endloop
  endfacet
  facet normal -0.207874 0 0.978156
    outer loop
      vertex 0.365849 -5.19615 30.5192
      vertex 1.08156 -17.3205 30.6713
      vertex 1.08156 -5.19615 30.6713
    endloop
  endfacet
  facet normal -0.207874 0 0.978156
    outer loop
      vertex 1.08156 -17.3205 30.6713
      vertex 0.365849 -5.19615 30.5192
      vertex 0.365849 -17.3205 30.5192
    endloop
  endfacet
  facet normal -0.951057 0 -0.309015
    outer loop
      vertex 3.42352 -17.3205 34.7277
      vertex 3.19741 -5 35.4236
      vertex 3.42352 -5 34.7277
    endloop
  endfacet
  facet normal -0.951057 -0 -0.309015
    outer loop
      vertex 3.19741 -5 35.4236
      vertex 3.42352 -17.3205 34.7277
      vertex 3.19741 -17.3205 35.4236
    endloop
  endfacet
  facet normal -0.994523 0 -0.104523
    outer loop
      vertex 3.5 -17.3205 34
      vertex 3.42352 -5 34.7277
      vertex 3.5 -5 34
    endloop
  endfacet
  facet normal -0.994523 -0 -0.104523
    outer loop
      vertex 3.42352 -5 34.7277
      vertex 3.5 -17.3205 34
      vertex 3.42352 -17.3205 34.7277
    endloop
  endfacet
  facet normal 0.743172 0 -0.669101
    outer loop
      vertex -2.34196 -17.3205 36.601
      vertex -2.83156 -5.19615 36.0572
      vertex -2.34196 -5.19615 36.601
    endloop
  endfacet
  facet normal 0.743172 0 -0.669101
    outer loop
      vertex -2.83156 -5.19615 36.0572
      vertex -2.34196 -17.3205 36.601
      vertex -2.83156 -17.3205 36.0572
    endloop
  endfacet
  facet normal 0 0 -1
    outer loop
      vertex -0.365849 -17.3205 37.4808
      vertex 0.365849 -5.19615 37.4808
      vertex 0.365849 -17.3205 37.4808
    endloop
  endfacet
  facet normal -0 0 -1
    outer loop
      vertex 0.365849 -5.19615 37.4808
      vertex -0.365849 -17.3205 37.4808
      vertex -0.365849 -5.19615 37.4808
    endloop
  endfacet
  facet normal 0.587799 0 -0.809007
    outer loop
      vertex -2.34196 -17.3205 36.601
      vertex -1.75 -5.19615 37.0311
      vertex -1.75 -17.3205 37.0311
    endloop
  endfacet
  facet normal 0.587799 0 -0.809007
    outer loop
      vertex -1.75 -5.19615 37.0311
      vertex -2.34196 -17.3205 36.601
      vertex -2.34196 -5.19615 36.601
    endloop
  endfacet
  facet normal 0.994523 0 -0.104523
    outer loop
      vertex -3.42352 -17.3205 34.7277
      vertex -3.5 -5 34
      vertex -3.42352 -5 34.7277
    endloop
  endfacet
  facet normal 0.994523 0 -0.104523
    outer loop
      vertex -3.5 -5 34
      vertex -3.42352 -17.3205 34.7277
      vertex -3.5 -17.3205 34
    endloop
  endfacet
  facet normal 0.406727 0 -0.91355
    outer loop
      vertex -1.75 -17.3205 37.0311
      vertex -1.08156 -5.19615 37.3287
      vertex -1.08156 -17.3205 37.3287
    endloop
  endfacet
  facet normal 0.406727 0 -0.91355
    outer loop
      vertex -1.08156 -5.19615 37.3287
      vertex -1.75 -17.3205 37.0311
      vertex -1.75 -5.19615 37.0311
    endloop
  endfacet
  facet normal -0.865922 -0.000353501 -0.500179
    outer loop
      vertex 3.19741 -5 35.4236
      vertex 3 -5.19615 35.7655
      vertex 3.11325 -5 35.5693
    endloop
  endfacet
  facet normal -0.86601 0 -0.500026
    outer loop
      vertex 3.19741 -17.3205 35.4236
      vertex 3 -5.19615 35.7655
      vertex 3.19741 -5 35.4236
    endloop
  endfacet
  facet normal -0.866001 5.79327e-07 -0.500042
    outer loop
      vertex 2.83156 -17.3205 36.0572
      vertex 3 -5.19615 35.7655
      vertex 3.19741 -17.3205 35.4236
    endloop
  endfacet
  facet normal -0.865991 0 -0.50006
    outer loop
      vertex 3 -5.19615 35.7655
      vertex 2.83156 -17.3205 36.0572
      vertex 2.83156 -5.19615 36.0572
    endloop
  endfacet
  facet normal -0.743172 0 -0.669101
    outer loop
      vertex 2.83156 -17.3205 36.0572
      vertex 2.34196 -5.19615 36.601
      vertex 2.83156 -5.19615 36.0572
    endloop
  endfacet
  facet normal -0.743172 -0 -0.669101
    outer loop
      vertex 2.34196 -5.19615 36.601
      vertex 2.83156 -17.3205 36.0572
      vertex 2.34196 -17.3205 36.601
    endloop
  endfacet
  facet normal 0.587799 0 0.809007
    outer loop
      vertex -2.34196 -5.19615 31.399
      vertex -1.75 -17.3205 30.9689
      vertex -1.75 -5.19615 30.9689
    endloop
  endfacet
  facet normal 0.587799 0 0.809007
    outer loop
      vertex -1.75 -17.3205 30.9689
      vertex -2.34196 -5.19615 31.399
      vertex -2.34196 -17.3205 31.399
    endloop
  endfacet
  facet normal -0.743172 0 0.669101
    outer loop
      vertex 2.34196 -17.3205 31.399
      vertex 2.83156 -5.19615 31.9428
      vertex 2.34196 -5.19615 31.399
    endloop
  endfacet
  facet normal -0.743172 0 0.669101
    outer loop
      vertex 2.83156 -5.19615 31.9428
      vertex 2.34196 -17.3205 31.399
      vertex 2.83156 -17.3205 31.9428
    endloop
  endfacet
  facet normal -0.406727 0 0.91355
    outer loop
      vertex 1.08156 -5.19615 30.6713
      vertex 1.75 -17.3205 30.9689
      vertex 1.75 -5.19615 30.9689
    endloop
  endfacet
  facet normal -0.406727 0 0.91355
    outer loop
      vertex 1.75 -17.3205 30.9689
      vertex 1.08156 -5.19615 30.6713
      vertex 1.08156 -17.3205 30.6713
    endloop
  endfacet
  facet normal -0 0 1
    outer loop
      vertex -0.365849 -5.19615 30.5192
      vertex 0.365849 -17.3205 30.5192
      vertex 0.365849 -5.19615 30.5192
    endloop
  endfacet
  facet normal 0 0 1
    outer loop
      vertex 0.365849 -17.3205 30.5192
      vertex -0.365849 -5.19615 30.5192
      vertex -0.365849 -17.3205 30.5192
    endloop
  endfacet
  facet normal -0.587799 0 0.809007
    outer loop
      vertex 1.75 -5.19615 30.9689
      vertex 2.34196 -17.3205 31.399
      vertex 2.34196 -5.19615 31.399
    endloop
  endfacet
  facet normal -0.587799 0 0.809007
    outer loop
      vertex 2.34196 -17.3205 31.399
      vertex 1.75 -5.19615 30.9689
      vertex 1.75 -17.3205 30.9689
    endloop
  endfacet
  facet normal -0.994523 0 0.104523
    outer loop
      vertex 3.42352 -17.3205 33.2723
      vertex 3.5 -5 34
      vertex 3.42352 -5 33.2723
    endloop
  endfacet
  facet normal -0.994523 0 0.104523
    outer loop
      vertex 3.5 -5 34
      vertex 3.42352 -17.3205 33.2723
      vertex 3.5 -17.3205 34
    endloop
  endfacet
  facet normal -0.406727 0 -0.91355
    outer loop
      vertex 1.08156 -17.3205 37.3287
      vertex 1.75 -5.19615 37.0311
      vertex 1.75 -17.3205 37.0311
    endloop
  endfacet
  facet normal -0.406727 0 -0.91355
    outer loop
      vertex 1.75 -5.19615 37.0311
      vertex 1.08156 -17.3205 37.3287
      vertex 1.08156 -5.19615 37.3287
    endloop
  endfacet
  facet normal -0.951057 0 0.309015
    outer loop
      vertex 3.19741 -17.3205 32.5764
      vertex 3.42352 -5 33.2723
      vertex 3.19741 -5 32.5764
    endloop
  endfacet
  facet normal -0.951057 0 0.309015
    outer loop
      vertex 3.42352 -5 33.2723
      vertex 3.19741 -17.3205 32.5764
      vertex 3.42352 -17.3205 33.2723
    endloop
  endfacet
  facet normal 0.406727 0 0.91355
    outer loop
      vertex -1.75 -5.19615 30.9689
      vertex -1.08156 -17.3205 30.6713
      vertex -1.08156 -5.19615 30.6713
    endloop
  endfacet
  facet normal 0.406727 0 0.91355
    outer loop
      vertex -1.08156 -17.3205 30.6713
      vertex -1.75 -5.19615 30.9689
      vertex -1.75 -17.3205 30.9689
    endloop
  endfacet
  facet normal -0.865991 0 0.50006
    outer loop
      vertex 2.83156 -5.19615 31.9428
      vertex 2.83156 -17.3205 31.9428
      vertex 3 -5.19615 32.2345
    endloop
  endfacet
  facet normal -0.865922 -0.000353501 0.500179
    outer loop
      vertex 3 -5.19615 32.2345
      vertex 3.19741 -5 32.5764
      vertex 3.11325 -5 32.4307
    endloop
  endfacet
  facet normal -0.866001 5.79327e-07 0.500042
    outer loop
      vertex 3.19741 -17.3205 32.5764
      vertex 3 -5.19615 32.2345
      vertex 2.83156 -17.3205 31.9428
    endloop
  endfacet
  facet normal -0.86601 0 0.500026
    outer loop
      vertex 3 -5.19615 32.2345
      vertex 3.19741 -17.3205 32.5764
      vertex 3.19741 -5 32.5764
    endloop
  endfacet
  facet normal 0.743172 -0 0.669101
    outer loop
      vertex -2.83156 -17.3205 31.9428
      vertex -2.34196 -5.19615 31.399
      vertex -2.83156 -5.19615 31.9428
    endloop
  endfacet
  facet normal 0.743172 0 0.669101
    outer loop
      vertex -2.34196 -5.19615 31.399
      vertex -2.83156 -17.3205 31.9428
      vertex -2.34196 -17.3205 31.399
    endloop
  endfacet
  facet normal -0.207874 0 -0.978156
    outer loop
      vertex 0.365849 -17.3205 37.4808
      vertex 1.08156 -5.19615 37.3287
      vertex 1.08156 -17.3205 37.3287
    endloop
  endfacet
  facet normal -0.207874 0 -0.978156
    outer loop
      vertex 1.08156 -5.19615 37.3287
      vertex 0.365849 -17.3205 37.4808
      vertex 0.365849 -5.19615 37.4808
    endloop
  endfacet
  facet normal 0 -1 0
    outer loop
      vertex 3.11325 -5 35.5693
      vertex 3.42352 -5 34.7277
      vertex 3.19741 -5 35.4236
    endloop
  endfacet
  facet normal 0 -1 0
    outer loop
      vertex 3.11325 -5 35.5693
      vertex 3.5 -5 34
      vertex 3.42352 -5 34.7277
    endloop
  endfacet
  facet normal 0 -1 0
    outer loop
      vertex 3.11325 -5 35.5693
      vertex 3.42352 -5 33.2723
      vertex 3.5 -5 34
    endloop
  endfacet
  facet normal 0 -1 0
    outer loop
      vertex 3.11325 -5 32.4307
      vertex 3.42352 -5 33.2723
      vertex 3.11325 -5 35.5693
    endloop
  endfacet
  facet normal 0 -1 0
    outer loop
      vertex 3.42352 -5 33.2723
      vertex 3.11325 -5 32.4307
      vertex 3.19741 -5 32.5764
    endloop
  endfacet
  facet normal 0 -1 0
    outer loop
      vertex -3.42352 -5 34.7277
      vertex -3.11325 -5 35.5693
      vertex -3.19741 -5 35.4236
    endloop
  endfacet
  facet normal 0 -1 0
    outer loop
      vertex -3.5 -5 34
      vertex -3.11325 -5 35.5693
      vertex -3.42352 -5 34.7277
    endloop
  endfacet
  facet normal 0 -1 0
    outer loop
      vertex -3.42352 -5 33.2723
      vertex -3.11325 -5 35.5693
      vertex -3.5 -5 34
    endloop
  endfacet
  facet normal 0 -1 0
    outer loop
      vertex -3.11325 -5 32.4307
      vertex -3.42352 -5 33.2723
      vertex -3.19741 -5 32.5764
    endloop
  endfacet
  facet normal 0 -1 0
    outer loop
      vertex -3.42352 -5 33.2723
      vertex -3.11325 -5 32.4307
      vertex -3.11325 -5 35.5693
    endloop
  endfacet
  facet normal -0.587799 0 -0.809007
    outer loop
      vertex 1.75 -17.3205 37.0311
      vertex 2.34196 -5.19615 36.601
      vertex 2.34196 -17.3205 36.601
    endloop
  endfacet
  facet normal -0.587799 0 -0.809007
    outer loop
      vertex 2.34196 -5.19615 36.601
      vertex 1.75 -17.3205 37.0311
      vertex 1.75 -5.19615 37.0311
    endloop
  endfacet
  facet normal 0.994523 -0 0.104523
    outer loop
      vertex -3.5 -17.3205 34
      vertex -3.42352 -5 33.2723
      vertex -3.5 -5 34
    endloop
  endfacet
  facet normal 0.994523 0 0.104523
    outer loop
      vertex -3.42352 -5 33.2723
      vertex -3.5 -17.3205 34
      vertex -3.42352 -17.3205 33.2723
    endloop
  endfacet
  facet normal 0.207874 0 -0.978156
    outer loop
      vertex -1.08156 -17.3205 37.3287
      vertex -0.365849 -5.19615 37.4808
      vertex -0.365849 -17.3205 37.4808
    endloop
  endfacet
  facet normal 0.207874 0 -0.978156
    outer loop
      vertex -0.365849 -5.19615 37.4808
      vertex -1.08156 -17.3205 37.3287
      vertex -1.08156 -5.19615 37.3287
    endloop
  endfacet
  facet normal 0.951057 -0 0.309015
    outer loop
      vertex -3.42352 -17.3205 33.2723
      vertex -3.19741 -5 32.5764
      vertex -3.42352 -5 33.2723
    endloop
  endfacet
  facet normal 0.951057 0 0.309015
    outer loop
      vertex -3.19741 -5 32.5764
      vertex -3.42352 -17.3205 33.2723
      vertex -3.19741 -17.3205 32.5764
    endloop
  endfacet
  facet normal 0.865922 -0.000353501 0.500179
    outer loop
      vertex -3.19741 -5 32.5764
      vertex -3 -5.19615 32.2345
      vertex -3.11325 -5 32.4307
    endloop
  endfacet
  facet normal 0.86601 -0 0.500026
    outer loop
      vertex -3.19741 -17.3205 32.5764
      vertex -3 -5.19615 32.2345
      vertex -3.19741 -5 32.5764
    endloop
  endfacet
  facet normal 0.866001 5.79327e-07 0.500042
    outer loop
      vertex -2.83156 -17.3205 31.9428
      vertex -3 -5.19615 32.2345
      vertex -3.19741 -17.3205 32.5764
    endloop
  endfacet
  facet normal 0.865991 0 0.50006
    outer loop
      vertex -3 -5.19615 32.2345
      vertex -2.83156 -17.3205 31.9428
      vertex -2.83156 -5.19615 31.9428
    endloop
  endfacet
  facet normal 0.865991 0 -0.50006
    outer loop
      vertex -2.83156 -5.19615 36.0572
      vertex -2.83156 -17.3205 36.0572
      vertex -3 -5.19615 35.7655
    endloop
  endfacet
  facet normal 0.865922 -0.000353501 -0.500179
    outer loop
      vertex -3 -5.19615 35.7655
      vertex -3.19741 -5 35.4236
      vertex -3.11325 -5 35.5693
    endloop
  endfacet
  facet normal 0.866001 5.79327e-07 -0.500042
    outer loop
      vertex -3.19741 -17.3205 35.4236
      vertex -3 -5.19615 35.7655
      vertex -2.83156 -17.3205 36.0572
    endloop
  endfacet
  facet normal 0.86601 0 -0.500026
    outer loop
      vertex -3 -5.19615 35.7655
      vertex -3.19741 -17.3205 35.4236
      vertex -3.19741 -5 35.4236
    endloop
  endfacet
  facet normal 0.951057 0 -0.309015
    outer loop
      vertex -3.19741 -17.3205 35.4236
      vertex -3.42352 -5 34.7277
      vertex -3.19741 -5 35.4236
    endloop
  endfacet
  facet normal 0.951057 0 -0.309015
    outer loop
      vertex -3.42352 -5 34.7277
      vertex -3.19741 -17.3205 35.4236
      vertex -3.42352 -17.3205 34.7277
    endloop
  endfacet
  facet normal 0.207874 0 0.978156
    outer loop
      vertex -1.08156 -5.19615 30.6713
      vertex -0.365849 -17.3205 30.5192
      vertex -0.365849 -5.19615 30.5192
    endloop
  endfacet
  facet normal 0.207874 0 0.978156
    outer loop
      vertex -0.365849 -17.3205 30.5192
      vertex -1.08156 -5.19615 30.6713
      vertex -1.08156 -17.3205 30.6713
    endloop
  endfacet
  facet normal 0.951056 0.309018 0
    outer loop
      vertex 4.89074 1.03956 20
      vertex 4.56773 2.03368 0
      vertex 4.56773 2.03368 20
    endloop
  endfacet
  facet normal 0.951056 0.309018 0
    outer loop
      vertex 4.56773 2.03368 0
      vertex 4.89074 1.03956 20
      vertex 4.89074 1.03956 0
    endloop
  endfacet
  facet normal 0.994522 0.104526 0
    outer loop
      vertex 5 0 20
      vertex 4.89074 1.03956 0
      vertex 4.89074 1.03956 20
    endloop
  endfacet
  facet normal 0.994522 0.104526 0
    outer loop
      vertex 4.89074 1.03956 0
      vertex 5 0 20
      vertex 5 0 0
    endloop
  endfacet
  facet normal 0.866024 0.500003 0
    outer loop
      vertex 4.56773 2.03368 20
      vertex 4.04508 2.93893 0
      vertex 4.04508 2.93893 20
    endloop
  endfacet
  facet normal 0.866024 0.500003 0
    outer loop
      vertex 4.04508 2.93893 0
      vertex 4.56773 2.03368 20
      vertex 4.56773 2.03368 0
    endloop
  endfacet
  facet normal 0 0 -1
    outer loop
      vertex 4.89074 -1.03956 20
      vertex 8 0 20
      vertex 7.60845 -2.47214 20
    endloop
  endfacet
  facet normal 0 0 -1
    outer loop
      vertex 4.56773 -2.03368 20
      vertex 7.60845 -2.47214 20
      vertex 6.47214 -4.70228 20
    endloop
  endfacet
  facet normal -0 0 -1
    outer loop
      vertex 8 0 20
      vertex 4.89074 -1.03956 20
      vertex 5 0 20
    endloop
  endfacet
  facet normal 0 0 -1
    outer loop
      vertex 8 0 20
      vertex 4.89074 1.03956 20
      vertex 7.60845 2.47214 20
    endloop
  endfacet
  facet normal 0 0 -1
    outer loop
      vertex 4.89074 1.03956 20
      vertex 8 0 20
      vertex 5 0 20
    endloop
  endfacet
  facet normal 0 0 -1
    outer loop
      vertex 3.34565 -3.71572 20
      vertex 6.47214 -4.70228 20
      vertex 4.70228 -6.47214 20
    endloop
  endfacet
  facet normal 0 0 -1
    outer loop
      vertex 7.60845 -2.47214 20
      vertex 4.56773 -2.03368 20
      vertex 4.89074 -1.03956 20
    endloop
  endfacet
  facet normal 0 0 -1
    outer loop
      vertex 6.47214 -4.70228 20
      vertex 4.04508 -2.93893 20
      vertex 4.56773 -2.03368 20
    endloop
  endfacet
  facet normal 0 0 -1
    outer loop
      vertex 6.47214 -4.70228 20
      vertex 3.34565 -3.71572 20
      vertex 4.04508 -2.93893 20
    endloop
  endfacet
  facet normal 0 0 -1
    outer loop
      vertex 4.70228 -6.47214 20
      vertex 2.5 -4.33013 20
      vertex 3.34565 -3.71572 20
    endloop
  endfacet
  facet normal 0 0 -1
    outer loop
      vertex 2.47214 -7.60845 20
      vertex 2.5 -4.33013 20
      vertex 4.70228 -6.47214 20
    endloop
  endfacet
  facet normal 0 0 -1
    outer loop
      vertex 2.47214 -7.60845 20
      vertex 1.54508 -4.75528 20
      vertex 2.5 -4.33013 20
    endloop
  endfacet
  facet normal 0 0 -1
    outer loop
      vertex 2.47214 -7.60845 20
      vertex 0.522642 -4.97261 20
      vertex 1.54508 -4.75528 20
    endloop
  endfacet
  facet normal 0 0 -1
    outer loop
      vertex 0 -8 20
      vertex 0.522642 -4.97261 20
      vertex 2.47214 -7.60845 20
    endloop
  endfacet
  facet normal 0 0 -1
    outer loop
      vertex 0 -8 20
      vertex -0.522642 -4.97261 20
      vertex 0.522642 -4.97261 20
    endloop
  endfacet
  facet normal 0 0 -1
    outer loop
      vertex -2.47214 -7.60845 20
      vertex -0.522642 -4.97261 20
      vertex 0 -8 20
    endloop
  endfacet
  facet normal -0 0 -1
    outer loop
      vertex -0.522642 -4.97261 20
      vertex -2.47214 -7.60845 20
      vertex -1.54508 -4.75528 20
    endloop
  endfacet
  facet normal 0 0 -1
    outer loop
      vertex -2.47214 -7.60845 20
      vertex -2.5 -4.33013 20
      vertex -1.54508 -4.75528 20
    endloop
  endfacet
  facet normal 0 0 -1
    outer loop
      vertex -4.70228 -6.47214 20
      vertex -2.5 -4.33013 20
      vertex -2.47214 -7.60845 20
    endloop
  endfacet
  facet normal -0 0 -1
    outer loop
      vertex -2.5 -4.33013 20
      vertex -4.70228 -6.47214 20
      vertex -3.34565 -3.71572 20
    endloop
  endfacet
  facet normal 0 0 -1
    outer loop
      vertex -6.47214 -4.70228 20
      vertex -3.34565 -3.71572 20
      vertex -4.70228 -6.47214 20
    endloop
  endfacet
  facet normal -0 0 -1
    outer loop
      vertex -3.34565 -3.71572 20
      vertex -6.47214 -4.70228 20
      vertex -4.04508 -2.93893 20
    endloop
  endfacet
  facet normal -0 0 -1
    outer loop
      vertex -4.04508 -2.93893 20
      vertex -6.47214 -4.70228 20
      vertex -4.56773 -2.03368 20
    endloop
  endfacet
  facet normal 0 0 -1
    outer loop
      vertex -7.60845 -2.47214 20
      vertex -4.56773 -2.03368 20
      vertex -6.47214 -4.70228 20
    endloop
  endfacet
  facet normal -0 0 -1
    outer loop
      vertex -4.56773 -2.03368 20
      vertex -7.60845 -2.47214 20
      vertex -4.89074 -1.03956 20
    endloop
  endfacet
  facet normal 0 0 -1
    outer loop
      vertex 4.56773 2.03368 20
      vertex 7.60845 2.47214 20
      vertex 4.89074 1.03956 20
    endloop
  endfacet
  facet normal -0 0 -1
    outer loop
      vertex 7.60845 2.47214 20
      vertex 4.56773 2.03368 20
      vertex 6.47214 4.70228 20
    endloop
  endfacet
  facet normal 0 0 -1
    outer loop
      vertex 4.04508 2.93893 20
      vertex 6.47214 4.70228 20
      vertex 4.56773 2.03368 20
    endloop
  endfacet
  facet normal 0 0 -1
    outer loop
      vertex 3.34565 3.71572 20
      vertex 6.47214 4.70228 20
      vertex 4.04508 2.93893 20
    endloop
  endfacet
  facet normal -0 0 -1
    outer loop
      vertex 6.47214 4.70228 20
      vertex 3.34565 3.71572 20
      vertex 4.70228 6.47214 20
    endloop
  endfacet
  facet normal 0 0 -1
    outer loop
      vertex 2.5 4.33013 20
      vertex 4.70228 6.47214 20
      vertex 3.34565 3.71572 20
    endloop
  endfacet
  facet normal 0 0 -1
    outer loop
      vertex 2.5 4.33013 20
      vertex 2.47214 7.60845 20
      vertex 4.70228 6.47214 20
    endloop
  endfacet
  facet normal 0 0 -1
    outer loop
      vertex 1.54508 4.75528 20
      vertex 2.47214 7.60845 20
      vertex 2.5 4.33013 20
    endloop
  endfacet
  facet normal 0 0 -1
    outer loop
      vertex 0.522642 4.97261 20
      vertex 2.47214 7.60845 20
      vertex 1.54508 4.75528 20
    endloop
  endfacet
  facet normal 0 0 -1
    outer loop
      vertex 0.522642 4.97261 20
      vertex 0 8 20
      vertex 2.47214 7.60845 20
    endloop
  endfacet
  facet normal 0 0 -1
    outer loop
      vertex -0.522642 4.97261 20
      vertex 0 8 20
      vertex 0.522642 4.97261 20
    endloop
  endfacet
  facet normal 0 0 -1
    outer loop
      vertex -2.47214 7.60845 20
      vertex -0.522642 4.97261 20
      vertex -1.54508 4.75528 20
    endloop
  endfacet
  facet normal 0 0 -1
    outer loop
      vertex -0.522642 4.97261 20
      vertex -2.47214 7.60845 20
      vertex 0 8 20
    endloop
  endfacet
  facet normal 0 0 -1
    outer loop
      vertex -2.5 4.33013 20
      vertex -2.47214 7.60845 20
      vertex -1.54508 4.75528 20
    endloop
  endfacet
  facet normal 0 0 -1
    outer loop
      vertex -4.70228 6.47214 20
      vertex -2.5 4.33013 20
      vertex -3.34565 3.71572 20
    endloop
  endfacet
  facet normal 0 0 -1
    outer loop
      vertex -6.47214 4.70228 20
      vertex -3.34565 3.71572 20
      vertex -4.04508 2.93893 20
    endloop
  endfacet
  facet normal 0 0 -1
    outer loop
      vertex -6.47214 4.70228 20
      vertex -4.04508 2.93893 20
      vertex -4.56773 2.03368 20
    endloop
  endfacet
  facet normal 0 0 -1
    outer loop
      vertex -2.5 4.33013 20
      vertex -4.70228 6.47214 20
      vertex -2.47214 7.60845 20
    endloop
  endfacet
  facet normal 0 0 -1
    outer loop
      vertex -7.60845 2.47214 20
      vertex -4.56773 2.03368 20
      vertex -4.89074 1.03956 20
    endloop
  endfacet
  facet normal 0 0 -1
    outer loop
      vertex -8 0 20
      vertex -4.89074 1.03956 20
      vertex -5 0 20
    endloop
  endfacet
  facet normal 0 0 -1
    outer loop
      vertex -8 0 20
      vertex -4.89074 -1.03956 20
      vertex -7.60845 -2.47214 20
    endloop
  endfacet
  facet normal 0 0 -1
    outer loop
      vertex -3.34565 3.71572 20
      vertex -6.47214 4.70228 20
      vertex -4.70228 6.47214 20
    endloop
  endfacet
  facet normal 0 0 -1
    outer loop
      vertex -4.89074 -1.03956 20
      vertex -8 0 20
      vertex -5 0 20
    endloop
  endfacet
  facet normal 0 0 -1
    outer loop
      vertex -4.56773 2.03368 20
      vertex -7.60845 2.47214 20
      vertex -6.47214 4.70228 20
    endloop
  endfacet
  facet normal -0 0 -1
    outer loop
      vertex -4.89074 1.03956 20
      vertex -8 0 20
      vertex -7.60845 2.47214 20
    endloop
  endfacet
  facet normal -0.40673 0.913548 0
    outer loop
      vertex -1.54508 4.75528 0
      vertex -2.5 4.33013 20
      vertex -1.54508 4.75528 20
    endloop
  endfacet
  facet normal -0.40673 0.913548 0
    outer loop
      vertex -2.5 4.33013 20
      vertex -1.54508 4.75528 0
      vertex -2.5 4.33013 0
    endloop
  endfacet
  facet normal 0.951056 -0.309018 0
    outer loop
      vertex 4.56773 -2.03368 20
      vertex 4.89074 -1.03956 0
      vertex 4.89074 -1.03956 20
    endloop
  endfacet
  facet normal 0.951056 -0.309018 0
    outer loop
      vertex 4.89074 -1.03956 0
      vertex 4.56773 -2.03368 20
      vertex 4.56773 -2.03368 0
    endloop
  endfacet
  facet normal 0.994522 -0.104526 0
    outer loop
      vertex 4.89074 -1.03956 20
      vertex 5 0 0
      vertex 5 0 20
    endloop
  endfacet
  facet normal 0.994522 -0.104526 0
    outer loop
      vertex 5 0 0
      vertex 4.89074 -1.03956 20
      vertex 4.89074 -1.03956 0
    endloop
  endfacet
  facet normal 0.40673 0.913548 -0
    outer loop
      vertex 2.5 4.33013 0
      vertex 1.54508 4.75528 20
      vertex 2.5 4.33013 20
    endloop
  endfacet
  facet normal 0.40673 0.913548 0
    outer loop
      vertex 1.54508 4.75528 20
      vertex 2.5 4.33013 0
      vertex 1.54508 4.75528 0
    endloop
  endfacet
  facet normal -0.866024 0.500003 0
    outer loop
      vertex -4.56773 2.03368 0
      vertex -4.04508 2.93893 20
      vertex -4.04508 2.93893 0
    endloop
  endfacet
  facet normal -0.866024 0.500003 0
    outer loop
      vertex -4.04508 2.93893 20
      vertex -4.56773 2.03368 0
      vertex -4.56773 2.03368 20
    endloop
  endfacet
  facet normal -0.587791 0.809013 0
    outer loop
      vertex -2.5 4.33013 0
      vertex -3.34565 3.71572 20
      vertex -2.5 4.33013 20
    endloop
  endfacet
  facet normal -0.587791 0.809013 0
    outer loop
      vertex -3.34565 3.71572 20
      vertex -2.5 4.33013 0
      vertex -3.34565 3.71572 0
    endloop
  endfacet
  facet normal 0.866024 -0.500003 0
    outer loop
      vertex 4.04508 -2.93893 20
      vertex 4.56773 -2.03368 0
      vertex 4.56773 -2.03368 20
    endloop
  endfacet
  facet normal 0.866024 -0.500003 0
    outer loop
      vertex 4.56773 -2.03368 0
      vertex 4.04508 -2.93893 20
      vertex 4.04508 -2.93893 0
    endloop
  endfacet
  facet normal 0 1 -0
    outer loop
      vertex 0.522642 4.97261 0
      vertex -0.522642 4.97261 20
      vertex 0.522642 4.97261 20
    endloop
  endfacet
  facet normal 0 1 0
    outer loop
      vertex -0.522642 4.97261 20
      vertex 0.522642 4.97261 0
      vertex -0.522642 4.97261 0
    endloop
  endfacet
  facet normal 0.587791 -0.809013 0
    outer loop
      vertex 2.5 -4.33013 0
      vertex 3.34565 -3.71572 20
      vertex 2.5 -4.33013 20
    endloop
  endfacet
  facet normal 0.587791 -0.809013 0
    outer loop
      vertex 3.34565 -3.71572 20
      vertex 2.5 -4.33013 0
      vertex 3.34565 -3.71572 0
    endloop
  endfacet
  facet normal 0.743142 0.669133 0
    outer loop
      vertex 4.04508 2.93893 20
      vertex 3.34565 3.71572 0
      vertex 3.34565 3.71572 20
    endloop
  endfacet
  facet normal 0.743142 0.669133 0
    outer loop
      vertex 3.34565 3.71572 0
      vertex 4.04508 2.93893 20
      vertex 4.04508 2.93893 0
    endloop
  endfacet
  facet normal -0.207915 -0.978147 0
    outer loop
      vertex -1.54508 -4.75528 0
      vertex -0.522642 -4.97261 20
      vertex -1.54508 -4.75528 20
    endloop
  endfacet
  facet normal -0.207915 -0.978147 -0
    outer loop
      vertex -0.522642 -4.97261 20
      vertex -1.54508 -4.75528 0
      vertex -0.522642 -4.97261 0
    endloop
  endfacet
  facet normal 0 -1 0
    outer loop
      vertex -0.522642 -4.97261 0
      vertex 0.522642 -4.97261 20
      vertex -0.522642 -4.97261 20
    endloop
  endfacet
  facet normal 0 -1 -0
    outer loop
      vertex 0.522642 -4.97261 20
      vertex -0.522642 -4.97261 0
      vertex 0.522642 -4.97261 0
    endloop
  endfacet
  facet normal -0.951056 0.309018 0
    outer loop
      vertex -4.89074 1.03956 0
      vertex -4.56773 2.03368 20
      vertex -4.56773 2.03368 0
    endloop
  endfacet
  facet normal -0.951056 0.309018 0
    outer loop
      vertex -4.56773 2.03368 20
      vertex -4.89074 1.03956 0
      vertex -4.89074 1.03956 20
    endloop
  endfacet
  facet normal -0.207915 0.978147 0
    outer loop
      vertex -0.522642 4.97261 0
      vertex -1.54508 4.75528 20
      vertex -0.522642 4.97261 20
    endloop
  endfacet
  facet normal -0.207915 0.978147 0
    outer loop
      vertex -1.54508 4.75528 20
      vertex -0.522642 4.97261 0
      vertex -1.54508 4.75528 0
    endloop
  endfacet
  facet normal 0.207915 -0.978147 0
    outer loop
      vertex 0.522642 -4.97261 0
      vertex 1.54508 -4.75528 20
      vertex 0.522642 -4.97261 20
    endloop
  endfacet
  facet normal 0.207915 -0.978147 0
    outer loop
      vertex 1.54508 -4.75528 20
      vertex 0.522642 -4.97261 0
      vertex 1.54508 -4.75528 0
    endloop
  endfacet
  facet normal -0.866024 -0.500003 0
    outer loop
      vertex -4.04508 -2.93893 0
      vertex -4.56773 -2.03368 20
      vertex -4.56773 -2.03368 0
    endloop
  endfacet
  facet normal -0.866024 -0.500003 0
    outer loop
      vertex -4.56773 -2.03368 20
      vertex -4.04508 -2.93893 0
      vertex -4.04508 -2.93893 20
    endloop
  endfacet
  facet normal 0.40673 -0.913548 0
    outer loop
      vertex 1.54508 -4.75528 0
      vertex 2.5 -4.33013 20
      vertex 1.54508 -4.75528 20
    endloop
  endfacet
  facet normal 0.40673 -0.913548 0
    outer loop
      vertex 2.5 -4.33013 20
      vertex 1.54508 -4.75528 0
      vertex 2.5 -4.33013 0
    endloop
  endfacet
  facet normal -0.994522 0.104526 0
    outer loop
      vertex -5 0 0
      vertex -4.89074 1.03956 20
      vertex -4.89074 1.03956 0
    endloop
  endfacet
  facet normal -0.994522 0.104526 0
    outer loop
      vertex -4.89074 1.03956 20
      vertex -5 0 0
      vertex -5 0 20
    endloop
  endfacet
  facet normal 0.587791 0.809013 -0
    outer loop
      vertex 3.34565 3.71572 0
      vertex 2.5 4.33013 20
      vertex 3.34565 3.71572 20
    endloop
  endfacet
  facet normal 0.587791 0.809013 0
    outer loop
      vertex 2.5 4.33013 20
      vertex 3.34565 3.71572 0
      vertex 2.5 4.33013 0
    endloop
  endfacet
  facet normal 0.207915 0.978147 -0
    outer loop
      vertex 1.54508 4.75528 0
      vertex 0.522642 4.97261 20
      vertex 1.54508 4.75528 20
    endloop
  endfacet
  facet normal 0.207915 0.978147 0
    outer loop
      vertex 0.522642 4.97261 20
      vertex 1.54508 4.75528 0
      vertex 0.522642 4.97261 0
    endloop
  endfacet
  facet normal 0.743142 -0.669133 0
    outer loop
      vertex 3.34565 -3.71572 20
      vertex 4.04508 -2.93893 0
      vertex 4.04508 -2.93893 20
    endloop
  endfacet
  facet normal 0.743142 -0.669133 0
    outer loop
      vertex 4.04508 -2.93893 0
      vertex 3.34565 -3.71572 20
      vertex 3.34565 -3.71572 0
    endloop
  endfacet
  facet normal -0.994522 -0.104526 0
    outer loop
      vertex -4.89074 -1.03956 0
      vertex -5 0 20
      vertex -5 0 0
    endloop
  endfacet
  facet normal -0.994522 -0.104526 0
    outer loop
      vertex -5 0 20
      vertex -4.89074 -1.03956 0
      vertex -4.89074 -1.03956 20
    endloop
  endfacet
  facet normal -0.951056 -0.309018 0
    outer loop
      vertex -4.56773 -2.03368 0
      vertex -4.89074 -1.03956 20
      vertex -4.89074 -1.03956 0
    endloop
  endfacet
  facet normal -0.951056 -0.309018 0
    outer loop
      vertex -4.89074 -1.03956 20
      vertex -4.56773 -2.03368 0
      vertex -4.56773 -2.03368 20
    endloop
  endfacet
  facet normal -0.587791 -0.809013 0
    outer loop
      vertex -3.34565 -3.71572 0
      vertex -2.5 -4.33013 20
      vertex -3.34565 -3.71572 20
    endloop
  endfacet
  facet normal -0.587791 -0.809013 -0
    outer loop
      vertex -2.5 -4.33013 20
      vertex -3.34565 -3.71572 0
      vertex -2.5 -4.33013 0
    endloop
  endfacet
  facet normal -0.743142 -0.669133 0
    outer loop
      vertex -3.34565 -3.71572 0
      vertex -4.04508 -2.93893 20
      vertex -4.04508 -2.93893 0
    endloop
  endfacet
  facet normal -0.743142 -0.669133 0
    outer loop
      vertex -4.04508 -2.93893 20
      vertex -3.34565 -3.71572 0
      vertex -3.34565 -3.71572 20
    endloop
  endfacet
  facet normal 0 0 -1
    outer loop
      vertex 4.89074 -1.03956 0
      vertex 4.89074 1.03956 0
      vertex 5 0 0
    endloop
  endfacet
  facet normal 0 0 -1
    outer loop
      vertex 4.56773 -2.03368 0
      vertex 4.89074 1.03956 0
      vertex 4.89074 -1.03956 0
    endloop
  endfacet
  facet normal 0 0 -1
    outer loop
      vertex 4.56773 -2.03368 0
      vertex 4.56773 2.03368 0
      vertex 4.89074 1.03956 0
    endloop
  endfacet
  facet normal 0 0 -1
    outer loop
      vertex 4.04508 -2.93893 0
      vertex 4.56773 2.03368 0
      vertex 4.56773 -2.03368 0
    endloop
  endfacet
  facet normal 0 0 -1
    outer loop
      vertex 4.04508 -2.93893 0
      vertex 4.04508 2.93893 0
      vertex 4.56773 2.03368 0
    endloop
  endfacet
  facet normal 0 0 -1
    outer loop
      vertex 3.34565 -3.71572 0
      vertex 4.04508 2.93893 0
      vertex 4.04508 -2.93893 0
    endloop
  endfacet
  facet normal 0 0 -1
    outer loop
      vertex 3.34565 -3.71572 0
      vertex 3.34565 3.71572 0
      vertex 4.04508 2.93893 0
    endloop
  endfacet
  facet normal 0 0 -1
    outer loop
      vertex 2.5 -4.33013 0
      vertex 3.34565 3.71572 0
      vertex 3.34565 -3.71572 0
    endloop
  endfacet
  facet normal 0 0 -1
    outer loop
      vertex 2.5 -4.33013 0
      vertex 2.5 4.33013 0
      vertex 3.34565 3.71572 0
    endloop
  endfacet
  facet normal 0 0 -1
    outer loop
      vertex 1.54508 -4.75528 0
      vertex 2.5 4.33013 0
      vertex 2.5 -4.33013 0
    endloop
  endfacet
  facet normal 0 0 -1
    outer loop
      vertex 1.54508 -4.75528 0
      vertex 1.54508 4.75528 0
      vertex 2.5 4.33013 0
    endloop
  endfacet
  facet normal 0 0 -1
    outer loop
      vertex 0.522642 -4.97261 0
      vertex 1.54508 4.75528 0
      vertex 1.54508 -4.75528 0
    endloop
  endfacet
  facet normal 0 0 -1
    outer loop
      vertex 0.522642 -4.97261 0
      vertex 0.522642 4.97261 0
      vertex 1.54508 4.75528 0
    endloop
  endfacet
  facet normal 0 0 -1
    outer loop
      vertex -0.522642 -4.97261 0
      vertex 0.522642 4.97261 0
      vertex 0.522642 -4.97261 0
    endloop
  endfacet
  facet normal 0 0 -1
    outer loop
      vertex -0.522642 -4.97261 0
      vertex -0.522642 4.97261 0
      vertex 0.522642 4.97261 0
    endloop
  endfacet
  facet normal 0 0 -1
    outer loop
      vertex -1.54508 -4.75528 0
      vertex -0.522642 4.97261 0
      vertex -0.522642 -4.97261 0
    endloop
  endfacet
  facet normal 0 0 -1
    outer loop
      vertex -1.54508 -4.75528 0
      vertex -1.54508 4.75528 0
      vertex -0.522642 4.97261 0
    endloop
  endfacet
  facet normal 0 0 -1
    outer loop
      vertex -2.5 -4.33013 0
      vertex -1.54508 4.75528 0
      vertex -1.54508 -4.75528 0
    endloop
  endfacet
  facet normal 0 0 -1
    outer loop
      vertex -2.5 -4.33013 0
      vertex -2.5 4.33013 0
      vertex -1.54508 4.75528 0
    endloop
  endfacet
  facet normal 0 0 -1
    outer loop
      vertex -3.34565 -3.71572 0
      vertex -2.5 4.33013 0
      vertex -2.5 -4.33013 0
    endloop
  endfacet
  facet normal 0 0 -1
    outer loop
      vertex -3.34565 -3.71572 0
      vertex -3.34565 3.71572 0
      vertex -2.5 4.33013 0
    endloop
  endfacet
  facet normal 0 0 -1
    outer loop
      vertex -4.04508 -2.93893 0
      vertex -3.34565 3.71572 0
      vertex -3.34565 -3.71572 0
    endloop
  endfacet
  facet normal 0 0 -1
    outer loop
      vertex -4.04508 -2.93893 0
      vertex -4.04508 2.93893 0
      vertex -3.34565 3.71572 0
    endloop
  endfacet
  facet normal 0 0 -1
    outer loop
      vertex -4.56773 -2.03368 0
      vertex -4.04508 2.93893 0
      vertex -4.04508 -2.93893 0
    endloop
  endfacet
  facet normal 0 0 -1
    outer loop
      vertex -4.56773 -2.03368 0
      vertex -4.56773 2.03368 0
      vertex -4.04508 2.93893 0
    endloop
  endfacet
  facet normal 0 0 -1
    outer loop
      vertex -4.89074 -1.03956 0
      vertex -4.56773 2.03368 0
      vertex -4.56773 -2.03368 0
    endloop
  endfacet
  facet normal 0 0 -1
    outer loop
      vertex -4.89074 -1.03956 0
      vertex -4.89074 1.03956 0
      vertex -4.56773 2.03368 0
    endloop
  endfacet
  facet normal 0 -0 -1
    outer loop
      vertex -4.89074 1.03956 0
      vertex -4.89074 -1.03956 0
      vertex -5 0 0
    endloop
  endfacet
  facet normal -0.40673 -0.913548 0
    outer loop
      vertex -2.5 -4.33013 0
      vertex -1.54508 -4.75528 20
      vertex -2.5 -4.33013 20
    endloop
  endfacet
  facet normal -0.40673 -0.913548 -0
    outer loop
      vertex -1.54508 -4.75528 20
      vertex -2.5 -4.33013 0
      vertex -1.54508 -4.75528 0
    endloop
  endfacet
  facet normal -0.743142 0.669133 0
    outer loop
      vertex -4.04508 2.93893 0
      vertex -3.34565 3.71572 20
      vertex -3.34565 3.71572 0
    endloop
  endfacet
  facet normal -0.743142 0.669133 0
    outer loop
      vertex -3.34565 3.71572 20
      vertex -4.04508 2.93893 0
      vertex -4.04508 2.93893 20
    endloop
  endfacet
  facet normal 0.891007 0.45399 0
    outer loop
      vertex 7.60845 2.47214 24
      vertex 6.47214 4.70228 20
      vertex 6.47214 4.70228 24
    endloop
  endfacet
  facet normal 0.891007 0.45399 0
    outer loop
      vertex 6.47214 4.70228 20
      vertex 7.60845 2.47214 24
      vertex 7.60845 2.47214 20
    endloop
  endfacet
  facet normal 0.987688 0.156435 0
    outer loop
      vertex 8 0 24
      vertex 7.60845 2.47214 20
      vertex 7.60845 2.47214 24
    endloop
  endfacet
  facet normal 0.987688 0.156435 0
    outer loop
      vertex 7.60845 2.47214 20
      vertex 8 0 24
      vertex 8 0 20
    endloop
  endfacet
  facet normal 0.707107 0.707107 0
    outer loop
      vertex 6.47214 4.70228 24
      vertex 4.70228 6.47214 20
      vertex 4.70228 6.47214 24
    endloop
  endfacet
  facet normal 0.707107 0.707107 0
    outer loop
      vertex 4.70228 6.47214 20
      vertex 6.47214 4.70228 24
      vertex 6.47214 4.70228 20
    endloop
  endfacet
  facet normal 0.156435 0.987688 -0
    outer loop
      vertex 2.47214 7.60845 20
      vertex 0 8 24
      vertex 2.47214 7.60845 24
    endloop
  endfacet
  facet normal 0.156435 0.987688 0
    outer loop
      vertex 0 8 24
      vertex 2.47214 7.60845 20
      vertex 0 8 20
    endloop
  endfacet
  facet normal 0.45399 0.891007 -0
    outer loop
      vertex 4.70228 6.47214 20
      vertex 2.47214 7.60845 24
      vertex 4.70228 6.47214 24
    endloop
  endfacet
  facet normal 0.45399 0.891007 0
    outer loop
      vertex 2.47214 7.60845 24
      vertex 4.70228 6.47214 20
      vertex 2.47214 7.60845 20
    endloop
  endfacet
  facet normal -0.45399 0.891007 0
    outer loop
      vertex -2.47214 7.60845 20
      vertex -4.70228 6.47214 24
      vertex -2.47214 7.60845 24
    endloop
  endfacet
  facet normal -0.45399 0.891007 0
    outer loop
      vertex -4.70228 6.47214 24
      vertex -2.47214 7.60845 20
      vertex -4.70228 6.47214 20
    endloop
  endfacet
  facet normal -0.156435 -0.987688 0
    outer loop
      vertex -2.47214 -7.60845 20
      vertex 0 -8 24
      vertex -2.47214 -7.60845 24
    endloop
  endfacet
  facet normal -0.156435 -0.987688 -0
    outer loop
      vertex 0 -8 24
      vertex -2.47214 -7.60845 20
      vertex 0 -8 20
    endloop
  endfacet
  facet normal 0.707107 -0.707107 0
    outer loop
      vertex 4.70228 -6.47214 24
      vertex 6.47214 -4.70228 20
      vertex 6.47214 -4.70228 24
    endloop
  endfacet
  facet normal 0.707107 -0.707107 0
    outer loop
      vertex 6.47214 -4.70228 20
      vertex 4.70228 -6.47214 24
      vertex 4.70228 -6.47214 20
    endloop
  endfacet
  facet normal -0.891007 -0.45399 0
    outer loop
      vertex -6.47214 -4.70228 20
      vertex -7.60845 -2.47214 24
      vertex -7.60845 -2.47214 20
    endloop
  endfacet
  facet normal -0.891007 -0.45399 0
    outer loop
      vertex -7.60845 -2.47214 24
      vertex -6.47214 -4.70228 20
      vertex -6.47214 -4.70228 24
    endloop
  endfacet
  facet normal -0.156435 0.987688 0
    outer loop
      vertex 0 8 20
      vertex -2.47214 7.60845 24
      vertex 0 8 24
    endloop
  endfacet
  facet normal -0.156435 0.987688 0
    outer loop
      vertex -2.47214 7.60845 24
      vertex 0 8 20
      vertex -2.47214 7.60845 20
    endloop
  endfacet
  facet normal 0.45399 -0.891007 0
    outer loop
      vertex 2.47214 -7.60845 20
      vertex 4.70228 -6.47214 24
      vertex 2.47214 -7.60845 24
    endloop
  endfacet
  facet normal 0.45399 -0.891007 0
    outer loop
      vertex 4.70228 -6.47214 24
      vertex 2.47214 -7.60845 20
      vertex 4.70228 -6.47214 20
    endloop
  endfacet
  facet normal 0.156435 -0.987688 0
    outer loop
      vertex 0 -8 20
      vertex 2.47214 -7.60845 24
      vertex 0 -8 24
    endloop
  endfacet
  facet normal 0.156435 -0.987688 0
    outer loop
      vertex 2.47214 -7.60845 24
      vertex 0 -8 20
      vertex 2.47214 -7.60845 20
    endloop
  endfacet
  facet normal -0.987688 -0.156435 0
    outer loop
      vertex -7.60845 -2.47214 20
      vertex -8 0 24
      vertex -8 0 20
    endloop
  endfacet
  facet normal -0.987688 -0.156435 0
    outer loop
      vertex -8 0 24
      vertex -7.60845 -2.47214 20
      vertex -7.60845 -2.47214 24
    endloop
  endfacet
  facet normal -0.891007 0.45399 0
    outer loop
      vertex -7.60845 2.47214 20
      vertex -6.47214 4.70228 24
      vertex -6.47214 4.70228 20
    endloop
  endfacet
  facet normal -0.891007 0.45399 0
    outer loop
      vertex -6.47214 4.70228 24
      vertex -7.60845 2.47214 20
      vertex -7.60845 2.47214 24
    endloop
  endfacet
  facet normal -0.707107 0.707107 0
    outer loop
      vertex -6.47214 4.70228 20
      vertex -4.70228 6.47214 24
      vertex -4.70228 6.47214 20
    endloop
  endfacet
  facet normal -0.707107 0.707107 0
    outer loop
      vertex -4.70228 6.47214 24
      vertex -6.47214 4.70228 20
      vertex -6.47214 4.70228 24
    endloop
  endfacet
  facet normal 0.891007 -0.45399 0
    outer loop
      vertex 6.47214 -4.70228 24
      vertex 7.60845 -2.47214 20
      vertex 7.60845 -2.47214 24
    endloop
  endfacet
  facet normal 0.891007 -0.45399 0
    outer loop
      vertex 7.60845 -2.47214 20
      vertex 6.47214 -4.70228 24
      vertex 6.47214 -4.70228 20
    endloop
  endfacet
  facet normal 0.987688 -0.156435 0
    outer loop
      vertex 7.60845 -2.47214 24
      vertex 8 0 20
      vertex 8 0 24
    endloop
  endfacet
  facet normal 0.987688 -0.156435 0
    outer loop
      vertex 8 0 20
      vertex 7.60845 -2.47214 24
      vertex 7.60845 -2.47214 20
    endloop
  endfacet
  facet normal -0.707107 -0.707107 0
    outer loop
      vertex -4.70228 -6.47214 20
      vertex -6.47214 -4.70228 24
      vertex -6.47214 -4.70228 20
    endloop
  endfacet
  facet normal -0.707107 -0.707107 0
    outer loop
      vertex -6.47214 -4.70228 24
      vertex -4.70228 -6.47214 20
      vertex -4.70228 -6.47214 24
    endloop
  endfacet
  facet normal -0.987688 0.156435 0
    outer loop
      vertex -8 0 20
      vertex -7.60845 2.47214 24
      vertex -7.60845 2.47214 20
    endloop
  endfacet
  facet normal -0.987688 0.156435 0
    outer loop
      vertex -7.60845 2.47214 24
      vertex -8 0 20
      vertex -8 0 24
    endloop
  endfacet
  facet normal -0.45399 -0.891007 0
    outer loop
      vertex -4.70228 -6.47214 20
      vertex -2.47214 -7.60845 24
      vertex -4.70228 -6.47214 24
    endloop
  endfacet
  facet normal -0.45399 -0.891007 -0
    outer loop
      vertex -2.47214 -7.60845 24
      vertex -4.70228 -6.47214 20
      vertex -2.47214 -7.60845 20
    endloop
  endfacet
endsolid OpenSCAD_Model
