solid OpenSCAD_Model
  facet normal 1 0 0
    outer loop
      vertex 25 6 8.8
      vertex 25 4 8.8
      vertex 25 6 7
    endloop
  endfacet
  facet normal 1 -0 0
    outer loop
      vertex 25 6 7
      vertex 25 10 0
      vertex 25 10 7
    endloop
  endfacet
  facet normal 1 0 0
    outer loop
      vertex 25 4 7
      vertex 25 6 7
      vertex 25 4 8.8
    endloop
  endfacet
  facet normal 1 0 0
    outer loop
      vertex 25 6 7
      vertex 25 4 7
      vertex 25 10 0
    endloop
  endfacet
  facet normal 1 0 0
    outer loop
      vertex 25 0 0
      vertex 25 4 7
      vertex 25 0 7
    endloop
  endfacet
  facet normal 1 0 0
    outer loop
      vertex 25 4 7
      vertex 25 0 0
      vertex 25 10 0
    endloop
  endfacet
  facet normal -0 0 1
    outer loop
      vertex 0 10 7
      vertex 25 6 7
      vertex 25 10 7
    endloop
  endfacet
  facet normal 0 0 1
    outer loop
      vertex 25 6 7
      vertex 0 10 7
      vertex 0 6 7
    endloop
  endfacet
  facet normal -0 0 1
    outer loop
      vertex 0 4 7
      vertex 25 0 7
      vertex 25 4 7
    endloop
  endfacet
  facet normal 0 0 1
    outer loop
      vertex 25 0 7
      vertex 0 4 7
      vertex 0 0 7
    endloop
  endfacet
  facet normal 0 0 -1
    outer loop
      vertex 0 0 0
      vertex 25 10 0
      vertex 25 0 0
    endloop
  endfacet
  facet normal -0 0 -1
    outer loop
      vertex 25 10 0
      vertex 0 0 0
      vertex 0 10 0
    endloop
  endfacet
  facet normal -1 0 0
    outer loop
      vertex 0 10 0
      vertex 0 6 7
      vertex 0 10 7
    endloop
  endfacet
  facet normal -1 0 0
    outer loop
      vertex 0 6 7
      vertex 0 4 7
      vertex 0 6 8.8
    endloop
  endfacet
  facet normal -1 0 0
    outer loop
      vertex 0 10 0
      vertex 0 4 7
      vertex 0 6 7
    endloop
  endfacet
  facet normal -1 0 0
    outer loop
      vertex 0 0 0
      vertex 0 4 7
      vertex 0 10 0
    endloop
  endfacet
  facet normal -1 -0 0
    outer loop
      vertex 0 4 7
      vertex 0 0 0
      vertex 0 0 7
    endloop
  endfacet
  facet normal -1 -0 0
    outer loop
      vertex 0 6 8.8
      vertex 0 4 7
      vertex 0 4 8.8
    endloop
  endfacet
  facet normal 0 1 -0
    outer loop
      vertex 25 10 0
      vertex 0 10 7
      vertex 25 10 7
    endloop
  endfacet
  facet normal 0 1 0
    outer loop
      vertex 0 10 7
      vertex 25 10 0
      vertex 0 10 0
    endloop
  endfacet
  facet normal 0 -1 0
    outer loop
      vertex 0 0 0
      vertex 25 0 7
      vertex 0 0 7
    endloop
  endfacet
  facet normal 0 -1 -0
    outer loop
      vertex 25 0 7
      vertex 0 0 0
      vertex 25 0 0
    endloop
  endfacet
  facet normal -0 0 1
    outer loop
      vertex 0 6 8.8
      vertex 25 4 8.8
      vertex 25 6 8.8
    endloop
  endfacet
  facet normal 0 0 1
    outer loop
      vertex 25 4 8.8
      vertex 0 6 8.8
      vertex 0 4 8.8
    endloop
  endfacet
  facet normal 0 1 -0
    outer loop
      vertex 25 6 7
      vertex 0 6 8.8
      vertex 25 6 8.8
    endloop
  endfacet
  facet normal 0 1 0
    outer loop
      vertex 0 6 8.8
      vertex 25 6 7
      vertex 0 6 7
    endloop
  endfacet
  facet normal 0 -1 0
    outer loop
      vertex 0 4 7
      vertex 25 4 8.8
      vertex 0 4 8.8
    endloop
  endfacet
  facet normal 0 -1 -0
    outer loop
      vertex 25 4 8.8
      vertex 0 4 7
      vertex 25 4 7
    endloop
  endfacet
endsolid OpenSCAD_Model
